<?xml version="1.0" encoding="UTF-8" standalone="no"?>
<!-- Created with Inkscape (http://www.inkscape.org/) -->

<svg
   width="50.799999mm"
   height="128.5mm"
   viewBox="0 0 50.800003 128.50002"
   version="1.1"
   id="svg8"
   inkscape:version="1.4 (e7c3feb1, 2024-10-09)"
   sodipodi:docname="Rikeda.svg"
   xmlns:inkscape="http://www.inkscape.org/namespaces/inkscape"
   xmlns:sodipodi="http://sodipodi.sourceforge.net/DTD/sodipodi-0.dtd"
   xmlns:xlink="http://www.w3.org/1999/xlink"
   xmlns="http://www.w3.org/2000/svg"
   xmlns:svg="http://www.w3.org/2000/svg"
   xmlns:rdf="http://www.w3.org/1999/02/22-rdf-syntax-ns#"
   xmlns:cc="http://creativecommons.org/ns#"
   xmlns:dc="http://purl.org/dc/elements/1.1/">
  <defs
     id="defs2">
    <rect
       x="1.7660702"
       y="1.7660702"
       width="301.99802"
       height="47.683895"
       id="rect5" />
    <rect
       x="150.99899"
       y="100.666"
       width="69.759773"
       height="54.748177"
       id="rect4" />
    <linearGradient
       id="swatch34"
       inkscape:swatch="solid">
      <stop
         style="stop-color:#3a4148;stop-opacity:1;"
         offset="0"
         id="stop34" />
    </linearGradient>
    <rect
       x="0"
       y="0"
       width="306.71417"
       height="49.808281"
       id="rect30" />
    <rect
       x="126.01646"
       y="46.91124"
       width="57.949177"
       height="211.56049"
       id="rect29" />
    <linearGradient
       id="swatch33"
       inkscape:swatch="solid">
      <stop
         style="stop-color:#000000;stop-opacity:1;"
         offset="0"
         id="stop33" />
    </linearGradient>
    <linearGradient
       id="swatch32"
       inkscape:swatch="solid">
      <stop
         style="stop-color:#000000;stop-opacity:1;"
         offset="0"
         id="stop32" />
    </linearGradient>
    <linearGradient
       id="swatch31"
       inkscape:swatch="solid">
      <stop
         style="stop-color:#000000;stop-opacity:1;"
         offset="0"
         id="stop31" />
    </linearGradient>
    <linearGradient
       id="swatch30"
       inkscape:swatch="solid">
      <stop
         style="stop-color:#000000;stop-opacity:1;"
         offset="0"
         id="stop30" />
    </linearGradient>
    <linearGradient
       id="swatch29"
       inkscape:swatch="solid">
      <stop
         style="stop-color:#000000;stop-opacity:1;"
         offset="0"
         id="stop29" />
    </linearGradient>
    <linearGradient
       id="swatch26"
       inkscape:swatch="solid">
      <stop
         style="stop-color:#000000;stop-opacity:1;"
         offset="0"
         id="stop26" />
    </linearGradient>
    <linearGradient
       id="swatch25"
       inkscape:swatch="solid">
      <stop
         style="stop-color:#000000;stop-opacity:0.05940594;"
         offset="0"
         id="stop25" />
    </linearGradient>
    <linearGradient
       id="swatch24"
       inkscape:swatch="solid">
      <stop
         style="stop-color:#000000;stop-opacity:1;"
         offset="0"
         id="stop24" />
    </linearGradient>
    <linearGradient
       id="swatch23"
       inkscape:swatch="solid">
      <stop
         style="stop-color:#000000;stop-opacity:1;"
         offset="0"
         id="stop23" />
    </linearGradient>
    <linearGradient
       id="swatch22"
       inkscape:swatch="solid">
      <stop
         style="stop-color:#000000;stop-opacity:1;"
         offset="0"
         id="stop22" />
    </linearGradient>
    <linearGradient
       id="swatch18"
       inkscape:swatch="solid">
      <stop
         style="stop-color:#336c11;stop-opacity:1;"
         offset="0"
         id="stop18" />
    </linearGradient>
    <linearGradient
       id="swatch7"
       inkscape:swatch="solid">
      <stop
         style="stop-color:#b22222;stop-opacity:0.49825785;"
         offset="0"
         id="stop7" />
    </linearGradient>
    <linearGradient
       id="swatch3"
       inkscape:swatch="solid">
      <stop
         style="stop-color:#d40000;stop-opacity:1;"
         offset="0"
         id="stop3" />
    </linearGradient>
    <rect
       x="-0.91982818"
       y="0"
       width="500.38654"
       height="79.105225"
       id="rect3" />
    <rect
       x="-0.91982818"
       y="11.037938"
       width="500.38654"
       height="60.70866"
       id="rect2" />
    <rect
       x="18.182747"
       y="17.172592"
       width="102.02541"
       height="40.406101"
       id="rect1" />
    <linearGradient
       inkscape:collect="always"
       xlink:href="#swatch7"
       id="linearGradient26"
       x1="0.12917322"
       y1="232.74997"
       x2="132.20918"
       y2="232.74997"
       gradientUnits="userSpaceOnUse" />
    <linearGradient
       inkscape:collect="always"
       xlink:href="#swatch25"
       id="linearGradient27"
       gradientUnits="userSpaceOnUse"
       x1="0.12917322"
       y1="232.74997"
       x2="132.20918"
       y2="232.74997" />
    <linearGradient
       inkscape:collect="always"
       xlink:href="#swatch7"
       id="linearGradient23"
       gradientUnits="userSpaceOnUse"
       x1="0.12917322"
       y1="232.74997"
       x2="132.20918"
       y2="232.74997" />
    <linearGradient
       inkscape:collect="always"
       xlink:href="#swatch7"
       id="linearGradient24"
       gradientUnits="userSpaceOnUse"
       x1="0.12917322"
       y1="232.74997"
       x2="132.20918"
       y2="232.74997" />
  </defs>
  <sodipodi:namedview
     id="base"
     pagecolor="#ffffff"
     bordercolor="#666666"
     borderopacity="1.0"
     inkscape:pageopacity="0.0"
     inkscape:pageshadow="2"
     inkscape:zoom="4.6998294"
     inkscape:cx="106.59961"
     inkscape:cy="22.341236"
     inkscape:document-units="mm"
     inkscape:current-layer="layer1"
     showgrid="false"
     units="mm"
     inkscape:snap-bbox="true"
     inkscape:snap-page="true"
     inkscape:bbox-nodes="false"
     inkscape:snap-bbox-edge-midpoints="false"
     inkscape:window-width="1296"
     inkscape:window-height="747"
     inkscape:window-x="0"
     inkscape:window-y="25"
     inkscape:window-maximized="0"
     inkscape:snap-bbox-midpoints="true"
     inkscape:snap-nodes="false"
     inkscape:showpageshadow="0"
     inkscape:pagecheckerboard="0"
     inkscape:deskcolor="#505050"
     showguides="false">
    <sodipodi:guide
       position="-10.848439,60.349565"
       orientation="0,-1"
       id="guide3"
       inkscape:locked="false" />
    <inkscape:grid
       id="grid3"
       units="mm"
       originx="0"
       originy="0"
       spacingx="1.0000001"
       spacingy="1.0000002"
       empcolor="#0099e5"
       empopacity="0.30196078"
       color="#0099e5"
       opacity="0.14901961"
       empspacing="5"
       enabled="true"
       visible="false" />
  </sodipodi:namedview>
  <metadata
     id="metadata5">
    <rdf:RDF>
      <cc:Work
         rdf:about="">
        <dc:format>image/svg+xml</dc:format>
        <dc:type
           rdf:resource="http://purl.org/dc/dcmitype/StillImage" />
      </cc:Work>
    </rdf:RDF>
  </metadata>
  <g
     inkscape:label="Layer 1"
     inkscape:groupmode="layer"
     id="layer1"
     transform="translate(-0.12917322,-168.49998)"
     style="display:inline;stroke:url(#linearGradient26)">
    <rect
       style="display:inline;opacity:1;fill:#d9e4f2;fill-opacity:1;fill-rule:evenodd;stroke:url(#linearGradient27);stroke-width:0;stroke-linecap:butt;stroke-linejoin:miter;stroke-miterlimit:4;stroke-dasharray:none;stroke-dashoffset:0;stroke-opacity:1;paint-order:normal"
       id="rect420"
       width="50.799999"
       height="128.5"
       x="0.12917322"
       y="168.49997"
       ry="0"
       inkscape:label="Pannello" />
    <rect
       style="display:none;fill:none;fill-opacity:1;stroke:url(#linearGradient24);stroke-width:0.264999;stroke-dasharray:none"
       id="rect7"
       width="25.135"
       height="128.235"
       x="0.26167274"
       y="168.63248"
       inkscape:label="guida_larghezza" />
    <rect
       style="display:none;fill:none;fill-opacity:1;stroke:url(#linearGradient23);stroke-width:0.264999;stroke-dasharray:none"
       id="rect7-2"
       width="50.535004"
       height="63.985001"
       x="0.26167277"
       y="232.88248"
       inkscape:label="guida_altezza" />
    <circle
       style="fill:#f8e9a8;fill-opacity:0.5;stroke:#3a4148;stroke-width:0.25;stroke-dasharray:none;stroke-opacity:1"
       id="path36"
       cx="25.529173"
       cy="217.97083"
       r="14.875" />
    <path
       d="m 16.330972,176.80591 h -0.994303 l -1.926704,-2.26407 h -1.079419 v 2.26407 h -0.766039 v -5.69458 h 1.613325 q 0.522299,0 0.870499,0.0688 0.348199,0.065 0.626759,0.23712 0.31338,0.19504 0.48748,0.49335 0.177968,0.29448 0.177968,0.74959 0,0.61573 -0.313379,1.03259 -0.31338,0.41305 -0.862762,0.62339 z m -1.791293,-4.09215 q 0,-0.24476 -0.08898,-0.43216 -0.08512,-0.19122 -0.286297,-0.32125 -0.166362,-0.11091 -0.394626,-0.15298 -0.228265,-0.0459 -0.537775,-0.0459 h -0.90145 v 2.14934 h 0.773776 q 0.363676,0 0.634497,-0.0612 0.270822,-0.065 0.460398,-0.23711 0.174099,-0.16062 0.255346,-0.36715 0.08512,-0.21034 0.08512,-0.53159 z m 4.565283,4.09215 h -2.274903 v -0.58132 h 0.754432 v -4.53195 h -0.754432 v -0.58131 h 2.274903 v 0.58131 H 18.35053 v 4.53195 h 0.754432 z m 5.934869,0 h -0.994304 l -2.278772,-2.5356 -0.572596,0.60426 v 1.93134 h -0.766038 v -5.69458 h 0.766038 v 2.97158 l 2.797204,-2.97158 h 0.928532 l -2.572808,2.6771 z m 4.654267,0 h -3.795376 v -5.69458 h 3.795376 v 0.6731 h -3.029336 v 1.56037 h 3.029336 v 0.6731 h -3.029336 v 2.11491 h 3.029336 z m 6.081885,-2.84155 q 0,0.77636 -0.34433,1.40738 -0.340462,0.63104 -0.909188,0.97906 -0.394626,0.24094 -0.882105,0.34802 -0.483611,0.10709 -1.276732,0.10709 h -1.454701 v -5.69458 h 1.439225 q 0.843417,0 1.338634,0.12238 0.499086,0.11855 0.843417,0.3289 0.58807,0.36332 0.916925,0.96758 0.328855,0.60426 0.328855,1.43417 z m -0.800858,-0.0114 q 0,-0.66928 -0.236002,-1.12821 -0.236003,-0.45894 -0.704137,-0.72282 -0.340462,-0.19122 -0.723482,-0.26388 -0.383019,-0.0765 -0.916925,-0.0765 h -0.719613 v 4.39428 h 0.719613 q 0.553251,0 0.963352,-0.0803 0.41397,-0.0803 0.758301,-0.29831 0.429446,-0.27153 0.642235,-0.71516 0.216658,-0.44364 0.216658,-1.10909 z m 6.580974,2.85302 h -0.816335 l -0.564857,-1.58713 h -2.491562 l -0.564857,1.58713 h -0.777646 l 2.096936,-5.69457 h 1.021385 z m -1.617194,-2.23729 -1.009779,-2.79566 -1.013647,2.79566 z"
       id="text6"
       style="font-size:11.2889px;text-align:center;text-anchor:middle;fill:#3a4148;stroke:#3a4148;stroke-width:0.25"
       aria-label="RIKEDA" />
    <path
       id="path24"
       style="fill:#c2e1c0;fill-opacity:0.698039;stroke:#3a4148;stroke-width:0.25"
       d="m 28.092112,204.01637 c -0.01888,-0.002 -0.03749,0.0417 -0.05636,0.08 0.05329,-0.0179 0.09575,-0.0381 0.06822,-0.072 -0.0041,-0.005 -0.0079,-0.007 -0.0118,-0.008 z m -0.05636,0.08 c -0.04259,0.0142 -0.09184,0.0267 -0.119647,0.044 -0.04438,0.0273 -0.07199,0.0691 -0.09344,0.11595 0.04981,-0.06 0.196742,0.11319 0.187386,-0.11595 0.0085,-0.0104 0.0172,-0.0266 0.0257,-0.044 z m -0.21359,0.15984 c -0.0032,0.004 -0.0045,0.008 -0.0055,0.014 0.0019,-0.005 0.0034,-0.0104 0.0055,-0.014 z m -0.0055,0.014 c -0.02126,0.0501 -0.03743,0.10451 -0.05835,0.15558 0.02671,-0.0175 0.04898,-0.0355 0.06379,-0.0538 0.0189,-0.0234 -0.01019,-0.0713 -0.0055,-0.1019 z m -0.05835,0.15558 c -0.17089,0.11205 -0.549683,0.2089 -0.68774,0.29405 -0.390907,0.24121 0.100396,-0.008 -0.09393,0.23185 -0.02215,0.0273 -0.06593,-0.0172 -0.09394,0 -0.187856,0.11596 -0.28135,0.46372 -0.469206,0.57962 -0.233673,0.14417 -0.419315,0.4326 -0.657581,0.57962 -0.05692,0.035 -0.242458,0.0674 -0.281818,0.11595 -0.02215,0.0272 0.02214,0.0886 0,0.11596 -0.05582,0.0688 -0.110492,0.0681 -0.187881,0.11595 -0.390908,0.24121 0.100395,-0.008 -0.09394,0.23184 -0.02213,0.0273 -0.0718,-0.0272 -0.09394,0 -0.02214,0.0273 0.02215,0.0886 0,0.11595 -0.02214,0.0272 -0.07179,-0.0272 -0.09394,0 -0.02213,0.0272 0.02212,0.0886 0,0.11596 -0.05444,0.0672 -0.32132,0.16466 -0.375761,0.23184 -0.02213,0.0273 0.02213,0.0886 0,0.11595 -0.02213,0.0272 -0.07179,-0.0273 -0.09394,0 -0.19434,0.23982 0.296963,-0.0104 -0.09394,0.23185 -0.02801,0.0172 -0.07179,-0.0274 -0.09393,0 -0.194341,0.23982 0.296964,-0.0104 -0.09394,0.23184 -0.02801,0.0172 -0.0718,-0.0272 -0.09394,0 -0.02213,0.0272 0.02212,0.0886 0,0.11595 -0.194339,0.23982 0.0075,-0.36648 -0.18788,0.11595 -0.01401,0.0345 0.02213,0.0886 0,0.11596 -0.02215,0.0272 -0.06594,-0.0172 -0.09394,0 -0.297065,0.1833 -0.49808,0.54251 -0.750035,0.80962 0.841108,-0.6293 1.63718,-1.3763 2.440957,-2.08475 0.18682,-0.15371 0.24886,-0.20333 0.313462,-0.25504 -0.05885,0.0429 -0.08891,0.0566 0.06229,-0.0928 0.122247,-0.12072 0.256902,-0.22204 0.375761,-0.34775 0.185664,-0.19639 0.390237,-0.36624 0.563145,-0.57961 0.07982,-0.0985 0.108055,-0.24927 0.187882,-0.34778 0.04949,-0.061 0.138373,-0.0548 0.187878,-0.11595 0.04949,-0.061 0.04444,-0.17075 0.09394,-0.23184 0.480008,-0.59233 -0.130958,0.48595 0.375761,-0.34777 0.01181,-0.0193 0.0213,-0.0406 0.03016,-0.0622 z m -1.876821,2.12563 c 0.07809,-0.0572 0.157016,-0.12568 0,0 z m -1.002193,-1.86878 c -0.253793,0.002 -0.774916,0.22204 -0.908252,0.26905 0.250476,-0.0772 0.494916,0.19667 0.75152,0.23185 0.04402,0.006 0.05435,-0.0915 0.09394,-0.11596 0.05601,-0.0345 0.143601,0.0547 0.187879,0 0.0095,-0.0113 0.0095,-0.33618 0,-0.34778 -0.02204,-0.0271 -0.06652,-0.038 -0.125084,-0.0372 z m -0.908252,0.26905 c -0.0446,0.0138 -0.03931,0.0797 -0.02126,0.15802 0.01155,-0.0579 0.02126,-0.11432 0.02126,-0.15802 z m -0.02126,0.15802 c -0.02926,0.14698 -0.06858,0.30566 0.02126,0.30566 0.07926,0 0.0099,-0.17084 -0.02126,-0.30566 z m 3.452048,1.18729 c -0.142059,3e-5 -0.285726,0.0211 -0.425201,0.0459 -0.452256,0.0796 -0.518345,0.45654 -0.844967,0.92677 0.313093,-0.19319 0.700762,-0.0953 1.032847,-0.23185 0.05867,-0.0242 0.513209,-0.169 0.563639,-0.23123 0.04428,-0.0547 0,-0.15457 0,-0.23185 0,-0.0772 0.06075,-0.2131 0,-0.23184 -0.106309,-0.0328 -0.215827,-0.0459 -0.326318,-0.0459 z m -1.270168,0.97253 c -0.03056,0.0188 -0.05014,0.0609 -0.06379,0.11231 0.02628,-0.0394 0.04988,-0.0779 0.06379,-0.11231 z m -0.06379,0.11231 c -0.09199,0.13801 -0.221506,0.29133 -0.124105,0.35142 0.09468,0.0583 0.08184,-0.19222 0.124105,-0.35142 z" />
    <path
       style="fill:#c2e1c0;fill-opacity:0.698039;stroke:#3a4148;stroke-width:0.25"
       d="m 18.199862,253.49051 c -0.01675,-0.5636 -0.392758,-1.90836 -0.816095,-2.3317 -0.04905,-0.049 -0.150017,-0.29146 -0.233171,-0.29146 -0.01943,0 0.01374,0.0446 0,0.0583 -0.01374,0.0137 -0.04091,-0.009 -0.05829,0 -0.06995,0.035 -0.104927,0.1399 -0.174878,0.17488 -0.023,0.0115 -0.215531,0.13422 -0.174877,0.17487 0.02564,0.0256 0.911757,-0.77872 0.874388,-0.81609 -0.02962,-0.0296 -0.258025,0.008 -0.291463,0 -0.123783,-0.031 -0.300485,-0.10317 -0.408048,-0.17488 -0.06394,-0.0426 -0.285023,-0.29146 -0.349755,-0.29146 -0.09972,0 0.15064,0.59274 0.174878,0.64122 0.01522,0.0305 -0.01145,0.40804 0,0.40804 0.0075,0 0.0124,-0.15378 0.05829,-0.29146 0.03096,-0.0929 0.325902,-0.31532 0.349755,-0.29146 0.03599,0.036 0.0953,0.36548 0.174878,0.52463 0.03119,0.0624 0.112087,0.26007 0.174878,0.29146 0.01738,0.009 0.04455,-0.0137 0.05829,0 0.01628,0.0163 0.203655,0.40731 0.23317,0.46634 0.0855,0.171 -0.08549,0.47023 0,0.64122 0.06156,0.12312 0.03033,0.17724 0.05829,0.23317 0.01229,0.0246 0.0496,0.0322 0.05829,0.0583 0.02915,0.0874 -0.02915,0.20403 0,0.29147 0.0087,0.0261 0.046,0.0337 0.05829,0.0583 0.0087,0.0174 0,0.0389 0,0.0583 0.07772,0.13602 0.155447,0.27203 0.23317,0.40805 z"
       id="path28" />
    <path
       style="fill:#c2e1c0;fill-opacity:0.698039;stroke:#3a4148;stroke-width:0.25"
       d="m 31.373977,251.62515 c 0,-0.0777 0.07772,-0.23317 0,-0.23317 -0.07772,0 -0.04855,0.29386 0,0.23317 0.11955,-0.14944 0.141531,-0.35663 0.23317,-0.52463 0.05264,-0.0965 0.164507,-0.14734 0.233172,-0.23317 0.24361,-0.30452 0.352954,-0.40965 0.69951,-0.58293 0.0907,-0.0454 0.523325,-0.057 0.524632,-0.0583 0.02748,-0.0275 0.02748,-0.0891 0,-0.11659 -0.05172,-0.0517 -0.218371,-0.0679 -0.291462,-0.11658 -0.273413,-0.18228 0.23455,0.0782 -0.174879,-0.0583 -0.02606,-0.009 -0.03081,-0.0583 -0.05829,-0.0583 -0.01323,0 0.161441,0.32961 0.174877,0.34976 0.27274,0.40911 0.305734,0.2189 0.524632,0 0.170301,-0.1703 0.327675,-0.33504 0.524634,-0.46634 0.07312,-0.0488 0.188746,-0.086 0.233169,-0.17488 0.0087,-0.0174 -0.01373,-0.0446 0,-0.0583 0.01942,-0.0194 0.07772,-0.0389 0.05829,-0.0583 -0.07031,-0.0703 -0.539734,0 -0.641217,0 -0.140994,0 -0.708279,-0.0539 -0.816097,0 -0.03817,0.0191 -0.216749,0.14204 -0.23317,0.17487 -0.0087,0.0174 0.01373,0.0446 0,0.0583 -0.01373,0.0137 -0.04455,-0.0137 -0.05829,0 -0.106867,0.10687 0.106871,0.53434 0,0.64121 -0.02915,0.0291 -0.145729,-0.0291 -0.174876,0 -0.02915,0.0291 -0.02915,0.0874 -0.05829,0.11659 -0.01373,0.0137 -0.04455,-0.0137 -0.05829,0 -0.01942,0.0194 -0.03886,0.15544 -0.05829,0.17488 -0.01373,0.0137 -0.04455,-0.0137 -0.05829,0 -0.01373,0.0137 0.0087,0.0409 0,0.0583 -0.03904,0.0781 -0.139062,0.0808 -0.174876,0.11658 -0.01942,0.0194 -0.03886,0.15545 -0.05829,0.17488 -0.01373,0.0137 -0.04455,-0.0137 -0.05829,0 -0.01373,0.0137 0.0087,0.0409 0,0.0583 -0.02458,0.0492 -0.09201,0.0674 -0.116584,0.11659 -0.07166,0.14331 -0.07257,0.31227 -0.116586,0.46634 z"
       id="path29" />
    <path
       style="fill:#c2e1c0;fill-opacity:0.698039;stroke:#3a4148;stroke-width:0.25"
       d="m 5.3172097,265.09073 c 0.045081,-0.20469 -0.041099,-0.43573 0,-0.64122 0.086735,-0.43368 0.73758,-0.84782 1.0492658,-1.10756 0.1055512,-0.088 0.173646,-0.22077 0.2914628,-0.29146 0.37836,-0.22702 -0.00394,0.12052 0.2914627,-0.17488 0.1228759,-0.12287 0.2736151,-0.10766 0.4080478,-0.17488 0.034759,-0.0174 0.1165852,0.0389 0.1165852,0 0,-0.0309 -0.150875,-0.15087 -0.1748777,-0.17488 -0.019431,-0.0194 -0.046003,-0.0337 -0.058293,-0.0583 -0.00869,-0.0174 0.019431,-0.0583 0,-0.0583 -0.055942,0 0.046182,0.52463 0.2331702,0.52463 0.054455,0 -0.1701028,-0.33543 -0.1748777,-0.34975 -0.0045,-0.0135 -0.06987,-0.27989 -0.058293,-0.29146 0.00802,-0.008 0.8507545,0.0158 1.0492658,-0.11659 0.035545,-0.0237 0.307526,-0.21711 0.3497551,-0.17488 0.073818,0.0738 -0.128233,0.36141 -0.1748774,0.40805 -0.037904,0.0379 -0.624885,0.40396 -0.6412182,0.40805 -0.037701,0.009 -0.079718,-0.0123 -0.116585,0 -0.068112,0.0227 -0.1951937,0.27114 -0.2331701,0.23317 -0.1037744,-0.10378 0.1352738,-0.21337 0.1748777,-0.23317 0.18094,-0.0905 0.3936714,-0.107 0.5829252,-0.23317 0.129594,-0.0864 0.2111102,-0.28043 0.3497553,-0.34976 0.042886,-0.0215 0.2144435,-0.0396 0.2331702,-0.0583 0.027479,-0.0275 0.027479,-0.0891 0,-0.11659 -0.011605,-0.0116 -1.0173065,0.008 -1.282436,-0.0583 -0.04839,-0.0121 -0.3707659,-0.0373 -0.4080478,0 -0.062935,0.0629 0.042669,0.30288 0.058292,0.34976 0.041449,0.12434 0.049235,0.29146 0.058293,0.29146 0.021841,0 0.1684285,-0.29791 0.2914626,-0.17488 0.062901,0.0629 -0.1474028,0.16114 -0.1748776,0.17488 -0.1046546,0.0523 -0.250774,0.0671 -0.3497554,0.11658 -0.2425993,0.12131 0.062317,-0.004 -0.058292,0.11659 -0.033552,0.0335 -0.1593313,-0.0829 -0.2331702,-0.0583 -0.094618,0.0315 -0.3621079,0.29764 -0.4663403,0.34975 -0.035329,0.0177 -0.1504505,0.0339 -0.1748777,0.0583 -0.032882,0.0329 0.015528,0.18658 0,0.23316 -0.062034,0.18611 -0.118102,0.35204 -0.2331701,0.52464 -0.073571,0.11035 -0.5115049,0.64043 -0.524633,0.69951 -0.029506,0.13278 0,0.27203 0,0.40805 z"
       id="path30" />
    <path
       style="fill:#c2e1c0;fill-opacity:0.698039;stroke:#3a4148;stroke-width:0.25"
       d="m 42.507853,261.64693 c 0,0.34975 0,0.69951 0,1.04927 0,0.0583 -0.05829,0.17487 0,0.17487 0.04345,0 -0.04775,-0.0744 -0.05829,-0.11658 -0.04857,-0.19431 0.03239,-0.12954 0,-0.29146 -0.03018,-0.1509 -0.309256,-0.75484 0.05829,-0.8161 0.08904,-0.0148 0.699476,0.40805 0.93268,0.40805 0.106294,0 0.291465,0.12981 0.291465,0.0583 0,-0.0331 -0.188463,0.0288 -0.408048,0.11658 -0.414261,0.16571 -0.733068,0.38332 -1.049266,0.69951 -0.118507,0.11851 -0.28702,0.29147 -0.23317,0.29147 0.09439,0 0.184388,-0.18439 0.23317,-0.23317 0.111641,-0.11164 0.337261,-0.11034 0.466341,-0.17488 0.03817,-0.0191 0.216749,-0.14204 0.233169,-0.17488 0.0087,-0.0174 -0.01373,-0.0446 0,-0.0583 0.01373,-0.0137 0.04455,0.0137 0.05829,0 0.07189,-0.0719 -0.05246,-0.11075 -0.05829,-0.11658 -0.01373,-0.0137 0.01373,-0.0446 0,-0.0583 -0.02748,-0.0275 -0.116586,-0.0389 -0.116586,0 0,0.0389 0.08183,-0.0174 0.116586,0 0.09636,0.0482 0.104418,0.17681 0.174877,0.23317 0.156215,0.12498 0.360743,0.17674 0.524634,0.29146 0.264687,0.18529 0.677823,0.43743 0.874387,0.69952 0.0377,0.0503 0.228751,0.52463 0.233172,0.52463 0.01283,0 0.0047,-0.15443 -0.05829,-0.23317 -0.129032,-0.16129 -0.269872,-0.31281 -0.408048,-0.46634 -0.155297,-0.17255 -1.163934,-1.25233 -1.340729,-1.34073 -0.03476,-0.0174 -0.07772,0 -0.116586,0"
       id="path31" />
    <path
       style="fill:#c2e1c0;fill-opacity:0.698039;stroke:#3a4148;stroke-width:0.25"
       d="m 8.8730551,278.20655 c 0,0.46634 0,0.93268 0,1.39902 0,0.0693 0.046154,0.26535 -0.058293,0.29146 -0.3356737,0.0839 -0.4934781,-0.23718 -0.6995105,0.17488 -0.2443112,0.48862 -0.1017889,0.99793 -0.4080478,1.45731 -0.071998,0.108 -0.089179,0.0403 -0.2331701,0.0583 -0.2839506,0.0355 -0.5123574,0.0859 -0.7578032,0.23317 -0.060075,0.036 -0.1098296,0.0906 -0.1748777,0.11658 -0.166593,0.0666 -0.4275949,-0.0361 -0.5829255,-0.0583 -0.046627,-0.007 -0.5812935,0.0599 -0.6412179,0 -0.01374,-0.0137 0.01374,-0.0446 0,-0.0583 -0.01374,-0.0137 -0.044553,0.0137 -0.058293,0 -0.04849,-0.0485 0.076521,-0.40805 -0.058293,-0.40805 -0.09774,0 0.1654101,0.82556 0.116585,0.87439 -0.026597,0.0266 -1.1289244,0 -1.2241435,0 -0.058293,0 -0.1165849,0 -0.1748777,0 -0.019431,0 -0.058292,-0.0194 -0.058292,0 0,0.0194 0.040913,0.009 0.058292,0 0.1469406,-0.0735 0.2216232,-0.36384 0.3497554,-0.46634 0.091428,-0.0731 0.5834499,-0.2631 0.641218,-0.34976 0.021556,-0.0323 -0.01229,-0.0797 0,-0.11658 0.00999,-0.03 0.1815631,-0.17488 0.1165852,-0.17488 -0.019431,0 0,0.0389 0,0.0583 0,0.13602 0,0.27203 0,0.40805 0,0.20866 0.6289854,0.13269 0.7578029,0.11658 0.1742302,-0.0218 0.4202795,-0.0624 0.5829255,-0.11658 0.1330883,-0.0444 -7.409e-4,-0.21325 0.1165852,-0.29146 0.035195,-0.0235 0.7750828,-0.13709 0.8160956,-0.11659 0.1619279,0.081 0.1647256,0.28131 0.2331701,0.34976 0.01374,0.0137 0.044553,-0.0137 0.058293,0 0.027479,0.0275 -0.027479,0.0891 0,0.11658 0.1206095,0.12061 -0.00471,-0.18431 0.1165852,0.0583 0.1322864,0.26458 0.3618561,0.45535 0.5246328,0.69951 0.010779,0.0162 -0.01374,0.0446 0,0.0583 0.01374,0.0137 0.044553,-0.0137 0.058293,0 0.027479,0.0275 -0.01738,0.0818 0,0.11658 0.033952,0.0679 0.082633,0.10698 0.116585,0.17488 0.01738,0.0348 -0.017381,0.0818 0,0.11659 0.1212998,0.2426 -0.00402,-0.0623 0.1165852,0.0583 0.019431,0.0194 0.038862,0.15544 0.058292,0.17488 0.020754,0.0207 0.1728267,0.0562 0.1748777,0.0583 0.00316,0.003 0.1134264,0.17172 0.1165852,0.17488 0.1206093,0.1206 -0.00471,-0.18431 0.116585,0.0583 0.00869,0.0174 -0.01374,0.0446 0,0.0583 0.029146,0.0292 0.1457314,-0.0292 0.1748776,0 0.070898,0.0709 -0.027967,0.11659 0.058293,0.11659 0.15587,0 -0.09668,-0.0967 -0.1165849,-0.11659 -0.1206096,-0.12061 0.1843069,0.005 -0.058293,-0.11658 -0.034759,-0.0174 -0.089106,0.0275 -0.1165849,0 -0.01374,-0.0137 0.01374,-0.0446 0,-0.0583 -0.064103,-0.0641 -0.226604,-0.0452 -0.2914629,-0.17487 -0.080586,-0.16118 -0.3712964,-0.27626 -0.4663403,-0.46634 -0.063095,-0.12619 -0.09337,-0.28579 -0.1748777,-0.40805 -0.2647637,-0.39715 -0.5829255,-0.51964 -0.5829255,-1.04927 0,-0.57531 0.1100577,-0.22664 0.2331705,-0.34975 0.058319,-0.0583 0.089711,-0.32743 0.1165849,-0.40805 0.052714,-0.15814 0.2341668,-0.17588 0.2914629,-0.23317 0.066036,-0.066 0.1088411,-0.34201 0.1748774,-0.40805 0.036976,-0.037 0.1846365,0.0243 0.2331704,0 0.2162884,-0.10814 0.1748774,-0.32467 0.1748774,-0.52463 0,-0.1515 -9.26e-4,-0.17304 0.058293,-0.29146 0.054588,-0.10918 -0.043143,-0.293 0,-0.40805 0.093303,-0.24881 0.5617721,-1.07042 0.6995105,-0.93268 0.064659,0.0647 -0.2197405,0.26329 -0.5246328,0.52463 z"
       id="path32" />
    <path
       style="fill:#c2e1c0;fill-opacity:0.698039;stroke:#3a4148;stroke-width:0.25"
       d="m 41.983221,276.86582 c -0.06321,0.0448 0.05463,0.20017 0.116584,0.75781 0.03894,0.35048 0.07297,0.70036 0.116586,1.04926 0.0042,0.0337 -0.03758,0.42876 0,0.46634 0.02748,0.0275 0.08182,-0.0174 0.116586,0 0.06266,0.0313 0.125338,0.067 0.174876,0.11659 0.01373,0.0137 -0.01373,0.0445 0,0.0583 0.01373,0.0137 0.04455,-0.0137 0.05829,0 0.06801,0.068 -0.0097,0.28175 0.05829,0.34975 0.120608,0.12061 -0.0047,-0.1843 0.116586,0.0583 0.189632,0.37927 0.490519,0.61108 0.93268,0.69952 0.05716,0.0114 0.117716,-0.0114 0.174876,0 0.102608,0.0205 0.18995,0.0912 0.291463,0.11658 0.121449,0.0304 0.282995,0 0.408048,0 0.167571,0 0.556181,-0.0717 0.699511,0 0.171616,0.0858 -0.02743,0.52464 0.05829,0.52464 0.04528,0 -0.04966,-0.76644 0,-0.8161 0.05665,-0.0566 0.159533,0.0267 0.233169,0.0583 0.128865,0.0552 0.791943,0.35684 0.757804,0.40805 -0.111305,0.16696 -0.726776,0.38736 -0.93268,0.52463 -0.04581,0.0305 -0.262522,0.26211 -0.291463,0.23317 -0.04557,-0.0456 0.0507,-0.10141 0.05829,-0.11658 0.175694,-0.35139 0.121473,-0.36555 0.524634,-0.46634 0.0263,-0.007 0.420804,-0.13936 0.349755,-0.17488 -0.174976,-0.0875 -0.503044,0.0533 -0.757803,-0.11659 -0.03886,-0.0194 -0.07772,-0.0389 -0.116586,-0.0583 -0.03886,0 -0.08183,0.0174 -0.116584,0 -0.04916,-0.0246 -0.07086,-0.0861 -0.116586,-0.11658 -0.159707,-0.10648 -0.736494,-0.10734 -0.93268,-0.0583 -0.250031,0.0625 -0.46509,0.29021 -0.641217,0.46633 -0.08733,0.0873 -0.238049,0.18464 -0.291463,0.29147 -0.07179,0.14357 0.169207,-0.0526 -0.05829,0.17488 -0.01373,0.0137 -0.04455,-0.0137 -0.05829,0 -0.02748,0.0275 0.02156,0.0842 0,0.11658 -0.06097,0.0915 -0.167219,0.14524 -0.233169,0.23317 -0.04561,0.0608 -0.07792,0.2528 -0.116586,0.29146 -0.01373,0.0137 -0.04455,-0.0137 -0.05829,0 -0.0059,0.006 -0.159242,0.26801 -0.174876,0.29147 -0.04484,0.0673 -0.130038,0.10761 -0.174879,0.17487 -0.12785,0.19178 -0.142531,0.34336 -0.23317,0.52464 -0.03348,0.067 -0.0011,0.35079 -0.05829,0.40804 -0.02334,0.0233 -0.07408,0.0316 -0.116586,0.11659 -0.01373,0.0274 -0.06172,0.34633 -0.116583,0.29146 -0.06951,-0.0695 -0.109847,-0.42152 -0.05829,-0.52463 0.02458,-0.0492 0.09201,-0.0674 0.116586,-0.11659 0.06094,-0.12187 0.148577,-0.28116 0.233169,-0.40804 0.04573,-0.0686 0.129149,-0.10629 0.174877,-0.17488 0.01077,-0.0162 -0.01373,-0.0446 0,-0.0583 0.04109,-0.0411 0.186499,-0.0815 0.233172,-0.17487 0.02215,-0.0443 0.09518,-0.21176 0.116583,-0.23317 0.07772,-0.0777 0.05594,0.12365 0.116586,-0.0583 0.0123,-0.0369 -0.0094,-0.0789 0,-0.11659 0.01053,-0.0421 0.03886,-0.0777 0.05829,-0.11659 0.01942,-0.0583 0.04624,-0.11462 0.05829,-0.17487 0.05875,-0.29373 0.09884,-0.60573 0.233169,-0.87439 0.01469,-0.0294 0.09727,-0.21386 0.116586,-0.23317 0.01373,-0.0137 0.04455,0.0137 0.05829,0 0.0564,-0.0564 0.226218,-0.24708 0.174879,-0.34976 -0.04115,-0.0823 -0.11475,-0.0865 -0.174879,-0.11658 -0.0852,-0.0426 -0.641091,-0.67017 -0.699508,-0.7578 -0.08839,-0.13258 -0.109011,-0.27632 -0.174879,-0.40805 -0.02458,-0.0492 -0.09201,-0.0674 -0.116586,-0.11659 -0.133737,-0.26747 -0.415579,-1.12633 -0.291463,-1.45731 0.05196,-0.13856 0.116586,-0.27203 0.174879,-0.40805 z"
       id="path33" />
    <path
       style="fill:#c2e1c0;fill-opacity:0.698039;stroke:#3a4148;stroke-width:0.25"
       d="m 11.332151,173.62295 c 0.496923,-0.11168 2.162009,0.15752 2.589633,-0.0563 0.09007,-0.045 0.247704,0.045 0.337778,0 0.02374,-0.0119 0.03256,-0.0444 0.0563,-0.0563 0.03763,-0.0188 0.424618,-0.0258 0.450371,0 0.04691,0.0469 -0.04691,0.23456 0,0.28148 0.01327,0.0133 0.04303,-0.0133 0.0563,0 0.01869,0.0187 0.01869,0.43168 0,0.45037 -0.02935,0.0293 -0.182208,-0.0108 -0.225185,0 -0.568797,0.1422 0.04066,-0.0203 -0.225185,0.11259 -0.03357,0.0168 -0.112593,-0.0375 -0.112593,0 0,0.0351 0.279338,0.16675 0.337778,0.22519 0.003,0.003 0.168889,0.25311 0.168889,0.16889 0,-0.008 -0.192364,0.0497 -0.225185,0.0563 -0.135976,0.0272 -0.319791,0.0691 -0.450371,0.1126 -0.112577,0.0375 -0.254355,0.2106 -0.337779,0.16889 -0.124474,-0.0622 -0.01747,-0.0349 -0.0563,-0.1126 -0.117146,-0.23429 0.0039,0.0602 -0.112593,-0.0563 -0.003,-0.003 -0.109542,-0.16584 -0.112592,-0.16889 -0.02654,-0.0265 -0.08605,0.0265 -0.112593,0 -0.01327,-0.0133 0.01327,-0.043 0,-0.0563 -0.01598,-0.016 -1.471741,0 -1.688891,0 -0.03435,0 -0.203251,0.0219 -0.225186,0 -0.0077,-0.008 -0.04726,-0.60326 -0.0563,-0.67556 -0.01646,-0.13166 -0.185026,-0.36189 -0.0563,-0.39407 0.187433,-0.0469 0.333862,0.19508 0.506667,0.28148 0.08796,0.044 0.279151,0.036 0.394074,0.11259 0.09959,0.0664 0.131539,0.18784 0.16889,0.22519 0.02654,0.0265 0.07699,0.0119 0.112592,0 0.235934,-0.0786 0.538573,-0.35749 0.675557,-0.56296 0.02327,-0.0349 0.02663,-0.0829 0.0563,-0.1126 0.04656,-0.0465 0.329735,-0.25735 0.394075,-0.22518 0.04747,0.0237 0.07506,0.0751 0.112592,0.11259 0.250514,0.25051 0.455825,0.39589 0.78815,0.50667 0.03198,0.0107 0.270021,0.0677 0.225185,0.11259 -0.128387,0.12839 -0.515594,0.0563 -0.675556,0.0563 -0.13237,0 -0.673318,-0.0574 -0.78815,0 -0.04156,0.0208 -0.09233,0.71608 -0.0563,0.78815 0.06957,0.13913 0.0563,-0.0194 0.0563,0.11259"
       id="path1" />
    <path
       style="fill:#c2e1c0;fill-opacity:0.698039;stroke:#3a4148;stroke-width:0.25"
       d="m 17.468455,170.92072 c 0,0.91951 0,1.83902 0,2.75853 0,0.54419 0,1.08839 0,1.63259 0,0.0281 -0.0042,1.34696 0,1.35111 0.01327,0.0133 0.03951,-0.008 0.0563,0 0.0821,0.0411 0.09006,0.0901 0.112593,0.1126 0.04557,0.0456 0.378769,0 0.450371,0 0.06295,0 0.314357,0.13601 0.394075,0.0563 0.03981,-0.0398 0,-0.33154 0,-0.39407 0,-0.42718 0.0025,-1.06462 -0.16889,-1.40741 -0.03753,-0.0751 0.03753,-0.20642 0,-0.28148 -0.01187,-0.0237 -0.0479,-0.0311 -0.0563,-0.0563 -0.06457,-0.19371 0,-0.68289 0,-0.90074 0,-0.50236 -0.04136,-1.03174 0.0563,-1.52 0.0311,-0.15549 0.13238,-0.86117 0.0563,-1.01334 -0.0071,-0.0143 -0.297771,-0.14888 -0.337779,-0.16889 -0.04498,-0.0225 -0.121552,0.0178 -0.168889,0 -0.133814,-0.0502 -0.284285,-0.26038 -0.394074,-0.16889 -0.116226,0.0969 0.03959,0.30001 0.0563,0.45037 0.0096,0.0863 0.0213,0.25256 0,0.33778 -0.03731,0.14924 -0.201038,0.38608 -0.112592,0.56297 0.05495,0.10991 0.190868,0.34742 0.225185,0.45037 0.102913,0.30874 -0.110433,0.84012 -0.225185,1.06963 -0.03753,0.0751 0.03753,0.20642 0,0.28148 -0.09495,0.1899 -0.0563,0.44943 -0.0563,0.67556 0,0.0705 -0.04849,0.40188 0,0.45037 0.01877,0.0188 0.150124,0.0375 0.168889,0.0563 0.01327,0.0133 -0.01327,0.043 0,0.0563 0.03757,0.0376 0.07502,-0.0376 0.112593,0 0.01327,0.0133 -0.0084,0.0395 0,0.0563 0.156984,0.31396 0.168889,0.64579 0.168889,1.01333 0,0.15013 -0.01876,-0.0188 0.0563,0.0563 0.02654,0.0265 -0.02654,0.0861 0,0.11259 0.116734,0.11673 0.202793,-0.2143 0.225186,-0.28148 0.07218,-0.21654 -0.03176,-0.76075 -0.0563,-0.95704 -0.02095,-0.16758 0.0168,-0.33862 0,-0.50667 -0.07,-0.70003 -0.110857,-1.41435 0.0563,-2.08296 0.03048,-0.12191 0.02246,-0.77677 0.0563,-0.84445 0.05578,-0.11156 0.01366,-0.0973 0.0563,-0.22518 0.01944,-0.0583 0.08467,-0.11304 0.112592,-0.16889 0.01679,-0.0336 -0.02654,-0.0861 0,-0.1126 0.02502,-0.025 0.106338,0.0438 0.0563,-0.0563 -0.05619,-0.11239 -0.14685,-0.0171 -0.225186,-0.0563 -0.225549,-0.11277 -0.400855,-0.22005 -0.675556,-0.33778 z"
       id="path2" />
    <path
       style="fill:#c2e1c0;fill-opacity:0.698039;stroke:#3a4148;stroke-width:0.25"
       d="m 21.184015,173.67925 c 0,0.35654 0,0.71308 0,1.06963 0,0.0751 0,0.15012 0,0.22518 0,0.0188 -0.01876,0.0563 0,0.0563 0.01877,0 -0.0084,-0.0395 0,-0.0563 0.02374,-0.0475 0.07506,-0.0751 0.112593,-0.11259 0.107612,-0.10761 0.213186,-0.19842 0.337778,-0.28148 0.08494,-0.0566 0.504935,-0.41963 0.562964,-0.50667 0.02327,-0.0349 0.02662,-0.0829 0.0563,-0.11259 0.02967,-0.0297 0.07768,-0.033 0.112593,-0.0563 0.108769,-0.0725 0.141798,-0.19809 0.225185,-0.28148 0.113141,-0.11314 0.130307,-0.0829 0.225186,-0.22519 0.08622,-0.12933 0.03216,0.0241 0.168889,-0.11259 0.12692,-0.12692 0.229866,-0.32721 0.394075,-0.45037 0.03357,-0.0252 0.08292,-0.0266 0.112592,-0.0563 0.02967,-0.0297 0.03302,-0.0777 0.0563,-0.11259 0.09938,-0.14908 0.26179,-0.2421 0.337778,-0.39407 0.09942,-0.19884 0.424155,-0.41105 0.562964,-0.61926 0.05992,-0.0899 0.156237,-0.0999 0.225185,-0.16889 0.07172,-0.0717 0.498297,-0.62763 0.450371,-0.67556 -0.02966,-0.0297 -0.323507,0 -0.394075,0 -0.14621,0 -0.463014,-0.0521 -0.61926,0 -0.211098,0.0704 -0.02105,0.24624 -0.168889,0.39408 -0.02359,0.0236 -0.13477,0.0392 -0.168889,0.0563 -0.09531,0.0477 -0.87562,0.72535 -0.900742,0.78815 -0.05324,0.1331 0.0013,0.22315 -0.112593,0.39408 -0.120856,0.18128 -0.38232,0.19116 -0.562963,0.28148 -0.148196,0.0741 -0.349152,0.20282 -0.450371,0.33778 -0.133271,0.17769 0.04231,0.0703 -0.168889,0.28148 -0.122336,0.12233 -0.422517,0.16712 -0.394075,0.33778 0.02468,0.14808 0.300247,0 0.450371,0 0.03116,0 0.25734,-0.0322 0.281482,-0.0563 0.01327,-0.0133 -0.01327,-0.043 0,-0.0563 0.116479,-0.11648 -0.0046,0.178 0.112593,-0.0563 0.0084,-0.0168 -0.01327,-0.043 0,-0.0563 0.04832,-0.0483 0.184304,-0.0308 0.225185,-0.11259 0.05826,-0.11653 0.166188,-0.21978 0.225186,-0.33778 0.04733,-0.0947 0.0097,-0.24455 0.0563,-0.33778 0.02792,-0.0558 0.09315,-0.11058 0.112593,-0.16889 0.01187,-0.0356 -0.01187,-0.077 0,-0.11259 0.03881,-0.11643 0.172257,-0.23192 0.225185,-0.33778 0.01706,-0.0341 0.03271,-0.1453 0.0563,-0.16889 0.01327,-0.0133 0.04303,0.0133 0.0563,0 0.02654,-0.0265 -0.02654,-0.0861 0,-0.11259 0.01327,-0.0133 0.04303,0.0133 0.0563,0 0.01327,-0.0133 -0.0084,-0.0395 0,-0.0563 0.04194,-0.0839 0.253893,-0.29583 0.337779,-0.33778 0.07765,-0.0388 0.05035,0.0682 0.112592,-0.0563 0.02861,-0.0572 0.237372,-0.28758 0.337778,-0.33778 0.137375,-0.0687 0.41221,0.0301 0.562964,0 0.187777,-0.0376 0.279741,-0.0853 0.450371,0 0.05035,0.0252 0.118536,-0.0252 0.168889,0 0.04946,0.0247 -0.01055,0.3149 -0.0563,0.33778 -0.346266,0.17313 -0.869683,0.10871 -1.125928,0.45037 -0.09602,0.12803 -0.141666,0.31674 -0.225185,0.45037 -0.153115,0.24498 -0.308791,0.47701 -0.450371,0.73185 -0.08151,0.14672 -0.11466,0.32406 -0.225186,0.45037 -0.175627,0.20072 -0.414369,0.33593 -0.619259,0.50667 -0.08042,0.067 -0.390969,0.36951 -0.562964,0.39408 -0.261908,0.0374 -0.515106,-0.54269 -0.562964,-0.61926 z"
       id="path3" />
    <path
       style="fill:#c2e1c0;fill-opacity:0.698039;stroke:#3a4148;stroke-width:0.25"
       d="m 25.856614,173.17258 c 0.281482,0 0.562963,0 0.844446,0 0.305022,0 0.714333,-0.0748 1.013333,0 0.452406,0.1131 0.640919,0.11259 1.125929,0.11259 0.08153,0 0.266425,0.0357 0.337778,0 0.05818,-0.0291 0.321432,-0.24153 0.394073,-0.16889 0.07636,0.0764 -0.225184,0.54259 -0.225184,0.67556 0,0.0375 -0.03753,0.15012 -0.0563,0.16889 -0.01807,0.0181 -0.688776,0 -0.788151,0 -0.07506,0 -0.150122,0 -0.225184,0 -0.01876,0 -0.0563,-0.0188 -0.0563,0 0,0.0356 0.09521,-0.0563 0.225184,-0.0563 0.202407,0 0.323509,-0.0105 0.506667,-0.0563 0.03533,-0.009 0.468794,-0.0379 0.506669,0 0.003,0.003 0.10954,0.16583 0.112591,0.16888 0.04427,0.0443 0.192759,-0.24905 0.225187,-0.28148 0.01328,-0.0133 0.04303,0.0133 0.05629,0 0.03152,-0.0315 -0.01222,-0.24481 0,-0.28148 0.0084,-0.0252 0.0563,-0.0298 0.0563,-0.0563 0,-0.0375 -0.07506,0 -0.112593,0 -0.150125,0 -0.300247,0 -0.450371,0 -0.03196,0 -0.673383,-0.002 -0.675556,0 -0.01328,0.0133 0.01328,0.043 0,0.0563 -0.03715,0.0371 -0.180506,0.0795 -0.225187,0.16889 -0.02903,0.0581 -0.03312,0.12915 -0.112593,0.16889 -0.109487,0.0547 -0.229555,0.11478 -0.337778,0.16889 -0.04747,0.0237 -0.06512,0.0888 -0.112593,0.11259 -0.03412,0.0171 -0.145299,0.0327 -0.168889,0.0563 -0.01328,0.0133 0.01328,0.043 0,0.0563 -0.02809,0.0281 -0.2374,0 -0.281482,0 -0.260183,0 -0.595924,0.0621 -0.844444,0 -0.132394,-0.0331 -0.194169,-0.0563 -0.337779,-0.0563 -0.157173,0 -0.53998,0.0678 -0.675556,0 -0.08992,-0.045 -0.225186,-0.14968 -0.225186,-0.22519 0,-0.20205 0.324343,-0.75464 0.506668,-0.73185 0.150123,0.0188 0.0563,0.29908 0.0563,0.45037 0,0.10204 -0.06974,0.1046 -0.112593,0.16889 -0.04655,0.0698 -0.05325,0.16584 -0.112592,0.22518 -0.01327,0.0133 -0.04303,-0.0133 -0.0563,0 -0.01327,0.0133 0.01327,0.043 0,0.0563 -0.02654,0.0265 -0.07506,0 -0.112593,0 -0.105562,0 -0.448527,0.0581 -0.506667,0 -0.06817,-0.0682 -0.0563,-0.19577 -0.0563,-0.28148 0,-0.0652 -0.0295,-0.22248 0,-0.28148 0.01717,-0.0343 0.0754,-0.15029 0.112593,-0.16889 0.03357,-0.0168 0.07699,0.0119 0.112592,0 0.200878,-0.067 0.451823,-0.24347 0.675557,-0.16889 0.178024,0.0593 0.282527,0.25386 0.450371,0.33778 0.207832,0.10391 0.709093,0.1193 0.957037,0.16889 0.0736,0.0147 0.152366,-0.0182 0.225187,0 0.04071,0.0102 0.07278,0.043 0.112593,0.0563 0.07988,0.0266 0.206804,-0.0373 0.28148,0 0.05935,0.0297 0.270399,0.1126 0.33778,0.1126"
       id="path4" />
    <path
       style="fill:#c2e1c0;fill-opacity:0.698039;stroke:#3a4148;stroke-width:0.25"
       d="m 30.754397,171.2585 c 0,1.48247 0,2.96494 0,4.44742 0,0.30024 0,0.60049 0,0.90074 0,0.0751 0,0.15012 0,0.22518 0,0.0188 -0.01876,0.0563 0,0.0563 0.01789,0 -0.04025,-0.12061 0.0563,-0.16889 0.09895,-0.0495 0.357505,0.0464 0.562962,-0.0563 0.101068,-0.0505 0.565137,0.0541 0.61926,0 0.0071,-0.007 -0.05629,-0.60033 -0.05629,-0.78815 0,-0.38881 0.0075,-0.76561 -0.112594,-1.12592 -0.05047,-0.15141 -0.0053,-0.35386 -0.05629,-0.50667 -0.0084,-0.0252 -0.04791,-0.0311 -0.0563,-0.0563 -0.02373,-0.0712 0.0182,-0.15236 0,-0.22518 -0.06086,-0.24346 -0.108006,-0.48833 -0.168889,-0.73186 -0.05741,-0.22965 0.04648,-0.49944 0,-0.73185 -0.0082,-0.0411 -0.04807,-0.0714 -0.0563,-0.11259 -0.0097,-0.0487 -0.04866,-0.5143 0,-0.56296 0.01328,-0.0133 0.04303,0.0133 0.0563,0 0.0236,-0.0236 0.03924,-0.13477 0.0563,-0.16889 0.02373,-0.0475 0.08885,-0.0651 0.112591,-0.1126 0.05332,-0.10664 0.105667,-0.17235 0,-0.22518 -0.184211,-0.0921 -0.368022,-0.0151 -0.450371,-0.0563 -0.02373,-0.0119 -0.03256,-0.0444 -0.0563,-0.0563 -0.107838,-0.0539 -0.611528,0.37861 -0.450371,0.0563 0.04588,-0.0918 0.773367,-0.26072 0.957038,-0.16889 0.131059,0.0655 0.236918,0.54187 0.281482,0.67556 0.02641,0.0792 -0.03721,0.20706 0,0.28148 0.133829,0.26766 0.09355,0.84527 0,1.12593 -0.015,0.045 0.03176,0.19343 0,0.22518 -0.01328,0.0133 -0.04303,-0.0133 -0.05629,0 -0.01328,0.0133 0.0084,0.0395 0,0.0563 -0.02373,0.0475 -0.08886,0.0651 -0.112594,0.11259 -0.02669,0.0534 -0.07995,0.35244 -0.112593,0.45037 -0.03137,0.0941 0.02093,0.10614 0,0.16889 -0.0084,0.0252 -0.04443,0.0326 -0.0563,0.0563 -0.0618,0.1236 0.006,0.32588 -0.0563,0.45037 -0.03279,0.0656 -0.0798,0.10331 -0.112593,0.16889 -0.01677,0.0336 0.02654,0.0861 0,0.11259 -0.01328,0.0133 -0.04303,-0.0133 -0.0563,0 -0.01923,0.0192 -0.33778,0.65053 -0.33778,0.67556 0,0.2063 -0.06435,0.31369 -0.112591,0.50667 -0.0176,0.0703 0.02585,0.59342 0,0.61926 -0.01328,0.0133 -0.03753,0 -0.0563,0"
       id="path5" />
    <path
       style="fill:#c2e1c0;fill-opacity:0.698039;stroke:#3a4148;stroke-width:0.25"
       d="m 37.05959,174.29851 c 0.07157,-0.44373 0.205894,-0.86619 0.33778,-1.29482 0.0801,-0.26034 0.106421,-0.43803 0.225185,-0.67556 0.06424,-0.12847 0.126759,-0.15509 0.168888,-0.28148 0.03333,-0.1 -0.02064,-0.23454 0,-0.33778 0.05159,-0.25796 0.130617,-0.42485 0.337778,-0.56296 0.06211,-0.0414 0.102383,-0.13564 0.168889,-0.16889 0.01677,-0.008 0.04303,0.0133 0.0563,0 0.01328,-0.0133 -0.01328,-0.043 0,-0.0563 0.04914,-0.0491 0.380741,0 0.450371,0 0.04602,0 0.354285,-0.0398 0.394073,0 0.07173,0.0717 0.266409,0.66207 0.394076,0.84445 0.176128,0.25161 0.381283,0.48961 0.562964,0.73185 0.111274,0.14837 0.133184,0.35333 0.225185,0.50667 0.02731,0.0455 0.08075,0.0701 0.112593,0.11259 0.113927,0.1519 -0.0011,0.0923 0.112593,0.28148 0.06182,0.10304 0.158533,0.18151 0.225185,0.28149 0.08165,0.12247 0.217551,0.26621 0.281482,0.39407 0.04609,0.0922 0,0.54615 0,0.67556 0,0.0375 0.02654,0.0861 0,0.11259 -0.02389,0.0239 -0.684138,0 -0.788149,0 -0.03753,0 -0.08606,0.0265 -0.112593,0 -0.01328,-0.0133 0,-0.0375 0,-0.0563 0,-0.0188 -0.01561,-0.0459 0,-0.0563 0.249086,-0.16606 0.697553,0.0466 0.844447,-0.39408 1.53e-4,-4.7e-4 0.08794,-0.27448 0.05629,-0.33778 -0.08019,-0.16037 -0.383924,-0.25103 -0.394076,-0.28148 -0.06128,-0.18386 -0.0051,-0.25653 -0.225184,-0.39407 -0.144671,-0.0904 -0.483156,-0.13826 -0.562965,-0.33778 -0.044,-0.11 0.01683,-0.33251 0,-0.45037 -0.03056,-0.21391 -0.118882,-0.43323 -0.225184,-0.61926 -0.03357,-0.0587 -0.0912,-0.1047 -0.112593,-0.16889 -0.01781,-0.0534 0.0093,-0.11336 0,-0.16889 -0.01707,-0.10237 -0.126251,-0.4572 -0.225187,-0.50667 -0.05035,-0.0252 -0.114274,0.0137 -0.168889,0 -0.122031,-0.0305 -0.257297,-0.10189 -0.394073,-0.0563 -0.05365,0.0179 -0.548235,0.48212 -0.562964,0.50666 -0.110718,0.18453 -0.03429,0.42122 -0.0563,0.61926 -0.04414,0.39724 -0.03836,0.0678 -0.168889,0.39408 -0.02788,0.0697 0.0182,0.15236 0,0.22518 -0.08965,0.35859 -0.482499,0.20898 -0.562964,0.45037 -0.07006,0.2102 -0.06427,0.46633 -0.168889,0.67556 -0.06766,0.13532 -0.281374,0.2536 -0.225187,0.39408 0.143335,0.35833 0.563261,0.14059 0.731853,0.0563 0.07506,-0.0375 0.20642,0.0375 0.281483,0 0.07582,-0.0379 0.13622,-0.15984 0.168889,-0.22518 0.06223,-0.12447 0.01495,-0.27001 0.05629,-0.39408 0.0084,-0.0252 0.04443,-0.0326 0.0563,-0.0563 0.02252,-0.045 -0.02252,-0.12386 0,-0.16889 0.04364,-0.0873 0.08618,-0.17584 0.112593,-0.28149 0.02119,-0.0847 -0.02773,-0.19828 0,-0.28148 0.07393,-0.2218 0.04111,-0.4626 0.168889,-0.67555 0.0357,-0.0595 0.276649,-0.39891 0.394073,-0.28149 0.02625,0.0263 0.228251,0.79428 0.281483,0.90075 0.02373,0.0475 0.08529,0.0671 0.112593,0.11259 0.08237,0.13728 0.07658,0.30634 0.112593,0.45037 0.02902,0.11606 0.124352,0.22644 0.168889,0.33778 0.05349,0.13374 0.05657,0.22573 0.112591,0.33778 0.01678,0.0336 -0.01678,0.079 0,0.11259 0.01913,0.0383 0.360439,0.24785 0.450371,0.33778"
       id="path6" />
  </g>
  <g
     inkscape:groupmode="layer"
     id="layer2"
     inkscape:label="components"
     style="display:none"
     transform="translate(-0.12917322)">
    <circle
       style="display:inline;vector-effect:none;fill:#0000ff;fill-opacity:1;fill-rule:evenodd;stroke:none;stroke-width:1;stroke-linecap:butt;stroke-linejoin:miter;stroke-miterlimit:4;stroke-dasharray:none;stroke-dashoffset:0;stroke-opacity:1;paint-order:normal"
       id="circle11"
       cx="38.229172"
       cy="118"
       r="4"
       inkscape:label="out_false2" />
    <circle
       style="display:inline;vector-effect:none;fill:#0000ff;fill-opacity:1;fill-rule:evenodd;stroke:none;stroke-width:1;stroke-linecap:butt;stroke-linejoin:miter;stroke-miterlimit:4;stroke-dasharray:none;stroke-dashoffset:0;stroke-opacity:1;paint-order:normal"
       id="circle3"
       cx="12.829173"
       cy="118"
       r="4"
       inkscape:label="out_false1" />
    <circle
       style="display:inline;vector-effect:none;fill:#0000ff;fill-opacity:1;fill-rule:evenodd;stroke:none;stroke-width:1;stroke-linecap:butt;stroke-linejoin:miter;stroke-miterlimit:4;stroke-dasharray:none;stroke-dashoffset:0;stroke-opacity:1;paint-order:normal"
       id="circle10"
       cx="38.229172"
       cy="106"
       r="4"
       inkscape:label="out_true2" />
    <circle
       style="display:inline;vector-effect:none;fill:#0000ff;fill-opacity:1;fill-rule:evenodd;stroke:none;stroke-width:1;stroke-linecap:butt;stroke-linejoin:miter;stroke-miterlimit:4;stroke-dasharray:none;stroke-dashoffset:0;stroke-opacity:1;paint-order:normal"
       id="circle4958-7"
       cx="12.829173"
       cy="106"
       r="4"
       inkscape:label="out_true1" />
    <circle
       style="display:inline;vector-effect:none;fill:#ff0000;fill-opacity:1;fill-rule:evenodd;stroke:none;stroke-width:1;stroke-linecap:butt;stroke-linejoin:miter;stroke-miterlimit:4;stroke-dasharray:none;stroke-dashoffset:0;stroke-opacity:1;paint-order:normal"
       id="circle8"
       cx="38.229172"
       cy="91"
       r="4"
       inkscape:label="cv_prob2" />
    <circle
       style="display:inline;vector-effect:none;fill:#ff0000;fill-opacity:1;fill-rule:evenodd;stroke:none;stroke-width:1;stroke-linecap:butt;stroke-linejoin:miter;stroke-miterlimit:4;stroke-dasharray:none;stroke-dashoffset:0;stroke-opacity:1;paint-order:normal"
       id="circle2"
       cx="12.829173"
       cy="91"
       r="4"
       inkscape:label="cv_prob1" />
    <circle
       style="display:inline;vector-effect:none;fill:#ff0000;fill-opacity:1;fill-rule:evenodd;stroke:none;stroke-width:1;stroke-linecap:butt;stroke-linejoin:miter;stroke-miterlimit:4;stroke-dasharray:none;stroke-dashoffset:0;stroke-opacity:1;paint-order:normal"
       id="circle9"
       cx="38.229172"
       cy="79"
       r="4"
       inkscape:label="cv_lengh2" />
    <circle
       style="display:inline;vector-effect:none;fill:#ff0000;fill-opacity:1;fill-rule:evenodd;stroke:none;stroke-width:1;stroke-linecap:butt;stroke-linejoin:miter;stroke-miterlimit:4;stroke-dasharray:none;stroke-dashoffset:0;stroke-opacity:1;paint-order:normal"
       id="circle1"
       cx="12.829173"
       cy="79"
       r="4"
       inkscape:label="cv_lenght1" />
    <circle
       style="display:inline;vector-effect:none;fill:#ff0000;fill-opacity:1;fill-rule:evenodd;stroke:none;stroke-width:1;stroke-linecap:butt;stroke-linejoin:miter;stroke-miterlimit:4;stroke-dasharray:none;stroke-dashoffset:0;stroke-opacity:1;paint-order:normal"
       id="circle13-7-0-1"
       cx="16.629173"
       cy="60"
       r="4"
       inkscape:label="pot_lengh1" />
    <circle
       style="display:inline;vector-effect:none;fill:#ff0000;fill-opacity:1;fill-rule:evenodd;stroke:none;stroke-width:1;stroke-linecap:butt;stroke-linejoin:miter;stroke-miterlimit:4;stroke-dasharray:none;stroke-dashoffset:0;stroke-opacity:1;paint-order:normal"
       id="circle13-7-0-1-1"
       cx="34.600174"
       cy="60"
       r="4"
       inkscape:label="pot_lengh2" />
    <circle
       style="display:inline;vector-effect:none;fill:#ff0000;fill-opacity:1;fill-rule:evenodd;stroke:none;stroke-width:1;stroke-linecap:butt;stroke-linejoin:miter;stroke-miterlimit:4;stroke-dasharray:none;stroke-dashoffset:0;stroke-opacity:1;paint-order:normal"
       id="circle13-7"
       cx="16.629173"
       cy="38"
       r="4"
       inkscape:label="pot_prob1" />
    <circle
       style="display:inline;vector-effect:none;fill:#ff0000;fill-opacity:1;fill-rule:evenodd;stroke:none;stroke-width:1;stroke-linecap:butt;stroke-linejoin:miter;stroke-miterlimit:4;stroke-dasharray:none;stroke-dashoffset:0;stroke-opacity:1;paint-order:normal"
       id="circle13-7-0"
       cx="34.600006"
       cy="38"
       r="4"
       inkscape:label="pot_prob2" />
    <circle
       style="display:inline;vector-effect:none;fill:#ff0000;fill-opacity:1;fill-rule:evenodd;stroke:none;stroke-width:1;stroke-linecap:butt;stroke-linejoin:miter;stroke-miterlimit:4;stroke-dasharray:none;stroke-dashoffset:0;stroke-opacity:1;paint-order:normal"
       id="circle12"
       cx="38.229172"
       cy="22"
       r="4"
       inkscape:label="in_trig2" />
    <circle
       style="display:inline;vector-effect:none;fill:#ff0000;fill-opacity:1;fill-rule:evenodd;stroke:none;stroke-width:1;stroke-linecap:butt;stroke-linejoin:miter;stroke-miterlimit:4;stroke-dasharray:none;stroke-dashoffset:0;stroke-opacity:1;paint-order:normal"
       id="circle13"
       cx="12.829173"
       cy="22"
       r="4"
       inkscape:label="in_trig1" />
  </g>
  <g
     inkscape:groupmode="layer"
     id="layer3"
     inkscape:label="Scritte">
    <path
       style="fill:#c2e1c0;fill-opacity:0.698039;stroke:#3a4148;stroke-width:0.25"
       d="m 12.015448,12.578672 c 0,0.938707 0,1.877413 0,2.81612 0,0.187742 0,0.375483 0,0.563225 0,0.06258 0.06258,0.187741 0,0.187741 -0.0287,0 -0.469354,-0.390133 -0.469354,-0.187741 0,0.03129 0.06258,0 0.09387,0 0.219032,0 0.438063,0 0.657095,0 0.09387,0 0.281612,0.09387 0.281612,0 0,-0.03129 -0.06258,0 -0.09387,0 -0.125161,0 -0.250322,0 -0.375483,0 -0.210693,0 -1.157255,-0.06306 -1.220319,0 -0.04068,0.04068 0.503099,1.347934 0.563225,1.40806 0.232009,0.23201 0.331014,-0.410062 0.375482,-0.469354 0.142176,-0.189568 0.30895,-0.496691 0.469354,-0.657095 0.04947,-0.04947 0.138267,-0.0444 0.187741,-0.09387 0.172915,-0.172915 0.198264,-0.386005 0.375483,-0.563224 0.03129,-0.03129 0.05429,-0.07408 0.09387,-0.09387 0.02799,-0.01399 0.09387,0.03129 0.09387,0 0,-0.07204 -1.40806,0.07626 -1.40806,0.187741 0,0.06258 0.09387,-0.03129 0.09387,-0.09387 0,-0.281612 0,-0.563224 0,-0.844836 0,-0.453898 -0.117858,-1.069788 0,-1.501931 0.0627,-0.229903 0.187741,-0.438064 0.281612,-0.657095 z"
       id="path7" />
    <path
       style="fill:#c2e1c0;fill-opacity:0.698039;stroke:#3a4148;stroke-width:0.25"
       d="m 38.111498,12.860284 c 0,0.907416 0,1.814833 0,2.72225 0,0.106517 0.05683,0.506388 0,0.563224 -0.03077,0.03077 -1.220319,-0.02589 -1.220319,0 0,0.06258 0.125161,0 0.187741,0 0.270639,0 0.579572,-0.0379 0.844838,0 0.795621,0.11366 -0.104878,0.09387 0.469352,0.09387 0.09387,0 0.187741,0 0.281612,0 0.03129,0 0.09387,0.03129 0.09387,0 0,-0.09387 -0.189019,0.01543 -0.281612,0 -0.121396,-0.02023 -1.127948,-0.186242 -1.220319,-0.09387 -0.04425,0.04425 -0.04425,0.14349 0,0.187741 0.05218,0.05219 0.204615,0.0915 0.281611,0.187742 0.09774,0.122167 0.194829,0.245307 0.281612,0.375482 0.03881,0.05822 0.03129,0.156452 0.09387,0.187742 0.02384,0.01192 0.341889,-0.606706 0.375481,-0.657095 0.08381,-0.125721 0.563224,-0.249126 0.563224,-0.281612 0,-0.105743 -0.628465,0.15113 -0.750965,-0.09387 -0.07215,-0.144301 0.0287,-0.513606 0,-0.657095 -0.04932,-0.246589 -0.232293,-0.504376 -0.281612,-0.750965 -0.05666,-0.28331 -0.05613,-0.487739 -0.187743,-0.750966"
       id="path8" />
    <path
       style="fill:#c2e1c0;fill-opacity:0.698039;stroke:#3a4148;stroke-width:0.25"
       d="m 13.235767,26.283792 c -0.02221,0.916068 0.0107,1.83704 0.187741,2.722251 0.064,0.319995 0.438972,0.87794 0.563224,1.126448 0.177777,0.355552 0.302129,0.698127 0.469353,1.032576 0.04198,0.08396 -0.02968,0.192558 0,0.281612 0.02736,0.08209 0.317378,0.339717 0.187742,0.469355 -0.0331,0.0331 -0.891148,-0.04631 -0.750966,0.09387 0.07863,0.07863 0.627051,0 0.750966,0 0.09387,0 0.375483,0 0.281612,0 -0.204241,0 -0.842563,-0.09614 -0.938707,0 -0.254698,0.254699 0.564634,0.658506 0.657095,0.750967 0.02212,0.02212 -0.02212,0.07174 0,0.09387 0.02212,0.02212 0.07174,-0.02212 0.09387,0 0.03129,0.03129 0.06258,0.250319 0.09387,0.281612 0.02212,0.02212 0.07174,-0.02212 0.09387,0 0.02212,0.02212 -0.03129,0.09387 0,0.09387 0.03129,0 -0.01399,-0.06588 0,-0.09387 0.213663,-0.213665 0.02481,0.01945 0.09387,-0.187743 0.03778,-0.113342 0.162692,-0.316021 0.281612,-0.375481 0.02799,-0.014 0.07174,0.02212 0.09387,0 0.0174,-0.01741 0.212242,-0.632595 0.187742,-0.657095 -0.14953,-0.14953 -0.743319,0.09769 -0.938707,0 -0.07692,-0.03846 -0.189284,-0.987957 -0.281612,-1.126448 -0.04909,-0.07364 -0.142207,-0.111853 -0.187741,-0.187743 -0.0867,-0.144489 -0.112385,-0.31864 -0.187742,-0.469352 -0.234096,-0.468194 -0.537242,-0.928648 -0.657095,-1.408063 -0.04932,-0.197276 -0.217368,-0.276622 -0.281612,-0.469352 -0.142218,-0.426654 0.0814,-1.599078 0.187742,-1.971284 z"
       id="path9" />
    <path
       style="fill:#c2e1c0;fill-opacity:0.698039;stroke:#3a4148;stroke-width:0.25"
       d="m 38.111498,26.753145 c -0.03962,0.590857 0.0536,1.193964 0,1.783543 -0.0365,0.401468 -0.321614,0.850974 -0.469355,1.220319 -0.08581,0.214522 -0.117898,0.447567 -0.18774,0.657095 -0.08211,0.24632 -0.269658,0.351576 -0.375483,0.563224 -0.09206,0.184124 -0.296572,0.852316 -0.469353,0.938708 -0.156345,0.07817 -0.04307,-0.151575 -0.18774,-0.187743 -0.01606,-0.004 -1.126371,-8e-5 -1.12645,0 -0.03359,0.03359 0.310271,0.302373 0.375483,0.563223 0.02278,0.09107 -0.02968,0.192559 0,0.281615 0.0099,0.02968 0.07174,-0.02212 0.09387,0 0.04425,0.04425 -0.02799,0.131768 0,0.18774 0.01979,0.03958 0.07408,0.05429 0.09387,0.09387 0.06049,0.120973 0.04038,0.395674 0.187743,0.469352 0.111117,0.05556 0.339154,-0.614712 0.375484,-0.657095 0.01291,-0.01508 0.819174,-0.588883 0.750964,-0.657096 -0.02212,-0.02212 -0.06588,0.014 -0.09387,0 -0.07916,-0.03958 -0.11185,-0.142205 -0.187741,-0.18774 -0.431866,-0.25912 -0.654346,-0.204227 -0.563224,-0.750964 0.102177,-0.613058 0.382506,-0.997101 0.844836,-1.408062 0.212947,-0.189286 0.492887,-0.31691 0.657095,-0.563224 0.182891,-0.274336 0.369293,-0.775724 0.281612,-1.126448 -0.024,-0.09599 -0.09387,-0.182663 -0.09387,-0.281612 0,-0.314462 0.06258,-0.625805 0.09387,-0.938707 z"
       id="path10" />
    <path
       style="fill:#c2e1c0;fill-opacity:0.698039;stroke:#3a4148;stroke-width:0.25"
       d="m 14.405618,39.055854 c -0.127002,0.06346 -0.444506,0.06346 -0.381006,0.190371 0.0635,0.126909 0.459769,-0.308433 0.381006,-0.190371 -0.07632,0.114397 -0.885186,0.722096 -1.047766,1.047028 -0.09042,0.180717 -0.261476,0.558973 -0.476257,0.66629 -0.0284,0.0142 -0.0728,-0.02243 -0.09525,0 -0.0502,0.05016 -0.04505,0.1402 -0.09525,0.190367 -0.02244,0.02243 -0.07281,-0.02243 -0.09525,0 -0.0502,0.05017 -0.04505,0.1402 -0.09525,0.190368 -0.02246,0.02243 -0.07281,-0.02243 -0.09525,0 -0.02246,0.02243 0.02245,0.07275 0,0.09518 -0.02246,0.02243 -0.0728,-0.02243 -0.09525,0 -0.0449,0.04487 0.0284,0.133612 0,0.190368 -0.06946,0.138819 -0.152377,0.15227 -0.190503,0.19037 -0.0449,0.04487 0.0449,0.145497 0,0.190367 -0.02245,0.02243 -0.0728,-0.02243 -0.09525,0 -0.08491,0.08485 -0.04467,0.27965 -0.09525,0.380738 -0.142798,0.285393 -0.53968,0.317124 -0.66676,0.571104 -0.06827,0.13644 -0.08546,0.335964 -0.190503,0.475921 -0.184825,0.246259 -0.433307,0.485266 -0.571508,0.761475 -0.07688,0.153631 -0.227981,0.397905 -0.285755,0.571104 -0.02008,0.0602 0.0449,0.145497 0,0.190368 -0.02245,0.02243 -0.0728,-0.02243 -0.09525,0 -0.04762,0.0476 0.04763,0.23796 0,0.285552 -0.02245,0.02243 -0.0728,-0.02243 -0.09525,0 -0.01868,0.01867 0,0.956041 0,1.142212 0,0.563521 0.05591,1.080156 0.190502,1.61813 0.09105,0.363953 -0.06973,0.717301 0.09525,1.047027 0.1045,0.208849 -0.157368,0.794584 0,0.951842 0.02245,0.02243 0.07281,-0.02243 0.09525,0 0.04584,0.04581 0.03355,0.69442 0,0.761472 -0.02008,0.04013 -0.07517,0.05505 -0.09525,0.09518 -0.101601,0.20306 0.101602,0.558412 0,0.761472 -0.02008,0.04013 -0.07517,0.05505 -0.09525,0.09518 -0.08834,0.17656 0,0.649863 0,0.856658 0,0.470058 0.08672,0.91774 0.190503,1.33258 0.067,0.267811 0.293484,0.499094 0.381006,0.761472 0.13426,0.402495 0.246746,0.739715 0.381006,1.14221 0.09709,0.291071 0.175938,0.175815 0.285754,0.285553 0.02245,0.02243 -0.02245,0.07275 0,0.09518 0.02245,0.02243 0.0728,-0.02243 0.09525,0 0.02246,0.02243 -0.02244,0.07274 0,0.09518 0.02246,0.02243 0.09525,-0.03173 0.09525,0 0,0.07646 -0.24984,0.213772 -0.285754,0.285552 -0.02943,0.0588 -0.05995,0.345455 -0.09525,0.380737 -0.02245,0.02243 -0.07279,-0.02243 -0.09525,0 -0.02246,0.02243 -0.03175,0.09518 0,0.09518 0.02665,0 0.463091,-0.326566 0.571509,-0.380737 0.09569,-0.04781 0.990866,0.457388 0.762011,0 C 12.431533,56.336495 12.3101,56.2755 12.3101,56.093799 c 0,-0.06397 0.02811,-0.22938 0,-0.285553 -0.0124,-0.02479 -0.12481,-0.160832 -0.190503,-0.09518 -0.02245,0.02243 0.02245,0.07274 0,0.09518 -0.09588,0.09581 -0.642078,0.165701 -0.762011,0.285553 -0.02245,0.02243 0.02245,0.07274 0,0.09518 -0.02245,0.02243 -0.0728,-0.02243 -0.09525,0 -0.07937,0.07933 -0.01587,0.301419 -0.09525,0.380737 -0.02245,0.02243 -0.09525,-0.03173 -0.09525,0 0,0.03184 0.39404,-0.08216 0.571509,0.09518 0.23288,0.232713 0.490548,0.435467 0.762012,0.571104 0.05679,0.02838 0.133705,-0.02838 0.190503,0 0.0635,0.03173 0.02425,0.190368 0.09525,0.190368 0.07248,0 -0.02726,-0.244846 -0.09525,-0.380735 -0.0508,-0.10153 0.0508,-0.279208 0,-0.380737 -0.02008,-0.04013 -0.07517,-0.05505 -0.09525,-0.09518 -0.03109,-0.06214 -0.04901,-1.047024 -0.09525,-1.047024 -0.0581,0 -1.589048,1.427761 -1.619275,1.427761 -0.0898,0 0.150341,-0.110101 0.190502,-0.190367 0.07795,-0.155793 0.09037,-0.250573 0.285755,-0.380737 0.02642,-0.0176 0.07279,0.02243 0.09525,0 0.02244,-0.02243 -0.02245,-0.07275 0,-0.09518 0.0759,-0.07585 0.144718,0.310269 0.285754,0.380738 0.123589,0.06175 0.252326,0.126073 0.381006,0.190367 0.07931,0.03963 0.320586,-0.06037 0.381006,0 0.02245,0.02243 0,0.06345 0,0.09518 -0.557826,-0.718938 -1.369227,-1.326574 -1.714535,-2.189231 -0.139537,-0.348596 -0.228297,-0.741825 -0.381005,-1.047026 -0.133224,-0.266259 0.09525,-1.569427 0.09525,-1.903684 0,-0.103842 0.08451,-0.772212 0,-0.856657 -0.02246,-0.02244 -0.0728,0.02244 -0.09525,0 -0.04541,-0.04538 -0.01387,-0.610861 0,-0.66629 0.08817,-0.352416 0.226791,-0.738813 0.381005,-1.047027 0.09596,-0.191793 -0.04166,-0.553313 0,-0.761473 0.04366,-0.218137 0.15682,-0.420188 0.09525,-0.666289 -0.08492,-0.339436 -0.325947,-0.556249 -0.476257,-0.856658 -0.0898,-0.17948 -0.1007,-0.391624 -0.190504,-0.571105 -0.02524,-0.145615 -0.2255124,-0.165153 -0.2857544,-0.285552 -0.093618,-0.187106 -0.1333221,-0.437729 -0.190503,-0.66629 -0.095413,-0.381368 -0.095444,-0.762245 -0.1905035,-1.14221 -0.015403,-0.06156 0,-0.253824 0,-0.190369 0,0.418336 0.3832675,0 0.6667609,0 0.09525,0 0.20056,0.04257 0.285755,0 0.08032,-0.04013 0.11018,-0.150235 0.190503,-0.190368 0.05679,-0.02838 0.131544,0.02357 0.190503,0 0.21258,-0.08497 0.409613,-0.218954 0.571508,-0.380737 0.231347,-0.231183 -0.02832,-0.139771 0.190504,-0.285552 0.387452,-0.258119 1.072579,-0.455126 1.238268,-0.951842 0.160948,-0.482503 0.251184,-3.270881 0.857264,-3.331447 0.254709,-0.02545 0.508007,0.06346 0.762011,0.09518 z"
       id="path11" />
    <path
       style="fill:#c2e1c0;fill-opacity:0.698039;stroke:#3a4148;stroke-width:0.25"
       d="m 37.446092,38.679941 c -0.214355,0.519185 0.419149,0.461237 0.506338,0.752967 0.0178,0.05953 -0.0178,0.128716 0,0.188243 0.0021,0.0073 0.48178,0.913818 0.506339,0.94121 0.0046,0.0051 0.248596,0.183143 0.253168,0.188246 0.01556,0.01734 0.06884,0.265016 0.08439,0.282362 0.0422,0.04704 0.126583,0.04704 0.16878,0.09412 0.0339,0.0378 -0.01591,0.229132 0,0.282362 0.05625,0.188244 0.0987,0.382348 0.168779,0.56473 0.0799,0.207943 0.233192,0.370728 0.337559,0.564726 0.04577,0.08507 0.02148,0.212207 0.08439,0.282363 0.01988,0.02217 0.07181,-0.02806 0.08439,0 0.02515,0.05612 -0.0178,0.128713 0,0.188241 0.05302,0.177405 0.264789,0.308291 0.337557,0.470606 0.09049,0.201854 0.103991,0.536188 0.168779,0.752968 0.04814,0.161063 0.168782,0.219168 0.168782,0.376485 0,0.136616 0.005,1.59452 0,1.600058 -0.01989,0.02218 -0.06451,-0.02217 -0.08439,0 -0.07956,0.08874 -0.0273,0.254736 0,0.376485 0.05706,0.25459 0.151982,0.433137 0.253167,0.658847 0.005,0.01098 0.05178,2.911352 0,3.200116 -0.01234,0.0688 -0.0645,0.121688 -0.08439,0.188244 -0.0178,0.05953 0.03978,0.143872 0,0.188241 -0.04221,0.04705 -0.126584,0.04705 -0.168778,0.09412 -0.06933,0.07733 -0.292685,0.702919 -0.33756,0.752967 -0.01988,0.02218 -0.06451,-0.02218 -0.08439,0 -0.039,0.0435 0.02547,0.225537 0,0.282363 -0.0178,0.03968 -0.0666,0.05443 -0.08439,0.09412 -0.05328,0.118829 0.081,0.474371 0,0.564725 -0.01988,0.02217 -0.0645,-0.02217 -0.08439,0 -0.01239,0.01382 0,1.189563 0,1.317695 0,0.233425 -0.304357,0.462119 -0.421947,0.658847 -0.03632,0.06074 -0.132232,0.335723 -0.168782,0.376485 -0.174602,0.194742 0.0068,-0.297587 -0.168779,0.09413 -0.02556,0.05704 -0.04903,0.242921 -0.08439,0.282363 -0.07613,0.08492 -0.109682,-0.155288 -0.168778,-0.188244 -0.137632,-0.07676 -0.421951,-0.124564 -0.421951,-0.09412 0,0.03137 0.05924,-0.01405 0.08439,0 0.129252,0.07207 0.066,0.167724 0.168782,0.282364 0.09012,0.100508 0.237939,0.171255 0.337556,0.282363 0.05625,0.06275 0.248342,0.18824 0.168781,0.18824 -0.0629,0 -0.112519,-0.06275 -0.168781,-0.09412 -0.106645,-0.05948 -0.948951,-0.704948 -0.759505,-0.282366 0.0178,0.03968 0.07475,0.05107 0.08439,0.09413 0.02047,0.0913 -0.01655,0.190068 0,0.282363 0.0083,0.04638 0.232436,0.75297 0.253169,0.75297 0.02813,0 -0.01988,-0.07195 0,-0.09412 0.337559,-0.376485 -0.140648,0.407856 0.08439,-0.09412 0.04544,-0.101383 0.331655,-0.232012 0.421946,-0.282363 0.06908,-0.03852 0.184088,-0.149717 0.25317,-0.188241 0.05031,-0.02806 0.128998,0.04437 0.168778,0 0.02813,-0.03137 -0.05625,-0.06275 -0.08439,-0.09413 -0.01987,-0.02217 0.02516,-0.08009 0,-0.09412 -0.05033,-0.02806 -0.115409,0.01984 -0.16878,0 -0.134138,-0.04987 -0.210068,-0.305386 -0.337559,-0.376485 -0.02515,-0.01404 -0.06451,0.02218 -0.08439,0 -0.04265,-0.04757 0.157139,-0.359174 0.168778,-0.376484 0.122689,-0.182451 0.486154,-0.553473 0.675118,-0.658849 0.05031,-0.02805 0.128994,0.04436 0.168777,0 0.01989,-0.02218 -0.01988,-0.07194 0,-0.09413 0.01989,-0.02217 0.0645,0.02218 0.08439,0 0.01988,-0.02217 -0.01258,-0.06606 0,-0.09412 0.175606,-0.391709 -0.006,0.100621 0.16878,-0.09412 0.01988,-0.02218 -0.01259,-0.06606 0,-0.09413 0.0178,-0.03968 0.05625,-0.06275 0.08439,-0.09412 0.05625,-0.06275 0.133197,-0.108872 0.168778,-0.188243 0.04403,-0.09823 0.02435,-1.922254 0,-1.976542 -0.01257,-0.02807 -0.0645,0.02218 -0.08439,0 -0.03978,-0.04437 0,-0.125495 0,-0.18824 0,-0.275232 -0.07987,-0.768136 0,-1.035335 0.216203,-0.723404 -0.0682,-1.578216 0.08439,-2.258904 0.01524,-0.06806 0.06913,-0.120185 0.08439,-0.188245 0.08445,-0.376755 -0.121702,-1.516826 0,-1.788299 0.0851,-0.189816 0.138803,-0.510213 0.08439,-0.752969 -0.157207,-0.701337 -0.547794,-1.360636 -0.675118,-2.070663 -0.06208,-0.346197 -0.110085,-1.481404 -0.253169,-1.69418 -0.131819,-0.19603 -0.266596,-0.391459 -0.421946,-0.564727 -0.01988,-0.02217 -0.06451,0.02218 -0.08439,0 -0.10283,-0.114687 -0.15034,-0.355915 -0.253168,-0.470604 -0.174607,-0.194741 0.0068,0.297588 -0.168779,-0.09413 -0.02607,-0.05815 -0.05311,-0.341599 -0.08439,-0.376483 -0.01987,-0.02218 -0.0645,0.02218 -0.08439,0 -0.03978,-0.04437 0.02515,-0.132121 0,-0.188244 -0.06293,-0.140373 -0.188801,-0.232908 -0.253168,-0.376486 -0.162839,-0.363234 0.376701,0.378832 -0.08439,-0.282362 -0.159221,-0.228302 -0.337555,-0.439213 -0.506337,-0.658826 z"
       id="path12" />
    <path
       style="fill:#c2e1c0;fill-opacity:0.698039;stroke:#3a4148;stroke-width:0.25"
       d="m 12.672542,114.33449 c 0.01346,-1.78742 -0.0096,-3.58278 -0.281611,-5.35062 -0.08862,-0.57606 -0.282983,-1.49919 0,-2.06516 0.05597,-0.11195 0,0.25032 0,0.37548 0,0.37549 0,0.75097 0,1.12645 0,0.31488 -0.11522,1.7195 0,2.06516 0.05697,0.17091 0.130769,0.29843 0.187741,0.46935 0.01979,0.0594 -0.04425,0.14349 0,0.18774 0.153553,0.15355 0.281612,-0.16779 0.281612,0.18774 0,0.18524 0.08096,0.58904 0,0.75097 -0.194002,0.388 -0.469353,0.58888 -0.469353,1.03258 0,0.0678 -0.03086,0.47065 0,0.56322 0.07536,0.22607 0.234877,0.42342 0.281611,0.65709 0.04909,0.24546 0,0.50065 0,0.75097 0,0.003 0,0.74716 0,0.46935"
       id="path13" />
    <path
       style="fill:#c2e1c0;fill-opacity:0.698039;stroke:#3a4148;stroke-width:0.25"
       d="m 38.20537,109.17161 c 0,1.31419 0,2.62838 0,3.94257 0,0.56322 -0.03308,1.12741 0,1.68967 0.109302,1.85815 0.09387,-0.2201 0.09387,0.84483 0,0.0626 0.06258,0.18775 0,0.18775 -0.168725,0 -0.09387,-0.51572 -0.09387,-0.56323 0,-0.93687 0.07476,-1.88862 -0.09387,-2.81612 -0.07897,-0.43437 -0.129587,-0.0357 -0.281612,-0.18774 -0.119917,-0.11992 0.187741,-0.52065 0.187741,-0.6571 0,-0.0777 -0.524981,0.0556 -0.563224,0.0939 -0.112818,0.11281 0.314568,-0.0552 0.469355,-0.0939 0.07073,-0.0177 0.462179,-0.0867 0.563224,-0.18774 0.110627,-0.11062 0.03794,-0.31757 0,-0.46935 -0.03394,-0.13576 -0.118317,-0.25399 -0.187743,-0.37548 -0.499333,-0.87384 -0.742093,-0.11162 -0.09387,-1.40806 z"
       id="path14" />
    <path
       style="fill:#c2e1c0;fill-opacity:0.698039;stroke:#3a4148;stroke-width:0.25"
       d="m 18.979833,62.656314 c 0.152448,0 0.457345,0.152451 0.457345,0 0,-0.152447 -0.588069,-0.07843 -0.457345,0 0.310037,0.186024 0.693324,0.208728 1.029027,0.343009 0.241704,0.09668 0.223923,0.226298 0.457345,0.343011 0.104699,0.05235 0.512194,-0.01487 0.571682,0 0.999286,0.24982 0.254535,0.09346 0.800354,0.457346 0.306475,0.204316 1.080786,-0.01082 1.2577,0.343008 0.34287,0.685739 0.04316,3.676216 0.114336,4.459118 0.02865,0.315153 0.09944,0.770554 0.228673,1.029026 0.132647,0.265295 -0.01299,1.151178 0,1.372036 0.03364,0.571963 0.02014,1.14989 0.114336,1.715045 0.121656,0.729935 0.328744,1.443646 0.457346,2.172391 0.441651,2.502693 -0.09806,-0.539483 0.114336,1.372036 0.0475,0.427532 0.128138,0.855562 0.228673,1.2577 0.06792,0.27169 0,0.953746 0,1.143362 0,1.81079 -0.120511,3.680479 0,5.488146 0.0335,0.502481 0.217679,1.083993 0.114336,1.600708 -0.276604,1.383022 -0.618986,2.736154 -0.914691,4.116107 -0.347633,1.622288 -0.506092,3.347659 -1.029027,4.916464 -0.167229,0.50169 0.03928,1.393777 0,1.943719 -0.117896,1.650542 0.003,3.419464 -0.457345,5.030794 0.06891,0.20695 -0.185218,0.21265 -0.228673,0.34301 -0.0241,0.0723 0.0241,0.15636 0,0.22868 -0.186269,0.5588 -0.466312,1.16577 -0.686018,1.71504 -0.110969,0.27742 -0.382226,0.61421 -0.457345,0.91469 -0.01849,0.074 0.03409,0.1605 0,0.22867 -0.01704,0.0341 -0.08739,-0.0269 -0.114336,0 -0.107798,0.1078 0.02156,0.30643 0,0.45735 -0.112621,0.78834 -0.284226,1.62202 -0.457346,2.40106 -0.09665,0.43492 -1.315503,2.31563 -1.715045,2.5154 -0.107797,0.0539 -0.235212,0.0604 -0.343009,0.11434 -0.224749,0.11237 -0.74036,0.62791 -0.914691,0.68602 -0.07231,0.0241 -0.160495,-0.0341 -0.228672,0 -0.03409,0.017 0.02695,0.0874 0,0.11433 -0.08028,0.0803 -1.957767,0.005 -2.286727,0.11434 -0.27068,0.0902 -0.05284,0.35166 0,0.45734 0.03409,0.0682 -0.07622,0.22868 0,0.22868 0.03811,0 0,-0.0762 0,-0.11434 0,-0.15245 0.02506,-0.30697 0,-0.45734 -0.129285,-0.77572 -0.114337,-0.32664 -0.114337,-0.80036 0,-0.0967 0.05949,-0.39785 0,-0.45734 -0.07622,-0.0762 -0.168877,0.13898 -0.228672,0.22867 -0.282672,0.42401 -1.372037,0.32567 -1.372037,0.68602 0,0.0762 -0.03409,0.16049 0,0.22867 0.01537,0.0307 1.039132,0.43129 1.143364,0.45734 0.110923,0.0277 0.240744,-0.0511 0.343009,0 0.47584,0.23793 -0.12223,-0.008 0.114336,0.22868 0.05717,0.0572 0.171505,0.0572 0.228673,0.11433 0.02695,0.0269 0,0.15245 0,0.11434 0,-0.28845 -0.04634,-1.1897 -0.228673,-1.37204 -0.127168,-0.12716 -0.469923,0.0974 -0.571681,0.11434 -0.130302,0.0217 -0.912447,-0.11882 -1.029028,0.11434 -0.152197,0.30439 1.394277,0.28028 1.600709,0.22867 0.05229,-0.0131 0.06205,-0.10127 0.114337,-0.11434 0.110922,-0.0277 0.230228,0.0188 0.343009,0 0.232633,0.0397 0.370427,-0.18842 0.571681,-0.22867 0.112116,-0.0224 0.230893,0.0224 0.343009,0 0.167133,-0.0334 0.299094,-0.16537 0.457346,-0.22867 0.460614,-0.18425 0.995667,-0.20643 1.372036,-0.45735 0.353442,-0.23563 0.689572,-0.54576 1.029027,-0.80035 0.154247,-0.11569 0.436241,-0.20757 0.571682,-0.34301 0.06026,-0.0603 0.05408,-0.16841 0.114336,-0.22867 0.06026,-0.0603 0.168412,-0.0541 0.228673,-0.11434 0.484426,-0.48443 0.05993,-0.64267 0.114336,-0.91469 0.119451,-0.59726 0.327719,-1.08221 0.457345,-1.60071 0.02442,-0.0977 0.571547,-1.48617 0.571682,-1.48637 0.20635,-0.30953 0.426797,-0.55248 0.571682,-0.91469 0.119326,-0.29832 0.02501,-0.53237 0.114336,-0.80036 0.195306,-0.58592 0.448931,-1.10129 0.571682,-1.71504 0.06596,-0.32982 -0.06596,-0.69921 0,-1.02903 0.362443,-1.449772 -0.09049,0.51911 0.114336,-0.914689 0.07635,-0.534459 0.367937,-1.06426 0.457346,-1.600711 0.05536,-0.332174 -0.066,-0.699027 0,-1.029026 0.01671,-0.08357 0.09367,-0.145997 0.114336,-0.228674 0.02773,-0.110921 -0.08085,-0.262159 0,-0.343008 0.02695,-0.02695 0.08739,0.02695 0.114336,0 0.107798,-0.107797 -0.02156,-0.30643 0,-0.457346 0.05569,-0.389818 0.155055,-0.775274 0.228673,-1.143362 0.05232,-0.261604 -0.04386,-0.537199 0,-0.800354 0.01401,-0.08406 0.09367,-0.145997 0.114336,-0.228674 0.129319,-0.517274 0,-1.693971 0,-2.172391 0,-0.706887 -0.02773,0.05205 0.114337,-0.800354 0.0846,-0.507571 0,-1.085418 0,-1.600708 0,-0.381587 -0.121466,-1.007641 0,-1.372036 0.219633,-0.6589 0.344507,-1.376532 0.571681,-2.058054 0.03756,-0.112688 -0.08365,-0.488037 0,-0.571682 0.02695,-0.02695 0.08739,0.02695 0.114337,0 0.02975,-0.02975 -0.01121,-1.706129 0,-1.829382 0.05237,-0.576128 0.148257,-1.152136 0.228672,-1.715045 0.06658,-0.46604 0,-1.013431 0,-1.486371 0,-1.067142 0,-2.13428 0,-3.201419 0,-1.372036 0,-2.744073 0,-4.116109 0,-0.590413 0.08394,-1.241801 0,-1.82938 -0.04564,-0.319505 -0.282131,-0.610304 -0.343009,-0.914691 -0.099,-0.495022 -0.106398,-0.997275 -0.228672,-1.486374 -0.08133,-0.325334 0.03518,-0.82678 0,-1.143362 -0.01735,-0.156178 -0.09485,-0.301419 -0.114337,-0.457345 -0.105514,-0.844117 0.04553,-1.692789 -0.228672,-2.5154 -0.149047,-0.44714 -0.26442,-0.914691 -0.800355,-0.914691 -0.07622,0 -0.174774,-0.0539 -0.228672,0 -0.230501,0.2305 0.431472,2.744074 0.571681,2.744074 0.03811,0 0,-0.07623 0,-0.114337 0,-0.228675 0,-0.457346 0,-0.68602 0,-0.16057 0.02362,-1.80576 0,-1.829379 -0.02695,-0.02695 -0.08739,0.02695 -0.114336,0 -0.02695,-0.02695 0.02695,-0.08739 0,-0.114338 -0.100189,-0.100189 -0.659311,0 -0.800354,0 -0.172242,0 -1.517759,0.09864 -1.715046,0 -0.16239,-0.0812 -0.384872,-0.228674 -0.571681,-0.228674 -0.04387,0 -0.446599,0.02508 -0.457346,0 -0.109297,-0.255026 -0.152448,-0.533569 -0.228672,-0.800354 z"
       id="path15" />
    <path
       style="fill:#c2e1c0;fill-opacity:0.698039;stroke:#3a4148;stroke-width:0.25"
       d="m 32.014175,62.427643 c -0.322572,0.230259 -0.677235,0.395785 -1.029028,0.57168 -0.371281,0.185642 -0.744688,0.658185 -1.029025,0.800357 -0.249073,0.124536 -2.140191,-0.01611 -2.401065,0.114334 -0.102264,0.05113 0.02241,0.230894 0,0.343011 -0.124092,0.620461 -0.320783,1.213252 -0.57168,1.715045 -0.08878,0.177559 0.06264,0.498094 0,0.686017 -0.01704,0.05113 -0.09023,0.06613 -0.114337,0.114337 -0.05113,0.102264 0.02241,0.230891 0,0.343009 -0.08871,0.443536 -0.15653,0.999079 -0.343008,1.372036 -0.03452,0.06903 0.05285,0.290155 0,0.343009 -0.02695,0.02695 -0.08739,-0.02695 -0.114337,0 -0.131924,0.131923 0.133308,1.696074 0,1.829382 -0.02695,0.02695 -0.08739,-0.02695 -0.114337,0 -4.76e-4,5.29e-4 0,1.566391 0,1.829382 0,1.181473 0,2.362948 0,3.544424 0,0.976268 -0.13746,2.010524 0,2.972745 0.0618,0.432562 0.239453,0.729133 0.343008,1.143365 0.04714,0.188531 0.08685,0.379298 0.114337,0.571682 0.02156,0.150916 -0.06818,0.32099 0,0.457343 0.01704,0.03409 0.08739,-0.02695 0.114337,0 0.0059,0.0059 0,1.332114 0,1.372037 0,2.553512 0,5.107024 0,7.660536 0,1.067139 0,2.134278 0,3.201416 0,0.665449 -0.07365,1.395193 0,2.058054 0.02976,0.267846 0.04898,0.538908 0.114337,0.800356 0.01307,0.05229 0.09729,0.0632 0.114335,0.114335 0.132964,0.398888 -0.05589,0.952849 0,1.372036 0.163258,1.224437 0.398595,2.447149 0.571682,3.658769 0.167416,1.1719 -0.118753,2.37898 0.114337,3.54442 0.06256,0.31279 -0.14143,0.86051 0,1.14337 0.133438,0.26687 0.35459,0.49208 0.457346,0.80035 0.102164,0.30649 0.08948,0.63631 0.228671,0.91469 0.03452,0.069 -0.05285,0.29016 0,0.34301 0.02695,0.0269 0.08739,-0.0269 0.114337,0 0.0539,0.0539 -0.0241,0.15636 0,0.22867 0.100121,0.30036 0.437735,0.63483 0.686017,0.80036 0.18822,0.12548 0.383464,0.21753 0.571683,0.34301 0.169148,0.11276 0.276333,0.36683 0.457345,0.45734 0.2642,0.1321 0.679839,0.10816 0.914691,0.34301 0.06026,0.0603 0.05408,0.16841 0.114338,0.22867 0.23102,0.23102 0.998471,0.0279 1.257699,0.11434 0.170484,0.0568 0.368279,0.18799 0.57168,0.22867 0.124,0.0248 0.821232,0.0209 0.914691,0.11434 0.02695,0.0269 -0.02695,0.0874 0,0.11433 0.09126,0.0913 0.451728,-0.06 0.571683,0 0.140874,0.0704 0.702741,0.44062 0.914691,0.22868 0.02695,-0.0269 -0.02695,-0.0874 0,-0.11434 0.02695,-0.027 0.08739,0.0269 0.114337,0 0.04668,-0.0467 -0.201171,-0.2605 -0.228674,-0.34301 -0.0241,-0.0723 0.07622,-0.22867 0,-0.22867 -0.03811,0 0,0.0762 0,0.11433 0,0.22868 0,0.45735 0,0.68602 0,0.19056 0,0.38112 0,0.57168 0,0.0381 -0.03811,0.11434 0,0.11434 0.03811,0 0,-0.0762 0,-0.11434 0,-0.15244 0,-0.30489 0,-0.45734 0,-0.17698 0.03252,-1.33951 0,-1.37204 -0.205079,-0.20507 -0.05311,0.31646 0.228674,0.45735 0.08864,0.0443 0.810484,0.0101 0.914688,0.11433 0.0539,0.0539 -0.0539,0.17478 0,0.22868 0.06627,0.0663 0.391078,0.1624 0.457345,0.22867 0.02695,0.0269 -0.02695,0.0874 0,0.11434 0.02695,0.0269 0.114338,0.0381 0.114338,0 0,-0.0381 -0.07622,0 -0.114338,0 -0.114334,0 -0.234539,-0.0362 -0.343008,0 -0.215929,0.072 -0.49127,0.32751 -0.686017,0.45734 -0.223734,0.14916 -0.473842,0.12259 -0.68602,0.22867 -0.475839,0.23793 0.12223,-0.008 -0.114334,0.22868 -0.02695,0.0269 -0.08739,-0.0269 -0.114337,0 -0.140626,0.14062 0.398402,0.1438 0.457346,0.11433 0.277923,-0.13896 0.441661,-0.0493 0.571682,-0.11433 0.09642,-0.0482 0.132255,-0.18047 0.228672,-0.22868 0.03409,-0.017 0.08739,0.0269 0.114337,0 0.02695,-0.0269 -0.02695,-0.0874 0,-0.11433 0.02695,-0.0269 0.08739,0.0269 0.114334,0 0.252889,-0.25289 -0.461611,-0.56742 -0.228671,-0.80036 0.0539,-0.0539 0.174773,0.0539 0.228671,0 0.02695,-0.0269 -0.02695,-0.0874 0,-0.11433 0.02318,-0.0232 0.398119,-0.17357 0.228674,-0.34301 -0.115107,-0.11511 -1.274569,0.24554 -1.372036,0.34301 -0.004,0.004 -0.07363,0.3023 -0.114338,0.34301 -0.107317,0.10731 -0.287109,-0.0864 -0.343008,-0.11434 -0.06818,-0.0341 -0.174773,0.0539 -0.228671,0 -0.02695,-0.027 0.02695,-0.0874 0,-0.11434 -0.02695,-0.0269 -0.08025,0.017 -0.114337,0 -0.133189,-0.0666 -0.209823,-0.16208 -0.343009,-0.22867 -0.159351,-0.0797 -0.726824,-0.0517 -0.914691,-0.11434 -0.05113,-0.017 -0.07622,-0.0762 -0.114337,-0.11433 -0.07622,-0.0381 -0.145994,-0.0937 -0.228671,-0.11434 -0.5627,-0.14067 -1.215298,-0.20747 -1.715045,-0.45734 -0.12196,-0.061 -0.335389,0.061 -0.457346,0 -0.275415,-0.13771 -0.132233,-0.47525 -0.228674,-0.57168 -0.02695,-0.027 -0.08739,0.0269 -0.114337,0 -0.03811,-0.0381 -0.07622,-0.3049 -0.114335,-0.34301 -0.05717,-0.0572 -0.171505,-0.0572 -0.228674,-0.11434 -0.04791,-0.0479 -0.07969,-0.27371 -0.114334,-0.34301 -0.09808,-0.19615 -0.265263,-0.33844 -0.343011,-0.57168 -0.108752,-0.32626 -0.200599,-0.62988 -0.343009,-0.91469 -0.09475,-0.1895 -0.51645,-0.17344 -0.571682,-0.22867 -0.106799,-0.1068 -0.121873,-0.46489 -0.228672,-0.57169 -0.05717,-0.0572 -0.171505,-0.0572 -0.228674,-0.11433 -0.134744,-0.13475 0.02695,-0.38304 0,-0.57168 -0.09755,-0.68288 -0.17817,-1.27104 -0.457343,-1.82939 -0.177207,-0.35441 0.135427,-1.30875 0,-1.71504 -0.02695,-0.0808 -0.09367,-0.146 -0.114337,-0.22867 -0.04285,-0.1714 0.05581,-0.40424 0,-0.57168 -0.01704,-0.0511 -0.09023,-0.0661 -0.114337,-0.11434 -0.07785,-0.15571 0.04801,0.096 -0.114337,-0.22868 -0.127092,-0.25418 -0.116983,-0.46264 -0.228671,-0.68601 -0.124836,-0.24967 0,-1.716897 0,-1.943719 0,-1.524487 0,-3.048971 0,-4.573455 0,-0.699294 -0.115938,-1.381644 -0.228674,-2.058054 -0.0397,-0.238201 -0.0079,-1.494311 -0.114335,-1.600708 -0.02695,-0.02695 -0.08739,0.02695 -0.114337,0 -0.07522,-0.07522 -0.0853,-0.684217 -0.114337,-0.800356 -0.02066,-0.08267 -0.09762,-0.145106 -0.114337,-0.228672 -0.05822,-0.291121 0.04201,-0.620612 0,-0.914691 -0.13054,-0.913783 -0.191446,-1.834703 -0.343008,-2.744073 -0.153244,-0.919467 0.304739,-2.654612 0.571682,-3.544424 0.09099,-0.303311 0.267925,-0.614352 0.343009,-0.914691 0.164171,-0.656688 -0.03567,-1.837656 0,-2.515399 0.02013,-0.382495 0.08886,-0.761191 0.114337,-1.143365 0.123288,-1.84934 0,-3.744228 0,-5.602481 0,-0.661479 0.13221,-2.672577 0,-3.201416 -0.157602,-0.630404 -0.395248,-2.077778 -0.228674,-2.744073 0.02066,-0.08268 0.09762,-0.145108 0.114337,-0.228674 0.06255,-0.312751 -0.101037,-0.725914 0,-1.029026 0.108662,-0.325982 0.18451,-0.675732 0.228674,-1.029028 0.0049,-0.03937 0.0977,-1.126725 0.114334,-1.143362 0.03811,-0.03811 0.07622,0.07622 0.114337,0.114337 0.07252,0.07252 0.362151,-0.0476 0.457346,0 0.377825,0.18891 0.560522,0.343008 1.029028,0.343008 0.120113,0 0.356418,0.03364 0.457346,0 0.06977,-0.02326 0.273232,-0.205414 0.343008,-0.228674 0.197628,-0.06588 0.628213,-0.02827 0.800354,-0.114334 0.112601,-0.0563 0.328501,-0.359116 0.457345,-0.343011 0.275318,0.03441 0.53357,0.15245 0.800354,0.228674 z"
       id="path16" />
    <path
       style="fill:#c2e1c0;fill-opacity:0.698039;stroke:#3a4148;stroke-width:0.25"
       d="m 13.056982,75.887571 c 0.0043,-0.216329 0.02458,-1.080061 0.09817,-1.374418 0.03549,-0.141978 0.144959,-0.255664 0.196345,-0.392692 0.124883,-0.333023 0.207875,-0.733324 0.294519,-1.079902 0.271206,-1.084823 -0.01743,0.04125 0.09817,-0.883555 0.06909,-0.552735 0.215842,-1.1182 0.294519,-1.668936 -0.101521,-0.253328 0.155756,-0.38609 0.196345,-0.589036 0.0721,-0.360479 0.122713,-0.711737 0.196346,-1.079902 0.03776,-0.188794 -0.03776,-0.400244 0,-0.589037 0.07243,-0.362148 0.135722,-0.716161 0.196346,-1.0799 0.0416,-0.249629 -0.0613,-0.540165 0,-0.785383 0.06382,-0.255284 0.09817,-0.41514 0.09817,-0.687211 0,-0.108833 -0.04706,-0.298561 0,-0.392689 0.0207,-0.04139 0.09817,-0.0519 0.09817,-0.09817 0,-0.09817 -0.196345,0 -0.294518,0 -0.110936,0 -0.615093,-0.07212 -0.68721,0 -0.24297,0.24297 0.866439,0.311635 0.981728,0.196345 0.112181,-0.112181 -1.008972,-0.329983 -1.079901,-0.294518 -0.147547,0.07377 0.294727,0.171828 0.490864,0.196347 0.473118,0.05914 0.991543,0 1.472592,0 0.06545,0 0.150067,0.04628 0.196346,0 0.07432,-0.07432 -0.155793,-0.548484 -0.196346,-0.589036 -0.02314,-0.02315 -0.07503,0.02315 -0.09817,0 -0.06545,-0.06545 0.06545,-0.327245 0,-0.392692 -0.115167,-0.115168 -0.251917,0.251915 -0.294519,0.294518 -0.163257,0.163258 -1.416326,1.136166 -1.472592,1.079899 -0.04899,-0.04899 0,-0.413993 0,-0.490863 0,-0.694695 -0.314078,-0.01955 -0.294518,0 0.147776,0.147778 1.21924,-0.464894 1.374419,-0.589036 0.171267,-0.137015 0.434877,-0.365091 0.490864,-0.589037 0.01588,-0.06349 -0.02927,-0.137808 0,-0.196344 0.01463,-0.02927 0.07503,-0.02315 0.09817,0 0.134867,0.134866 -0.186761,0.186758 -0.196346,0.196344 -0.08343,0.08343 -0.112915,0.211088 -0.196345,0.294519 -0.129994,0.129995 -1.159208,0.48143 -1.37442,0.589036 -0.0535,0.02675 -0.392691,0.0962 -0.392691,0.196345 0,0.09817 0.199277,0.02381 0.294519,0 0.64093,-0.160232 -0.370914,-0.05272 0.490864,-0.196345 0.36837,-0.06139 0.747737,-0.07308 1.0799,-0.294518 0.106777,-0.07118 0.463842,-0.419714 0.490864,-0.392692 0.05001,0.05001 0,0.527809 0,0.589037 0,0.08572 0.07541,0.709969 0,0.785383 -0.02599,0.02598 -0.254094,0 -0.294518,0 -0.07979,0 -0.541763,-0.192719 -0.589037,-0.09817 -0.07317,0.146346 0.0269,0.329469 0,0.490863 -0.04744,0.284654 -0.247076,0.500729 -0.294518,0.785384 -0.06904,0.414229 -0.04513,0.873011 -0.196346,1.276246 -0.225493,0.601316 -0.562157,1.141847 -0.687209,1.76711 -0.06511,0.325565 0,0.749059 0,1.0799 0,1.130157 0.0439,-0.361599 -0.09817,0.490865 -0.07962,0.477719 0.06852,0.992976 0,1.472592 -0.09862,0.690342 -0.390882,1.361754 -0.490864,2.061628 -0.04628,0.323953 0,0.654486 0,0.981728 z"
       id="path17" />
    <path
       style="fill:#c2e1c0;fill-opacity:0.698039;stroke:#3a4148;stroke-width:0.25"
       d="m 38.189217,76.280263 c 0.07761,-2.167803 -0.262549,-4.289899 -0.785381,-6.381231 -0.05909,-0.236376 0.02984,-0.546629 0,-0.785384 -0.03595,-0.28761 -0.162563,-0.717815 -0.294518,-0.981729 -0.08714,-0.174275 -0.207381,-0.316584 -0.294519,-0.490863 -0.02927,-0.05854 0.04628,-0.150066 0,-0.196344 -0.0393,-0.0393 -0.124759,-0.05317 -0.196347,-0.196348 -0.03927,-0.07854 0.03927,-0.215979 0,-0.294518 -0.09189,-0.183779 -0.204457,-0.408916 -0.294518,-0.589036 -0.201338,-0.402678 -0.122034,-0.196345 -0.294519,-0.196345 -0.06545,0 -0.261794,0 -0.196344,0 0.225396,0 0.615944,-0.02691 0.785381,-0.196347 0.02315,-0.02312 -0.02315,-0.07503 0,-0.09817 0.03273,-0.03272 0.130897,-0.06545 0.09817,-0.09817 -0.02315,-0.02315 -0.0689,0.01463 -0.09817,0 -0.06513,-0.03257 -0.546105,-0.601348 -0.589037,-0.68721 -0.04806,-0.09612 -0.144507,-0.190844 -0.196344,-0.294518 -0.01463,-0.02927 0.03272,-0.09817 0,-0.09817 -0.03409,0 0.04539,0.739994 0,0.785381 -0.02315,0.02315 -0.07503,-0.02315 -0.09817,0 -0.0214,0.02141 -0.220673,0.466537 -0.196345,0.490863 0.01826,0.01826 0.310841,-0.155419 0.392692,-0.196345 0.164418,-0.08221 0.635479,0.07495 0.981726,-0.09817 0.178525,-0.08926 0.196348,0.07775 0.196348,-0.196344 0,-0.03272 0.02315,-0.07503 0,-0.09817 -0.02315,-0.02315 -0.0689,0.01463 -0.09817,0 -0.248253,-0.124127 -0.738643,-0.299209 -0.883555,-0.589036 -0.06739,-0.134782 -0.223216,-0.250085 -0.294518,-0.39269 -0.02975,-0.0595 -0.05703,-0.253381 -0.09817,-0.294518 -0.02312,-0.02315 -0.07503,0.02313 -0.09817,0 -0.02315,-0.02315 0.03272,-0.09817 0,-0.09817 -0.06545,0 0.06545,0.196345 0,0.196345 -0.05572,0 -0.139882,-0.309272 -0.196347,-0.196345 -0.129855,0.259713 0,0.88818 0,1.178073 0,0.09817 0,0.196345 0,0.294519 0,0.03272 -0.03272,0.09817 0,0.09817 0.01024,0 0.024,-0.220342 0.09817,-0.294518 0.0541,-0.0541 1.4154,-0.155366 1.472592,-0.09817 0.196448,0.196446 -0.344043,0.24587 -0.392692,0.294519 -0.02315,0.02315 0.02315,0.07503 0,0.09817 -0.04909,0.04909 -0.147259,0.04909 -0.196345,0.09817 -0.04628,0.04628 0.04628,0.150067 0,0.196348 -0.02315,0.02315 -0.07503,-0.02315 -0.09817,0 -0.09729,0.09729 -0.177255,0.627213 -0.09817,0.785381 0.266739,0.533482 0.470058,1.172231 0.589036,1.76711 0.199001,0.995005 -0.24081,-0.427911 0.09817,0.589039 0.289169,0.867497 0.663549,1.672455 0.883558,2.552491 -0.05917,0.177686 0.159033,0.182583 0.196344,0.294518 0.118806,0.356415 0.126633,0.74413 0.294519,1.079902 0.149783,0.299567 -0.09817,2.933295 -0.09817,3.337875 z"
       id="path18" />
    <path
       style="fill:#c2e1c0;fill-opacity:0.698039;stroke:#3a4148;stroke-width:0.25"
       d="M 10.602662,89.533589 C 9.693463,88.753399 9.1610727,87.730313 8.6392061,86.686579 8.4840743,86.376316 8.2016901,86.106065 8.0501693,85.803025 c -0.02927,-0.05854 0.046279,-0.150067 0,-0.196348 -0.023141,-0.02312 -0.080021,0.02723 -0.098173,0 -0.057402,-0.0861 -0.051893,-0.201959 -0.098173,-0.294518 C 7.6538324,84.912178 7.315904,84.50528 7.0684413,84.134086 6.8570141,83.816946 6.6204345,83.451363 6.3812319,83.152357 6.2195881,82.950303 5.9660366,82.828163 5.8903679,82.563321 5.5269987,81.29153 5.2242333,79.940935 5.0068125,78.636409 4.8358705,77.610757 4.9846007,78.121557 4.810467,77.163818 4.9119879,76.91049 4.6547108,76.777727 4.6141213,76.574781 c -0.070595,-0.352978 0.023175,-0.72068 0,-1.079902 -0.090281,-1.399357 -0.1963454,-2.644767 -0.1963454,-4.025085 0,-0.425413 0.046979,-0.853432 0,-1.276244 -0.03858,-0.347221 -0.1426657,-0.625785 -0.098173,-0.981729 0.126607,-1.012856 0.2411277,-2.032933 0.3926911,-3.043356 0.1558504,-1.039003 0.190944,-0.825624 0.3926911,-1.76711 0.201911,-0.311605 0.044106,-0.657328 0.098173,-0.981728 0.012031,-0.07218 0.083822,-0.124593 0.098173,-0.196348 0.1070142,-0.535069 0,-1.71084 0,-2.061628 0,-0.850831 0,-1.701662 0,-2.552491 0,-2.716114 0,-5.432229 0,-8.148343 0,-1.714453 0.4202309,-3.491127 1.1780735,-5.006814 0.058539,-0.117075 -0.010869,-0.262244 0,-0.392689 0.024609,-0.295307 0.065449,-0.589037 0.098173,-0.883555 0.065449,-0.589037 0.106227,-1.181341 0.1963457,-1.767112 0.1163717,-0.756415 -0.022754,-0.173591 0.2945183,-0.490863 0.069419,-0.06942 -0.019254,-0.198253 0,-0.294519 0.076964,-0.38482 0.1745832,-0.85091 0.3926911,-1.178073 0.1692511,-0.253878 0.5363925,-0.619389 0.7853826,-0.785384 0.027228,-0.01815 0.075033,0.02315 0.098173,0 0.2345668,-0.234566 0.3892028,-0.58671 0.6872097,-0.785381 0.1725392,-0.115025 0.4627649,-0.07008 0.5890368,-0.196344 0.073174,-0.07318 0.04077,-0.208415 0.098173,-0.294519 0.1289174,-0.193376 0.2358334,-0.01974 0.3926912,-0.09817 0.113853,-0.05693 0.263321,-0.294519 0.392691,-0.294519 0.01917,0 -0.05983,0.294519 0.09817,0.294519 0.09817,0 0,-0.196345 0,-0.294519 0,-0.130897 0,-0.261794 0,-0.392692 0,-0.03272 0.03272,-0.09817 0,-0.09817 -0.106685,0 0.185426,0.981728 0.196346,0.981728 0.149591,0 -0.306181,-1.16641 -0.294519,-1.178073 0.02983,-0.02983 1.328657,0.07529 1.374419,0.09817 0.106759,0.05338 -0.184015,0.269856 -0.196345,0.294518 -0.01463,0.02927 0,0.06545 0,0.09817 -0.09817,0.06545 -0.211088,0.112913 -0.294519,0.196344 -0.02314,0.02315 0.02314,0.07503 0,0.09817 -0.02314,0.02313 -0.07503,-0.02315 -0.09817,0 -0.06085,0.06085 -0.14922,0.345564 -0.196345,0.392689 -0.07872,0.07872 -0.270882,-0.565398 -0.294518,-0.589036 -0.04909,-0.04909 -0.14726,-0.04909 -0.196346,-0.09817 -0.02314,-0.02315 0.02314,-0.07504 0,-0.09817 -0.02314,-0.02315 -0.09817,0.03272 -0.09817,0 0,-0.225248 0.508952,-0.0181 0.589037,-0.09817 0.04909,-0.04909 0.04909,-0.147259 0.09817,-0.196344 0.09817,-0.09817 0.490864,0.09817 0.589036,0 0.02314,-0.02315 -0.02314,-0.07503 0,-0.09817 0.02314,-0.02315 0.09817,0.03272 0.09817,0 0,-0.06545 -0.137806,0.02927 -0.196345,0 -0.04139,-0.02069 -0.05678,-0.07747 -0.09817,-0.09817 -0.309526,-0.154763 0.316849,0.120504 0.09817,-0.09817 -0.04628,-0.04628 -0.130897,0 -0.196346,0 -0.245026,0 -0.648735,-0.07828 -0.883555,0 -0.112415,0.03747 -0.287422,0.143711 -0.392691,0.196344 -0.3024714,0.151236 -0.2428216,0.289298 -0.3926914,0.589037 -0.043904,0.08781 0.031045,0.201385 0,0.294518 -0.033896,0.10169 -0.1476483,0.197125 -0.1963454,0.294518 -0.014634,0.02927 0.02314,0.07503 0,0.09817 -0.034954,0.03495 -0.2910642,0.09472 -0.2945186,0.09817 -0.02314,0.02312 0.023141,0.07503 0,0.09817 -0.07935,0.07935 -0.5081169,0.230851 -0.5890365,0.392692 -0.1714506,0.3429 -0.5635551,0.550814 -0.7853826,0.883554 -0.2147419,0.322115 -0.3673792,0.649243 -0.5890368,0.981729 -0.051342,0.07701 -0.1549522,0.113559 -0.1963455,0.196345 -0.02927,0.05854 0.02927,0.137808 0,0.196347 -0.070871,0.14174 -0.1254752,0.250949 -0.1963457,0.392689 -0.190574,0.381148 -0.3005177,0.797383 -0.4908639,1.178076 -0.056802,0.113604 -0.00653,1.77364 -0.098173,1.865281 -0.023141,0.02315 -0.075033,-0.02313 -0.098173,0 -0.03943,0.03943 0.018508,0.238995 0,0.294518 -0.065449,0.196347 -0.123675,0.39525 -0.1963457,0.589039 -0.1950667,0.520176 -0.354121,1.100931 -0.5890368,1.570763 -0.072231,0.144462 -0.039425,0.805486 -0.098173,0.981728 -0.014634,0.04391 -0.077476,0.05678 -0.098173,0.09817 -0.052015,0.104029 0.037079,0.281453 0,0.392692 -0.02314,0.06942 -0.075033,0.126926 -0.098173,0.196344 -0.018508,0.05552 0.03943,0.255088 0,0.294519 -0.023141,0.02315 -0.075033,-0.02315 -0.098173,0 -0.080617,0.08062 -0.022098,0.670546 -0.098173,0.883554 -0.3782658,1.059146 -0.6872094,1.922828 -0.6872094,3.043357 0,0.233741 -0.056926,0.557678 0,0.785384 0.1047218,0.418886 0.2858738,0.848976 0.3926911,1.276244 0.02381,0.09524 -0.019254,0.198252 0,0.294518 0.031414,0.157073 0.1454806,0.33827 0.1963457,0.490866 0.075561,0.226684 0,0.660265 0,0.883555 0,0.916278 0,1.832559 0,2.748838 0,0.407681 0.041519,0.781497 0.098173,1.178073 0.052491,0.367435 0.4142581,1.113375 0.2945185,1.472592 -0.1504751,0.451426 -0.3132764,0.930452 -0.490864,1.37442 -0.077664,0.194159 -0.2439212,0.386646 -0.2945185,0.589037 -0.06773,0.270922 0.088148,0.619111 0,0.883554 -0.014634,0.04391 -0.083538,0.05427 -0.098173,0.09817 -0.1101521,0.330457 0.022992,0.87735 0.098173,1.178073 0.086904,0.347615 0,0.928275 0,1.276247 0,1.0799 0,2.159802 0,3.239701 0,0.466135 -0.076733,1.012193 0,1.472592 0.1354172,0.812503 0.3532391,1.628571 0.490864,2.45432 0.1258361,0.755017 0,1.859306 0,2.650667 0,0.208558 -0.098891,0.783944 0,0.981726 0.1331034,0.266208 0.032115,0.456922 0.098173,0.589036 0.2179035,0.435809 0.066974,1.071589 0.098173,1.570765 0.048649,0.778394 0.2970382,1.492753 0.3926911,2.257976 0.012176,0.09741 -0.019254,0.198252 0,0.294518 0.1008745,0.504373 0.6632332,0.933775 0.8835552,1.37442 0.089073,0.178147 0.4404603,0.342287 0.4908639,0.39269 0.023141,0.02315 -0.02314,0.07503 0,0.09817 0.023141,0.02315 0.068903,-0.01463 0.098173,0 0.2720218,0.136012 0.7920466,0.497528 0.981728,0.687211 0.090648,0.09065 0.3161173,0.376002 0.3926911,0.490862 -0.0098,0.194488 0.1446041,0.04643 0.1963457,0.09817 0.051862,0.05186 0.242656,0.439002 0.2945183,0.490863 0.203123,0.203123 -0.00794,-0.310399 0.1963457,0.09817 0.1058746,0.211748 0.1567878,0.578786 0.2945183,0.785381 0.1404874,0.210733 0.435138,0.659347 0.6872092,0.785384 0.02927,0.01463 0.07503,-0.02315 0.09817,0 0.04628,0.04628 -0.02927,0.137805 0,0.196344 0.02069,0.04139 0.06545,0.06545 0.09817,0.09817 0.09817,0.229068 0.196345,0.458139 0.294518,0.687208 z"
       id="path19" />
    <path
       style="fill:#c2e1c0;fill-opacity:0.698039;stroke:#3a4148;stroke-width:0.25"
       d="m 38.876427,90.220799 c 0.680382,-0.380878 1.368378,-0.766178 1.963457,-1.276247 0.240218,-0.205901 0.433515,-0.496938 0.687208,-0.687208 0.05854,-0.0439 0.144605,-0.04643 0.196347,-0.09817 0.118869,-0.237739 0.04643,-0.144606 0.196345,-0.294518 0.05174,-0.05174 0.144605,-0.04643 0.196344,-0.09817 0.203124,-0.203123 -0.310398,0.0079 0.09817,-0.196345 0.02927,-0.01463 0.07503,0.02315 0.09817,0 0.02315,-0.02315 -0.01463,-0.0689 0,-0.09817 0.04139,-0.08279 0.145002,-0.119333 0.196344,-0.196345 0.05042,-0.07563 0.145923,-0.317058 0.196345,-0.392692 0.25174,-0.377611 0.544772,-0.718984 0.785384,-1.079899 0.285345,-0.42802 0.359079,-1.01268 0.589036,-1.472595 0.202092,-0.40418 0.403424,-0.921514 0.687211,-1.276244 0.03822,-0.04777 0.369887,-0.301482 0.392689,-0.392692 0.02824,-0.112948 -0.05601,-2.425999 -0.09817,-2.552493 -0.01463,-0.0439 -0.09817,-0.05189 -0.09817,-0.09817 0,-0.03273 0.07503,0.02312 0.09817,0 0.220094,-0.220097 0.307853,-0.639543 0.490863,-0.883558 0.01963,-0.02617 0.08002,0.02723 0.09817,0 0.289001,-0.433504 0.36985,-1.086712 0.490862,-1.570762 0.118518,-0.474073 0.04665,0.0049 0.196348,-0.294518 0.125497,-0.250997 -0.01439,-1.421414 0,-1.767113 0.02455,-0.589433 0.03747,-1.180295 0.09817,-1.76711 0.03765,-0.363926 0.150966,-0.716856 0.196347,-1.079899 0.110265,-0.882129 0.216382,-1.765115 0.294518,-2.650667 0.0576,-0.652767 0.04592,-1.310241 0.09817,-1.963455 0.01331,-0.16633 0.07748,-0.325292 0.09817,-0.490865 0.05383,-0.430615 0,-0.955408 0,-1.374418 0,-1.298326 -0.08112,-2.629019 0,-3.926911 0.09331,-1.49293 0.367517,-3.466267 0.196345,-5.006814 -0.136533,-1.228812 -0.490863,-2.39867 -0.490863,-3.632393 0,-1.123619 -0.253027,-2.939629 -0.687211,-4.025085 -0.02717,-0.06794 -0.04643,-0.144603 -0.09817,-0.196345 -0.02315,-0.02315 -0.08783,0.03104 -0.09817,0 -0.03105,-0.09314 0,-0.196347 0,-0.294518 -0.06545,-0.196347 -0.117544,-0.397661 -0.196345,-0.589037 -0.208716,-0.661865 -0.612545,-1.232924 -0.883557,-1.865283 -0.08153,-0.190233 -0.114816,-0.398806 -0.196345,-0.589037 -0.01823,-0.04254 -0.08354,-0.05427 -0.09817,-0.09817 -0.192854,-0.578567 0.156496,-1.271059 -0.09817,-1.865284 -0.114966,-0.268253 -0.306538,-0.653145 -0.490865,-0.883554 -0.08515,-0.106445 -0.326033,-0.259377 -0.39269,-0.392692 -0.193204,-0.386408 -0.434546,-0.799076 -0.68721,-1.178074 -0.152715,-0.22907 -0.469759,-0.448656 -0.589036,-0.68721 -0.09295,-0.185888 -0.08025,-0.493712 -0.196348,-0.68721 -0.107804,-0.179676 -0.258548,-0.32989 -0.392689,-0.490863 -0.250489,-0.300585 -0.472077,-0.560856 -0.68721,-0.883555 -0.09927,-0.148907 -0.298278,-0.10569 -0.392692,-0.294518 -0.05139,-0.102772 -0.51204,-0.666033 -0.589037,-0.589037 -0.03272,0.03272 0.06545,0.06545 0.09817,0.09817 0.03825,0.03825 0,0.33278 0,0.392689 0,0.03272 -0.03272,0.09817 0,0.09817 0.02737,0 0.313124,-1.159468 0.196345,-1.276247 -0.04508,-0.04508 -1.365864,0.08962 -1.374418,0.09817 -0.03729,0.03729 0.458753,0.671155 0.490863,0.68721 0.135416,0.06771 0.08781,-0.118893 0.196344,0.09817 0.01463,0.02927 -0.02312,0.07503 0,0.09817 0.02315,0.02315 0.06891,-0.01463 0.09817,0 0.167741,0.08387 0.404405,0.577323 0.490863,0.490863 0.03231,-0.03231 0.06296,-0.757643 0,-0.883555 -0.04531,-0.09061 -0.407236,-0.196345 -0.490863,-0.196345 -0.177038,0 -0.237114,-0.09817 -0.392692,-0.09817 -0.103481,0 -0.397999,-0.09817 -0.294518,-0.09817 0.235979,0 0.388929,0.267623 0.589036,0.392692 0.186156,0.116345 0.380783,0.225099 0.589037,0.294518 0.06209,0.02069 0.150069,-0.04628 0.196347,0 0.02315,0.02315 -0.02315,0.07503 0,0.09817 0.02315,0.02315 0.07503,-0.02315 0.09817,0 0.02313,0.02315 -0.02315,0.07503 0,0.09817 0.0053,0.0053 0.289197,0.191024 0.294518,0.196345 0.09751,0.09751 0.223838,0.545851 0.294519,0.68721 0.182316,0.364636 0.717568,0.619398 0.981725,0.883555 0.03584,0.03584 -0.01042,0.366601 0,0.392692 0.01413,0.03535 0.243465,0.512453 0.294519,0.589037 0.07699,0.115488 0.931971,1.153194 0.981728,1.178073 0.02927,0.01463 0.07503,-0.02315 0.09817,0 0.02315,0.02315 -0.02315,0.07503 0,0.09817 0.02315,0.02315 0.07503,-0.02315 0.09817,0 0.02315,0.02315 -0.02315,0.07503 0,0.09817 0.119571,0.119573 0.219337,0.04599 0.294519,0.196345 0.05674,0.11349 0.02807,1.192186 0.09817,1.472594 -0.05917,0.177686 0.159036,0.182584 0.196347,0.294518 0.02069,0.06209 -0.02927,0.137806 0,0.196345 0.01463,0.02927 0.07503,-0.02315 0.09817,0 0.05174,0.05174 0.06545,0.130897 0.09817,0.196345 0.0439,0.08781 -0.01614,0.197683 0,0.294518 0.07833,0.46999 0.242017,0.922398 0.392692,1.37442 0.08237,0.247113 0.220024,0.751507 0.392689,0.981729 0.05554,0.07405 0.148725,0.116977 0.196347,0.196345 0.05324,0.08873 0.04493,0.205782 0.09817,0.294518 0.137327,0.228878 0.368946,0.44337 0.490866,0.68721 0.05854,0.117078 0,0.261795 0,0.392692 0,0.294518 -0.02666,0.590246 0,0.883555 0.01871,0.20574 0.349125,1.185632 0.392692,1.374418 0.153866,0.666755 0.281752,1.336127 0.490863,1.963457 -0.05917,0.177686 0.159033,0.182583 0.196344,0.294518 0.107403,0.322204 -0.04311,0.854744 0,1.178073 0.113472,0.85104 0.326324,1.689717 0.392692,2.552494 0.112803,1.466418 -0.09817,2.951085 -0.09817,4.417774 0,1.36611 -0.06427,2.769555 0.09817,4.123259 0.03215,0.267927 0.148074,0.519882 0.196345,0.785381 0.068,0.373988 0.07644,0.992214 0,1.37442 -0.07892,0.394634 -0.218546,0.798216 -0.294518,1.178073 -0.05687,0.284372 -0.0413,0.599184 -0.09817,0.883555 -0.01434,0.07175 -0.08382,0.124593 -0.09817,0.196345 -0.03423,0.171151 0.05629,0.420153 0,0.589037 -0.02315,0.06942 -0.07503,0.126928 -0.09817,0.196347 -0.03708,0.111236 0.05202,0.28866 0,0.392689 -0.246258,0.492522 -0.306998,1.215522 -0.490863,1.767113 -0.05506,0.165195 0.02141,0.417771 0,0.589036 -0.07589,0.607108 -0.203657,1.298183 -0.392692,1.865283 -0.126219,0.378662 0.0273,1.466893 0,1.76711 -0.0066,0.07287 -0.07503,0.126926 -0.09817,0.196345 -0.03542,0.106254 0.01744,0.288062 0,0.392692 -0.05539,0.332303 -0.214799,0.564676 -0.294518,0.883555 -0.01588,0.06349 0.02927,0.137808 0,0.196344 -0.33832,0.67664 -0.746106,1.35476 -0.981728,2.061631 -0.07949,0.238461 0.06346,0.144812 0,0.589037 -0.04419,0.309284 -0.124122,0.594653 -0.196348,0.883554 -0.06967,0.278707 -0.0056,0.50767 -0.09817,0.785382 -0.02069,0.06209 0.02927,0.137808 0,0.196347 -0.222059,0.444114 -0.477964,0.913289 -0.785384,1.374418 -0.202686,0.30403 -0.499721,0.571074 -0.687207,0.883555 -0.05324,0.08873 -0.04493,0.205782 -0.09817,0.294518 -0.04762,0.07937 -0.148725,0.116977 -0.196347,0.196347 -0.09633,0.160557 -0.117306,0.430959 -0.196345,0.589037 -0.191645,0.383294 -0.529076,0.738161 -0.785381,1.079899 -0.12261,0.163481 -0.15063,0.445148 -0.294518,0.589037 -0.05174,0.05174 -0.144606,0.04643 -0.196347,0.09817 -0.05174,0.05174 -0.04643,0.144606 -0.09817,0.196345 -0.05174,0.05174 -0.135462,0.05758 -0.196348,0.09817 -0.145235,0.09682 -0.237267,0.314978 -0.392689,0.392692 -0.02927,0.01463 -0.07503,-0.02315 -0.09817,0 -0.02315,0.02312 0.02315,0.07503 0,0.09817 -0.02315,0.02315 -0.07503,-0.02315 -0.09817,0 -0.02313,0.02315 0.02315,0.07503 0,0.09817 -0.137769,0.137771 -1.367322,0.558959 -1.472592,0.589037 z"
       id="path20" />
    <path
       style="fill:#c2e1c0;fill-opacity:0.698039;stroke:#3a4148;stroke-width:0.25"
       d="m 22.481571,60.867134 c 0.130897,0 0.392691,0.130897 0.392691,0 0,-0.130897 -0.523588,0 -0.392691,0 0.08785,0 1.471288,-0.0013 1.472592,0 0.02314,0.02315 -0.02314,0.07503 0,0.09817 0.01376,0.01376 0.38868,0.008 0.392691,0 0.182149,-0.3643 -0.162981,-1.165673 -0.294519,-1.472594 -0.04053,-0.09456 -0.345029,-0.73487 -0.196345,-0.883555 0.0054,-0.0053 0.509962,0.09817 0.589037,0.09817 0.719933,0 1.439867,0 2.159801,0 0.124864,0 0.705906,0.07948 0.785382,0 0.06172,-0.06172 0,-0.694586 0,-0.589036 0,0.229071 0,0.458139 0,0.68721 0,0.09817 0,0.196345 0,0.294518 0,0.03272 -0.03272,0.09817 0,0.09817 0.05503,0 -0.06108,-1.215167 0,-1.276244 0.09419,-0.09419 0.432276,0.07864 0.490863,0.09817 0.111239,0.03708 0.288663,-0.05201 0.392692,0 0.19309,0.09655 0.240898,0.294518 0.490866,0.294518 0.05991,0 0.354438,-0.03825 0.392689,0 0.124574,0.124574 -0.337709,0.17802 -0.392689,0.196348 -0.331359,0.110453 -1.041464,0.256079 -1.276248,0.490863 -0.02314,0.02315 0.02314,0.07503 0,0.09817 -0.02314,0.02313 -0.09817,-0.03272 -0.09817,0 0,0.06708 0.465767,-0.171249 0.490863,-0.196347 0.02315,-0.02313 -0.02927,-0.08354 0,-0.09817 0.08781,-0.04391 0.206711,0.0439 0.294518,0 0.136298,-0.06815 0.745617,-0.352925 0.785384,-0.392692 0.04909,-0.04909 0.04909,-0.147259 0.09817,-0.196345 0.02315,-0.02315 0.09817,0.03272 0.09817,0 0,-0.09817 -0.196345,0 -0.294518,0 -0.109046,0 -0.617792,-0.06942 -0.687211,0 -0.02315,0.02313 0.02315,0.07503 0,0.09817 -0.05911,0.05911 -0.598884,0.05401 -0.687208,0.09817 -0.04139,0.02069 -0.05678,0.07747 -0.09817,0.09817 -0.329492,0.164745 -2.81289,-0.16432 -3.141529,0 -0.08028,0.04014 -0.12719,0.109291 -0.09817,0.196344 0.237035,0.711108 -0.0283,-0.154778 0.196346,0.294519 0.09598,0.191957 0,1.563613 0,1.865283 0,0.137644 0.07676,0.529246 -0.196346,0.392692 -0.267714,-0.133858 -0.468051,-0.196347 -0.785382,-0.196347 -0.434582,0 -0.133416,0.01799 -0.883555,-0.196345 z"
       id="path21" />
    <path
       style="fill:#c2e1c0;fill-opacity:0.698039;stroke:#3a4148;stroke-width:0.25"
       d="m 22.285225,60.867134 c 0.136391,-0.04896 2.296141,0.06001 2.356147,0 0.136481,-0.13648 -0.543265,-0.896813 -0.589037,-1.0799 -0.0481,-0.192402 -0.05007,-0.298463 -0.09817,-0.490865 -0.01329,-0.05316 -0.19427,-0.785381 -0.09817,-0.785381 0.04628,0 0.05328,0.08695 0.09817,0.09817 0.433721,0.108431 1.02884,0 1.472592,0 1.047176,0 2.094352,0 3.141528,0"
       id="path22" />
  </g>
</svg>
