<?xml version="1.0" encoding="UTF-8" standalone="no"?>
<!-- Created with Inkscape (http://www.inkscape.org/) -->

<svg
   width="50.799999mm"
   height="128.5mm"
   viewBox="0 0 50.800003 128.50002"
   version="1.1"
   id="svg8"
   inkscape:version="1.4 (e7c3feb1, 2024-10-09)"
   sodipodi:docname="Rizl.svg"
   xmlns:inkscape="http://www.inkscape.org/namespaces/inkscape"
   xmlns:sodipodi="http://sodipodi.sourceforge.net/DTD/sodipodi-0.dtd"
   xmlns:xlink="http://www.w3.org/1999/xlink"
   xmlns="http://www.w3.org/2000/svg"
   xmlns:svg="http://www.w3.org/2000/svg"
   xmlns:rdf="http://www.w3.org/1999/02/22-rdf-syntax-ns#"
   xmlns:cc="http://creativecommons.org/ns#"
   xmlns:dc="http://purl.org/dc/elements/1.1/">
  <defs
     id="defs2">
    <rect
       x="0"
       y="0.65542414"
       width="191.38385"
       height="48.501387"
       id="rect6" />
    <rect
       x="1.7660702"
       y="1.7660702"
       width="301.99802"
       height="47.683895"
       id="rect5" />
    <rect
       x="150.99899"
       y="100.666"
       width="69.759773"
       height="54.748177"
       id="rect4" />
    <linearGradient
       id="swatch34"
       inkscape:swatch="solid">
      <stop
         style="stop-color:#3a4148;stop-opacity:1;"
         offset="0"
         id="stop34" />
    </linearGradient>
    <rect
       x="0"
       y="0"
       width="306.71417"
       height="49.808281"
       id="rect30" />
    <rect
       x="126.01646"
       y="46.91124"
       width="57.949177"
       height="211.56049"
       id="rect29" />
    <linearGradient
       id="swatch33"
       inkscape:swatch="solid">
      <stop
         style="stop-color:#000000;stop-opacity:1;"
         offset="0"
         id="stop33" />
    </linearGradient>
    <linearGradient
       id="swatch32"
       inkscape:swatch="solid">
      <stop
         style="stop-color:#000000;stop-opacity:1;"
         offset="0"
         id="stop32" />
    </linearGradient>
    <linearGradient
       id="swatch31"
       inkscape:swatch="solid">
      <stop
         style="stop-color:#000000;stop-opacity:1;"
         offset="0"
         id="stop31" />
    </linearGradient>
    <linearGradient
       id="swatch30"
       inkscape:swatch="solid">
      <stop
         style="stop-color:#000000;stop-opacity:1;"
         offset="0"
         id="stop30" />
    </linearGradient>
    <linearGradient
       id="swatch29"
       inkscape:swatch="solid">
      <stop
         style="stop-color:#000000;stop-opacity:1;"
         offset="0"
         id="stop29" />
    </linearGradient>
    <linearGradient
       id="swatch26"
       inkscape:swatch="solid">
      <stop
         style="stop-color:#000000;stop-opacity:1;"
         offset="0"
         id="stop26" />
    </linearGradient>
    <linearGradient
       id="swatch25"
       inkscape:swatch="solid">
      <stop
         style="stop-color:#000000;stop-opacity:0.05940594;"
         offset="0"
         id="stop25" />
    </linearGradient>
    <linearGradient
       id="swatch24"
       inkscape:swatch="solid">
      <stop
         style="stop-color:#000000;stop-opacity:1;"
         offset="0"
         id="stop24" />
    </linearGradient>
    <linearGradient
       id="swatch23"
       inkscape:swatch="solid">
      <stop
         style="stop-color:#000000;stop-opacity:1;"
         offset="0"
         id="stop23" />
    </linearGradient>
    <linearGradient
       id="swatch22"
       inkscape:swatch="solid">
      <stop
         style="stop-color:#000000;stop-opacity:1;"
         offset="0"
         id="stop22" />
    </linearGradient>
    <linearGradient
       id="swatch18"
       inkscape:swatch="solid">
      <stop
         style="stop-color:#336c11;stop-opacity:1;"
         offset="0"
         id="stop18" />
    </linearGradient>
    <linearGradient
       id="swatch7"
       inkscape:swatch="solid">
      <stop
         style="stop-color:#b22222;stop-opacity:0.49825785;"
         offset="0"
         id="stop7" />
    </linearGradient>
    <linearGradient
       id="swatch3"
       inkscape:swatch="solid">
      <stop
         style="stop-color:#d40000;stop-opacity:1;"
         offset="0"
         id="stop3" />
    </linearGradient>
    <rect
       x="-0.91982818"
       y="0"
       width="500.38654"
       height="79.105225"
       id="rect3" />
    <rect
       x="-0.91982818"
       y="11.037938"
       width="500.38654"
       height="60.70866"
       id="rect2" />
    <rect
       x="18.182747"
       y="17.172592"
       width="102.02541"
       height="40.406101"
       id="rect1" />
    <linearGradient
       inkscape:collect="always"
       xlink:href="#swatch7"
       id="linearGradient26"
       x1="0.12917322"
       y1="232.74997"
       x2="132.20918"
       y2="232.74997"
       gradientUnits="userSpaceOnUse" />
    <linearGradient
       inkscape:collect="always"
       xlink:href="#swatch25"
       id="linearGradient27"
       gradientUnits="userSpaceOnUse"
       x1="0.12917322"
       y1="232.74997"
       x2="132.20918"
       y2="232.74997" />
    <linearGradient
       inkscape:collect="always"
       xlink:href="#swatch7"
       id="linearGradient23"
       gradientUnits="userSpaceOnUse"
       x1="0.12917322"
       y1="232.74997"
       x2="132.20918"
       y2="232.74997" />
    <linearGradient
       inkscape:collect="always"
       xlink:href="#swatch7"
       id="linearGradient24"
       gradientUnits="userSpaceOnUse"
       x1="0.12917322"
       y1="232.74997"
       x2="132.20918"
       y2="232.74997" />
  </defs>
  <sodipodi:namedview
     id="base"
     pagecolor="#ffffff"
     bordercolor="#666666"
     borderopacity="1.0"
     inkscape:pageopacity="0.0"
     inkscape:pageshadow="2"
     inkscape:zoom="2.9097536"
     inkscape:cx="75.435942"
     inkscape:cy="316.52165"
     inkscape:document-units="mm"
     inkscape:current-layer="layer2"
     showgrid="false"
     units="mm"
     inkscape:snap-bbox="true"
     inkscape:snap-page="true"
     inkscape:bbox-nodes="false"
     inkscape:snap-bbox-edge-midpoints="false"
     inkscape:window-width="1920"
     inkscape:window-height="1027"
     inkscape:window-x="0"
     inkscape:window-y="25"
     inkscape:window-maximized="1"
     inkscape:snap-bbox-midpoints="true"
     inkscape:snap-nodes="false"
     inkscape:showpageshadow="0"
     inkscape:pagecheckerboard="0"
     inkscape:deskcolor="#505050"
     showguides="false">
    <sodipodi:guide
       position="-10.848439,60.349565"
       orientation="0,-1"
       id="guide3"
       inkscape:locked="false" />
    <inkscape:grid
       id="grid3"
       units="mm"
       originx="0"
       originy="0"
       spacingx="1.0000001"
       spacingy="1.0000002"
       empcolor="#0099e5"
       empopacity="0.30196078"
       color="#0099e5"
       opacity="0.14901961"
       empspacing="5"
       enabled="true"
       visible="false" />
  </sodipodi:namedview>
  <metadata
     id="metadata5">
    <rdf:RDF>
      <cc:Work
         rdf:about="">
        <dc:format>image/svg+xml</dc:format>
        <dc:type
           rdf:resource="http://purl.org/dc/dcmitype/StillImage" />
      </cc:Work>
    </rdf:RDF>
  </metadata>
  <g
     inkscape:label="Layer 1"
     inkscape:groupmode="layer"
     id="layer1"
     transform="translate(-0.12917322,-168.49998)"
     style="display:inline;stroke:url(#linearGradient26)">
    <rect
       style="display:inline;opacity:1;fill:#d9e4f2;fill-opacity:1;fill-rule:evenodd;stroke:url(#linearGradient27);stroke-width:0;stroke-linecap:butt;stroke-linejoin:miter;stroke-miterlimit:4;stroke-dasharray:none;stroke-dashoffset:0;stroke-opacity:1;paint-order:normal"
       id="rect420"
       width="50.799999"
       height="128.5"
       x="0.12917322"
       y="168.49997"
       ry="0"
       inkscape:label="Pannello" />
    <rect
       style="display:none;fill:none;fill-opacity:1;stroke:url(#linearGradient24);stroke-width:0.264999;stroke-dasharray:none"
       id="rect7"
       width="25.135"
       height="128.235"
       x="0.26167274"
       y="168.63248"
       inkscape:label="guida_larghezza" />
    <rect
       style="display:none;fill:none;fill-opacity:1;stroke:url(#linearGradient23);stroke-width:0.264999;stroke-dasharray:none"
       id="rect7-2"
       width="50.535004"
       height="63.985001"
       x="0.26167277"
       y="232.88248"
       inkscape:label="guida_altezza" />
    <circle
       style="fill:#f8e9a8;fill-opacity:0.5;stroke:#3a4148;stroke-width:0.25;stroke-dasharray:none;stroke-opacity:1"
       id="path36"
       cx="25.529173"
       cy="226.10999"
       r="19.875" />
    <path
       d="m 81.620133,27.417909 h -3.680985 l -7.132804,-8.479157 h -3.996089 v 8.479157 H 63.97432 V 6.0911101 h 5.97265 q 1.933591,0 3.222652,0.2578122 1.289061,0.2434893 2.32031,0.8880198 1.160155,0.730468 1.804685,1.8476542 0.658854,1.1028637 0.658854,2.8072887 0,2.305987 -1.160155,3.867183 -1.160155,1.546873 -3.194007,2.334633 z M 74.988631,12.092405 q 0,-0.916665 -0.329427,-1.618487 Q 74.3441,9.7577726 73.599309,9.270794 72.983425,8.8554299 72.138373,8.697878 71.293322,8.5260032 70.14749,8.5260032 h -3.337235 v 8.0494698 h 2.86458 q 1.346352,0 2.348955,-0.229166 1.002603,-0.24349 1.704425,-0.88802 0.644531,-0.601562 0.945312,-1.374999 0.315104,-0.787759 0.315104,-1.990883 z m 16.901021,15.325504 h -8.421865 v -2.177081 h 2.792965 V 8.268191 H 83.467787 V 6.0911101 h 8.421865 V 8.268191 h -2.792965 v 16.972637 h 2.792965 z m 20.410138,0 H 95.656575 V 24.782495 L 108.73338,8.6119406 H 96.143554 V 6.0911101 H 111.98468 V 8.6549093 L 98.778967,24.897078 h 13.520823 z m 18.00388,0 H 116.8115 V 6.0911101 h 2.83594 V 24.897078 h 10.65623 z"
       id="text1"
       style="font-size:29.3333px;text-align:center;text-anchor:middle;white-space:pre;fill:#3a4148;stroke:#3a4148;stroke-width:0.755906"
       transform="matrix(0.26458333,0,0,0.26458333,0.55263458,169.55832)"
       aria-label="RIZL" />
  </g>
  <g
     inkscape:groupmode="layer"
     id="layer2"
     inkscape:label="components"
     style="display:none"
     transform="translate(-0.12917322)">
    <circle
       style="display:inline;vector-effect:none;fill:#0000ff;fill-opacity:1;fill-rule:evenodd;stroke:none;stroke-width:1;stroke-linecap:butt;stroke-linejoin:miter;stroke-miterlimit:4;stroke-dasharray:none;stroke-dashoffset:0;stroke-opacity:1;paint-order:normal"
       id="circle11"
       cx="38.229172"
       cy="118"
       r="4"
       inkscape:label="out_HP" />
    <circle
       style="display:inline;vector-effect:none;fill:#0000ff;fill-opacity:1;fill-rule:evenodd;stroke:none;stroke-width:1;stroke-linecap:butt;stroke-linejoin:miter;stroke-miterlimit:4;stroke-dasharray:none;stroke-dashoffset:0;stroke-opacity:1;paint-order:normal"
       id="circle10"
       cx="25.529173"
       cy="118"
       r="4"
       inkscape:label="out_BP" />
    <circle
       style="display:inline;vector-effect:none;fill:#0000ff;fill-opacity:1;fill-rule:evenodd;stroke:none;stroke-width:1;stroke-linecap:butt;stroke-linejoin:miter;stroke-miterlimit:4;stroke-dasharray:none;stroke-dashoffset:0;stroke-opacity:1;paint-order:normal"
       id="circle3"
       cx="12.829173"
       cy="118"
       r="4"
       inkscape:label="out_LP" />
    <circle
       style="display:inline;vector-effect:none;fill:#0000ff;fill-opacity:1;fill-rule:evenodd;stroke:none;stroke-width:1;stroke-linecap:butt;stroke-linejoin:miter;stroke-miterlimit:4;stroke-dasharray:none;stroke-dashoffset:0;stroke-opacity:1;paint-order:normal"
       id="circle4958-7"
       cx="38.229172"
       cy="106"
       r="4"
       inkscape:label="out_VCA" />
    <circle
       style="display:inline;vector-effect:none;fill:#ff0000;fill-opacity:1;fill-rule:evenodd;stroke:none;stroke-width:1;stroke-linecap:butt;stroke-linejoin:miter;stroke-miterlimit:4;stroke-dasharray:none;stroke-dashoffset:0;stroke-opacity:1;paint-order:normal"
       id="circle8"
       cx="25.529173"
       cy="106"
       r="4"
       inkscape:label="pot_MIX" />
    <circle
       style="display:inline;vector-effect:none;fill:#00ff00;fill-opacity:1;fill-rule:evenodd;stroke:none;stroke-width:1;stroke-linecap:butt;stroke-linejoin:miter;stroke-miterlimit:4;stroke-dasharray:none;stroke-dashoffset:0;stroke-opacity:1;paint-order:normal"
       id="circle2"
       cx="12.829173"
       cy="106"
       r="4"
       inkscape:label="in_VCA" />
    <circle
       style="display:inline;vector-effect:none;fill:#00ff00;fill-opacity:1;fill-rule:evenodd;stroke:none;stroke-width:1;stroke-linecap:butt;stroke-linejoin:miter;stroke-miterlimit:4;stroke-dasharray:none;stroke-dashoffset:0;stroke-opacity:1;paint-order:normal"
       id="circle2-3"
       cx="8.5961733"
       cy="82"
       r="4"
       inkscape:label="in_MAIN" />
    <circle
       style="display:inline;vector-effect:none;fill:#00ff00;fill-opacity:1;fill-rule:evenodd;stroke:none;stroke-width:1;stroke-linecap:butt;stroke-linejoin:miter;stroke-miterlimit:4;stroke-dasharray:none;stroke-dashoffset:0;stroke-opacity:1;paint-order:normal"
       id="circle1"
       cx="25.529173"
       cy="94"
       r="4"
       inkscape:label="cv_MIX" />
    <circle
       style="display:inline;vector-effect:none;fill:#00ff00;fill-opacity:1;fill-rule:evenodd;stroke:none;stroke-width:1;stroke-linecap:butt;stroke-linejoin:miter;stroke-miterlimit:4;stroke-dasharray:none;stroke-dashoffset:0;stroke-opacity:1;paint-order:normal"
       id="circle1-9"
       cx="38.229172"
       cy="94"
       r="4"
       inkscape:label="cv_FM" />
    <circle
       style="display:inline;vector-effect:none;fill:#ff0000;fill-opacity:1;fill-rule:evenodd;stroke:none;stroke-width:1;stroke-linecap:butt;stroke-linejoin:miter;stroke-miterlimit:4;stroke-dasharray:none;stroke-dashoffset:0;stroke-opacity:1;paint-order:normal"
       id="circle13-7-0-1"
       cx="31.539173"
       cy="38.5"
       r="4"
       inkscape:label="pot_reso" />
    <circle
       style="display:inline;vector-effect:none;fill:#ff0000;fill-opacity:1;fill-rule:evenodd;stroke:none;stroke-width:1;stroke-linecap:butt;stroke-linejoin:miter;stroke-miterlimit:4;stroke-dasharray:none;stroke-dashoffset:0;stroke-opacity:1;paint-order:normal"
       id="circle13-7-0-1-1"
       cx="25.529173"
       cy="57.610001"
       r="4"
       inkscape:label="Delta" />
    <circle
       style="display:inline;vector-effect:none;fill:#ff0000;fill-opacity:1;fill-rule:evenodd;stroke:none;stroke-width:1;stroke-linecap:butt;stroke-linejoin:miter;stroke-miterlimit:4;stroke-dasharray:none;stroke-dashoffset:0;stroke-opacity:1;paint-order:normal"
       id="circle13-7"
       cx="8.5961733"
       cy="48.24929"
       r="4"
       inkscape:label="pot_freq" />
    <circle
       style="display:inline;vector-effect:none;fill:#ff0000;fill-opacity:1;fill-rule:evenodd;stroke:none;stroke-width:1;stroke-linecap:butt;stroke-linejoin:miter;stroke-miterlimit:4;stroke-dasharray:none;stroke-dashoffset:0;stroke-opacity:1;paint-order:normal"
       id="circle13-7-0"
       cx="42.459175"
       cy="67.8451"
       r="4"
       inkscape:label="pot_FM" />
    <circle
       style="display:inline;vector-effect:none;fill:#00ff00;fill-opacity:1;fill-rule:evenodd;stroke:none;stroke-width:1;stroke-linecap:butt;stroke-linejoin:miter;stroke-miterlimit:4;stroke-dasharray:none;stroke-dashoffset:0;stroke-opacity:1;paint-order:normal"
       id="circle12"
       cx="42.462173"
       cy="22"
       r="4"
       inkscape:label="in_FM" />
    <circle
       style="display:inline;vector-effect:none;fill:#00ff00;fill-opacity:1;fill-rule:evenodd;stroke:none;stroke-width:1;stroke-linecap:butt;stroke-linejoin:miter;stroke-miterlimit:4;stroke-dasharray:none;stroke-dashoffset:0;stroke-opacity:1;paint-order:normal"
       id="circle9-7"
       cx="31.539505"
       cy="22"
       r="4"
       inkscape:label="cv_reso" />
    <circle
       style="display:inline;vector-effect:none;fill:#00ff00;fill-opacity:1;fill-rule:evenodd;stroke:none;stroke-width:1;stroke-linecap:butt;stroke-linejoin:miter;stroke-miterlimit:4;stroke-dasharray:none;stroke-dashoffset:0;stroke-opacity:1;paint-order:normal"
       id="circle9"
       cx="19.304173"
       cy="22"
       r="4"
       inkscape:label="cv_delta" />
    <circle
       style="display:inline;vector-effect:none;fill:#00ff00;fill-opacity:1;fill-rule:evenodd;stroke:none;stroke-width:1;stroke-linecap:butt;stroke-linejoin:miter;stroke-miterlimit:4;stroke-dasharray:none;stroke-dashoffset:0;stroke-opacity:1;paint-order:normal"
       id="circle13"
       cx="8.5961733"
       cy="22"
       r="4"
       inkscape:label="cv_freq" />
  </g>
  <g
     inkscape:groupmode="layer"
     id="layer3"
     inkscape:label="Scritte">
    <path
       style="display:inline;fill:#c2e1c0;fill-opacity:0.698039;stroke:#3a4148;stroke-width:0.2"
       d="m 36.410165,90.475159 c -0.121237,-0.09093 -0.272788,-0.394031 -0.363717,-0.272791 -0.09093,0.12124 0.470881,0.379952 0.363717,0.272791 -0.242477,-0.21217 -0.484957,-0.424339 -0.727437,-0.636508 -0.03031,0 -0.0695,0.02143 -0.09093,0 -0.04792,-0.04792 -0.05333,-0.125468 -0.09093,-0.181862 -0.269648,-0.404468 -0.874813,-0.658466 -1.091158,-1.091157 -0.02684,-0.05369 -0.151696,-0.333555 -0.181861,-0.363718 -0.02143,-0.02143 -0.0695,0.02143 -0.09093,0 -0.02143,-0.02143 0,-0.06062 0,-0.09093 -0.06062,-0.06062 -0.114917,-0.128304 -0.181859,-0.181858 -0.370771,-0.296617 -0.720389,-0.612683 -1.091158,-0.909299 -0.327398,-0.261919 -0.530124,-0.719712 -0.909298,-0.909296 -0.547169,-0.273588 -1.024017,-0.7433 -1.545807,-1.091158 -0.180137,0.0091 -0.04301,-0.133937 -0.09093,-0.181861 -0.0358,-0.0358 -0.309618,-0.1494 -0.36372,-0.181859 -0.313687,-0.188214 -0.611465,-0.487593 -0.909296,-0.636508 -0.378428,-0.189214 0.0972,0.0063 -0.09093,-0.181861 -0.04286,-0.04287 -0.138994,0.04286 -0.181859,0 -0.02143,-0.02143 0.02143,-0.0695 0,-0.09093 -0.04547,-0.04546 -0.136395,-0.04546 -0.181858,-0.09093 -0.05587,-0.05586 -0.06007,-0.211897 -0.181862,-0.272791 -0.02711,-0.01355 -0.06949,0.02143 -0.09093,0 -0.04036,-0.04036 -0.24914,-0.430998 -0.272788,-0.454647 -0.04286,-0.04287 -0.138996,0.04286 -0.181862,0 -0.363717,-0.36372 0.394031,0.151548 -0.09093,-0.09093 -0.03834,-0.01918 -0.09093,-0.04806 -0.09093,-0.09093 0,-0.03031 0.0695,0.02143 0.09093,0 0.04287,-0.04286 0,-0.12124 0,-0.181859 0,-0.376907 0.09093,-0.707374 0.09093,-1.091157 0,-0.332679 0.22237,-2.828735 0.09093,-3.091614 -0.106698,-0.213395 -0.181861,-0.564743 -0.181861,-0.81837 0,-0.09585 -0.02315,-0.340563 -0.09093,-0.272788 -0.158248,0.158245 1.348205,0.112263 1.454877,0.09093 0.16087,-0.03217 0.813192,-0.267613 0.909297,-0.36372 0.06001,-0.06 0.12846,-0.291553 0.27279,-0.363718 0.05511,-0.02756 0.234686,-0.05283 0.272791,-0.09093 0.02143,-0.02143 -0.02143,-0.0695 0,-0.09093 0.03832,-0.03832 0.483272,-0.07016 0.545579,-0.09093 0.04066,-0.01355 0.05259,-0.07176 0.09093,-0.09093 0.169394,-0.0847 0.382699,-0.10042 0.545579,-0.181859 0.08133,-0.04067 0.186526,0.02876 0.272788,0 0.116649,-0.03888 0.24707,-0.142978 0.36372,-0.181861 0.05751,-0.01918 0.124351,0.01918 0.181859,0 0.04067,-0.01355 0.06062,-0.06062 0.09093,-0.09093 0.06062,-0.03031 0.11611,-0.07449 0.181861,-0.09093 0.659858,-0.164965 1.288021,-0.325757 1.909525,-0.636508 0.08573,-0.04286 0.19304,-0.03776 0.27279,-0.09093 0.360987,-0.240657 0.729147,-0.4861 1.091158,-0.72744 0.100311,-0.06687 0.165367,-0.219078 0.272788,-0.272788 0.02711,-0.01355 0.0695,0.02143 0.09093,0 0.02143,-0.02143 -0.02143,-0.0695 0,-0.09093 0.02143,-0.02143 0.06382,0.01355 0.09093,0 0.07668,-0.03834 0.10518,-0.14352 0.181859,-0.181861 0.228899,-0.114448 1.360988,-0.630589 1.454878,-0.818367 0.06956,-0.13912 -0.04274,-0.267329 -0.09093,-0.36372 -0.07937,-0.15875 0.157755,-0.205965 0.09093,-0.272791 -0.02143,-0.02143 -0.06382,0.01355 -0.09093,0 -0.212198,-0.106097 -0.454649,-0.09956 -0.454649,-0.363717 0,-0.03031 -0.02143,-0.0695 0,-0.09093 0.0414,-0.0414 0.320902,0.160451 0.36372,0.181858 0.23921,0.119605 0.941628,1.000229 1.091157,1.000229 0.0067,0 -0.0083,-0.256106 0,-0.272791 0.09194,-0.18388 0.183116,-0.366231 0.272789,-0.545579 0.03834,-0.07668 0.14352,-0.10518 0.181861,-0.181859 0.01355,-0.02711 -0.02143,-0.0695 0,-0.09093 0.02143,-0.02143 0.06949,0.02143 0.09093,0 0.02143,-0.02143 -0.02143,-0.0695 0,-0.09093 0.02143,-0.02143 0.0695,0.02143 0.09093,0 0.04287,-0.04286 -0.04287,-0.138996 0,-0.181862 0.02143,-0.02143 0.0695,0.02143 0.09093,0 0.07037,-0.07037 0.183234,-0.363717 0,-0.363717 -0.158986,0 -0.400331,0.133443 -0.545579,0.181859 -0.305549,0.101848 -0.699868,-0.0092 -1.000228,0.09093 -0.04066,0.01355 -0.05027,0.07738 -0.09093,0.09093 -0.05923,0.01974 -0.403736,-0.05091 -0.45465,0 -0.04286,0.04287 -0.04286,0.138997 0,0.181862 0.02143,0.02143 0.0695,-0.02143 0.09093,0 0.02143,0.02143 -0.02143,0.0695 0,0.09093 0.02143,0.02143 0.06382,-0.01355 0.09093,0 0.181861,0.09093 0.272791,0.363717 0.454649,0.454649 0.05369,0.02684 0.333558,0.151697 0.36372,0.181859 0.02143,0.02143 -0.02143,0.0695 0,0.09093 0.02143,0.02143 0.0695,-0.02143 0.09093,0 0.02143,0.02143 -0.01355,0.06382 0,0.09093 0.03834,0.07668 0.14352,0.105182 0.181858,0.181861 0.05284,0.105664 0.357291,0.824796 0.45465,0.727438 0.141835,-0.141833 0.0489,-0.46151 0.09093,-0.545579 0.01918,-0.03834 0.07737,-0.05027 0.09093,-0.09093 0.02911,-0.08732 -0.04363,-0.27645 0,-0.36372 0.01918,-0.03834 0.07176,-0.05259 0.09093,-0.09093 0.04066,-0.08133 -0.02875,-0.186526 0,-0.272791 0.01355,-0.04066 0.07737,-0.05026 0.09093,-0.09093 0.03834,-0.115017 -0.02941,-0.246099 0,-0.363717 0.0302,-0.120785 0.159792,-0.36372 0.09093,-0.36372 -0.173064,0 -1.495475,1.536075 -1.636736,1.818595 -0.189214,0.378428 0.0063,-0.09721 -0.181859,0.09093 -0.02143,0.02143 0.02143,0.06949 0,0.09093 -0.03811,0.0381 -0.21768,0.06338 -0.27279,0.09093 -0.156814,0.07841 -0.283261,0.306589 -0.45465,0.36372 -0.08183,0.02728 -0.190952,-0.02728 -0.272788,0 -0.02801,0.0093 -0.335706,0.08159 -0.36372,0.09093 -0.04066,0.01355 -0.05027,0.07738 -0.09093,0.09093 -0.196334,0.06544 -0.24274,-0.01503 -0.45465,0.09093 -0.08133,0.04067 -0.186526,-0.02875 -0.272788,0 -0.09419,0.0314 -0.182581,0.136756 -0.27279,0.181859 -0.09324,0.04662 -0.270473,0.04431 -0.363721,0.09093 -0.339074,0.169537 -0.682558,0.424728 -1.000225,0.636508 -0.202152,0.134768 -0.329308,0.437444 -0.545579,0.545579 -0.02711,0.01355 -0.0695,-0.02143 -0.09093,0 -0.02143,0.02143 0.02143,0.0695 0,0.09093 -0.04286,0.04287 -0.127637,-0.02711 -0.181859,0 -0.50701,0.253506 -1.048559,0.518875 -1.636736,0.636509 -0.392462,0.07849 -0.821872,0.06179 -1.182087,0.181861 -0.142991,0.04766 -0.309491,0.224401 -0.454649,0.272788 -0.08626,0.02876 -0.191461,-0.04066 -0.272791,0 -0.174733,0.08737 -0.279916,0.276352 -0.454649,0.36372 -0.05422,0.02711 -0.127638,-0.02711 -0.181859,0 -0.229325,0.114662 -0.251124,0.261956 -0.454649,0.363717 -0.175247,0.08763 -0.457224,0.0013 -0.636508,0.09093 -0.12531,0.06265 -0.122325,0.213255 -0.181859,0.272788 -0.09093,0.09093 -0.45465,-0.09093 -0.545579,0 -0.08729,0.08729 0.0574,0.430779 0,0.545579 -0.06631,0.132615 -0.145463,0.145463 -0.181861,0.181859 -0.02143,0.02143 0.02143,0.0695 0,0.09093 -0.02143,0.02143 -0.0695,-0.02143 -0.09093,0 -0.09563,0.09563 0.09093,1.074928 0.09093,1.182087 0,0.181859 0,0.36372 0,0.545579 0,0.09093 -0.09093,0.272788 0,0.272788 0.03031,0 0.03031,-0.09093 0,-0.09093 -0.06062,0 0,0.12124 0,0.181862 0,0.03744 -0.02408,0.248719 0,0.272788 0.02143,0.02143 0.0695,-0.02143 0.09093,0 0.07578,0.07577 -0.07577,0.378875 0,0.454649 0.02143,0.02143 0.0695,-0.02143 0.09093,0 0.02408,0.02408 0,0.235347 0,0.272788 0,0.128432 0.05606,0.657704 0.09093,0.72744 0.182288,0.364575 0.325578,0.208254 0.636509,0.36372 0.07274,0.03637 0.200046,-0.03637 0.27279,0 0.121785,0.06089 0.125995,0.216924 0.181859,0.272788 0.04546,0.04547 0.136395,0.04547 0.181859,0.09093 0.03811,0.03811 0.06338,0.21768 0.09093,0.27279 0.189214,0.378429 -0.0063,-0.09721 0.181861,0.09093 0.02143,0.02143 -0.02143,0.0695 0,0.09093 0.04203,0.04203 0.217887,-0.02745 0.272788,0 0.134245,0.06712 0.381215,0.393454 0.45465,0.45465 0.225184,0.187653 0.493829,0.370371 0.72744,0.545578 0.108439,0.08133 0.250933,0.10667 0.363717,0.181859 0.07133,0.04756 0.105183,0.143521 0.181862,0.181861 0.05422,0.02711 0.138993,-0.04286 0.181858,0 0.04792,0.04792 0.05333,0.125466 0.09093,0.181859 0.177247,0.265872 0.49879,0.49879 0.727437,0.727438 0.106701,0.106701 0.388583,0.231587 0.45465,0.36372 0.01355,0.02711 -0.02143,0.0695 0,0.09093 0.02143,0.02143 0.0695,-0.02143 0.09093,0 0.02143,0.02143 -0.02143,0.0695 0,0.09093 0.04793,0.04793 0.128937,0.04859 0.181861,0.09093 0.295069,0.236054 0.662779,0.740572 1.000229,0.909297 0.02711,0.01355 0.06949,-0.02143 0.09093,0 0.02143,0.02143 -0.0168,0.06571 0,0.09093 0.09734,0.146013 0.343112,0.524973 0.454649,0.636511 0.0557,0.0557 0.237972,0.07741 0.272788,0.181858 0.01918,0.05751 -0.02711,0.127641 0,0.181859 0.01146,0.02291 0.144159,0.07208 0.181862,0.09093 0.378428,0.189214 -0.09721,-0.0063 0.09093,0.181859 0.04546,0.04546 0.136395,0.04546 0.181859,0.09093 0.02143,0.02143 -0.02143,0.0695 0,0.09093 0.03031,0.03031 0.24248,0.06062 0.27279,0.09093 0.02143,0.02143 -0.02143,0.0695 0,0.09093 0.02143,0.02143 0.0695,-0.02143 0.09093,0 0.04546,0.04546 0.04546,0.136393 0.09093,0.181859 0.04547,0.04547 0.136396,0.04547 0.181859,0.09093 0.02143,0.02143 -0.01355,0.06382 0,0.09093 0.03834,0.07668 0.130424,0.113276 0.181861,0.181862 0.15644,0.208586 0.303099,0.424338 0.454647,0.636508 z"
       id="path34"
       transform="translate(-0.12917322)" />
    <path
       style="fill:#c2e1c0;fill-opacity:0.69803923;stroke:#3a4148;stroke-width:0.2"
       d="m 8.1925217,26.625695 c 0,1.331286 0,2.662571 0,3.993854 0,0.64924 -0.1198472,2.063334 0,2.662571 0.053049,0.265242 0.2424951,0.743886 0.1024065,1.024064 -0.1867546,0.37351 -0.3147777,1.109282 -0.4096261,1.5361 -0.035646,0.160406 -0.067032,2.051846 0,2.252942 0.2349818,0.704946 0.1791843,1.843427 0,2.560164 -0.014687,0.05874 0.052027,0.460005 0,0.512033 -0.076289,0.07629 -0.5157758,-0.03289 -0.6144389,0 -0.3196437,0.106547 0.034135,0.06827 -0.1024068,0.204811 -0.024138,0.02413 -0.1024064,-0.03413 -0.1024064,0 0,0.102407 0.2048132,0 0.3072196,0 0.092104,0 1.3036629,-0.07478 1.1264717,0.102407 -0.1084035,0.108405 -1.7409109,-0.04084 -1.7409109,0.204814 0,0.130688 0.7072876,1.107355 0.8192521,1.331285 0.2730841,0.546166 -0.3072193,-0.307221 0.1024067,0.102405 0.024138,0.02413 -0.034136,0.102407 0,0.102407 0.034135,0 -0.024138,-0.07827 0,-0.102407 0.4096261,-0.409626 -0.1706777,0.443761 0.1024065,-0.102405 0.052169,-0.104341 0.2241348,-0.224136 0.3072196,-0.307221 0.1143571,-0.114358 0.3379001,-0.266173 0.409626,-0.409625 0.015266,-0.03053 -0.024138,-0.07827 0,-0.102407 0.024138,-0.02413 0.078269,0.02413 0.1024065,0 0.051306,-0.0513 0.035271,-0.34249 0.1024064,-0.409625 0.024138,-0.02413 0.1024067,0.03413 0.1024067,0 0,-0.06827 -0.1437497,0.03053 -0.2048131,0 -0.1610905,-0.08055 -0.1161042,-0.102407 -0.3072196,-0.102407 -0.2828888,0 -0.5120325,-0.550442 -0.5120325,-0.102407 0,0.204814 0,0.409625 0,0.614439 0,0.06827 -0.068271,0.204814 0,0.204814 0.034135,0 0,-0.06827 0,-0.102407 0,-0.136544 0,-0.273084 0,-0.409628 0,-0.368731 -0.1078021,-1.315095 0,-1.638504 0.076808,-0.230425 0.039884,-0.426868 0.1024064,-0.614439 0.015267,-0.0458 0.087141,-0.05661 0.1024065,-0.102407 0.081937,-0.245808 -0.063031,-0.567126 0,-0.81925 0.08136,-0.32544 0.1995593,-0.598678 0.3072196,-0.92166 0.053426,-0.160277 -0.074757,-1.685611 -0.1024065,-1.740911 -0.02159,-0.04318 -0.080817,-0.05923 -0.1024064,-0.102407 -0.081925,-0.163849 0.081925,-0.450588 0,-0.614437 C 7.927736,35.005491 8.0749388,34.685459 7.9877086,34.510998 7.8362211,34.208024 7.9640971,33.95174 7.8853021,33.794152 7.7474648,33.518477 7.7828957,33.203033 7.7828957,32.872494 c 0,-0.435718 -0.08121,-0.964054 0.1024064,-1.331285 0.1710174,-0.342035 -0.1312841,-1.244653 0,-1.638504 0.015267,-0.0458 0.080818,-0.05923 0.1024065,-0.102407 0.055022,-0.110045 -0.039494,-0.291145 0,-0.409625 0.3642547,-1.092766 0.3755985,-1.569479 0.2048131,-2.764978 z"
       id="path6" />
    <path
       style="fill:#c2e1c0;fill-opacity:0.698039;stroke:#3a4148;stroke-width:0.2"
       d="m 18.945207,26.625695 c 0,0.136544 -0.136542,0.409625 0,0.409625 0.136541,0 0,-0.546166 0,-0.409625 0,0.409625 0,0.819253 0,1.228879 0,0.98993 0,1.979858 0,2.969789 0,0.532082 -0.120384,1.566595 0,2.048131 0.10016,0.40064 0.237726,0.811917 0.307219,1.228879 0.04914,0.294867 0.05438,3.270649 0,3.379414 -0.08618,0.172368 -0.102406,0.199038 -0.102406,0.409625 0,0.0625 0.0399,0.369727 0,0.409628 -0.01024,0.01024 -0.228708,0.07851 -0.102407,0.204812 0.02414,0.02413 0.07827,-0.02413 0.102407,0 0.04827,0.04828 -0.03053,0.14375 0,0.204814 0.360557,0.721114 0.03242,0.194532 0.204813,1.228878 0.06435,0.386101 0.130295,0.260591 0.307219,0.614439 0.09862,0.197245 0.139191,0.519978 0.204813,0.716847 0.182387,0.547158 0.399985,1.102367 0.614439,1.638503 0.08327,0.208169 0.08473,0.331912 0.204813,0.512032 0.101001,0.151501 0.328563,0.2475 0.409627,0.409626 0.03053,0.06106 -0.04828,0.156538 0,0.204814 0.02414,0.02413 0.08714,-0.03053 0.102406,0 0.102406,0.204814 -0.0512,0.153609 0,0.307218 0.08475,0.254265 0.252666,0.444082 0.30722,0.716846 0.01339,0.06694 -0.02159,0.140047 0,0.204814 0.01527,0.0458 0.08714,0.05661 0.102406,0.102407 0.03379,0.101357 0.02237,0.329592 0.102406,0.409625 0.02414,0.02413 0.07827,-0.02413 0.102407,0 0.03414,0.03414 0.06827,0.273085 0.102407,0.307219 0.02414,0.02413 0.07827,-0.02413 0.102406,0 0.0731,0.0731 -0.03458,0.408289 0,0.512035 0.08496,0.254878 0.09466,0.49654 0.204813,0.716843 0.160696,0.321392 -0.225658,0.123251 -0.307219,0.204814 -0.0512,0.0512 -0.0512,0.153609 -0.102407,0.204814 -0.0388,0.0388 -0.307219,0.03324 -0.307219,0.102404 0,0.0026 0.427495,-0.27904 0.512032,-0.307218 0.06477,-0.02159 0.138581,0.01656 0.204813,0 0.19256,-0.04814 0.227428,-0.204814 0.409626,-0.204814 0.102407,0 0.30722,0.102407 0.30722,0 0,-0.09093 -1.678066,0.181531 -1.843317,0.512032 -0.01527,0.03053 -0.02414,0.07827 0,0.102407 0.05418,0.05418 0.441472,0.08477 0.512032,0.102407 0.142606,0.03565 0.391023,0.226547 0.512033,0.307221 0.225782,0.150522 0.500251,0.693283 0.614439,0.921658 0.213095,0.426191 -0.0071,-0.109477 0.204813,0.102407 0.0612,0.0612 -0.110689,0.204814 0.102406,0.204814 0.102407,0 0,-0.204814 0,-0.307221 0,-0.09087 0.0464,-0.41923 0,-0.512032 -0.156866,-0.313733 -0.204813,-0.304023 -0.204813,-0.716847 0,-0.252685 -0.04796,-0.716846 -0.102406,-0.716846 -0.213096,0 -0.04121,0.143613 -0.102407,0.204814 -0.04828,0.04828 -0.156538,-0.04828 -0.204813,0 -0.132139,0.132138 0.254299,0.611005 0.30722,0.716846 0.03053,0.06106 -0.06827,0.204812 0,0.204812 0.162781,0 -0.15419,-0.30838 -0.204813,-0.409626 -0.184043,-0.368085 -0.418051,-0.733695 -0.614439,-1.126471 -0.06827,-0.136541 -0.09687,-0.301681 -0.204814,-0.409625 -0.02414,-0.02413 -0.07827,0.02413 -0.102406,0 -0.04828,-0.04828 0.04828,-0.156539 0,-0.204814 -0.02414,-0.02413 -0.07827,0.02413 -0.102406,0 -0.04828,-0.04828 0.03053,-0.143751 0,-0.204814 -0.111164,-0.222327 -0.222494,-0.462669 -0.30722,-0.716844 -0.02159,-0.06477 0.03053,-0.143751 0,-0.204814 -0.121098,-0.242194 -0.120757,-0.36227 -0.204813,-0.614439 -0.01527,-0.0458 -0.06827,-0.06827 -0.102407,-0.102407 -0.03413,-0.06827 -0.08389,-0.130762 -0.102406,-0.204811 -0.108273,-0.433094 -0.305052,-0.814917 -0.512033,-1.228879 -0.106136,-0.212272 -0.211572,-0.423145 -0.307219,-0.614439 -0.150196,-0.300395 0.150196,-0.826079 0,-1.126471 -0.149389,-0.298779 -0.09363,-0.690505 -0.204813,-1.024068 -0.03536,-0.106074 -0.154016,-0.205623 -0.204813,-0.307218 -0.03767,-0.07534 -0.06951,-0.376727 -0.102407,-0.409628 -0.02414,-0.02413 -0.07827,0.02413 -0.102406,0 -0.0329,-0.0329 -0.06474,-0.334282 -0.102407,-0.409625 -0.07811,-0.156215 -0.230855,-0.256897 -0.307219,-0.409625 -0.111204,-0.222409 0.28378,-1.890197 0.102406,-2.252943 -0.261361,-0.522724 -0.0038,-1.251958 -0.102406,-1.843318 -0.0105,-0.06299 -0.197692,-1.024067 -0.204814,-1.024067 -0.03414,0 0,0.136543 0,0.102407 0,-0.416018 0.107796,-1.827152 0,-2.150536 -0.01527,-0.0458 -0.08714,-0.05661 -0.102406,-0.102407 -0.0561,-0.168315 0.07952,-0.455406 0,-0.614439 -0.143226,-0.286454 -0.211725,-1.003329 -0.102407,-1.331286 0.145054,-0.43516 0.215878,-0.84138 0.409627,-1.228878 0.126728,-0.253458 0,-1.465371 0,-1.638504 z"
       id="path8" />
    <path
       style="fill:#c2e1c0;fill-opacity:0.698039;stroke:#3a4148;stroke-width:0.2"
       d="m 31.438802,26.523288 c 0,0.614439 0,1.228879 0,1.843318 0,0.750983 0,1.501963 0,2.252943 0,0.341357 0,0.682712 0,1.024067 0,0.102407 -0.102407,0.307218 0,0.307218 0.136541,0 -0.102407,-0.238948 -0.102407,-0.102407 0,0.03414 0.06827,0 0.102407,0 0.102407,0 0.204814,0 0.307221,0 0.102404,0 0.307218,0.102407 0.307218,0 0,-0.102404 -0.204814,0 -0.307218,0 -0.06387,0 -0.562279,-0.05216 -0.614439,0 -0.08172,0.08172 0.320505,0.948235 0.409625,1.126472 0.02167,0.04335 0.04991,0.871749 0.204814,0.716846 0.06828,-0.06828 -0.06828,-0.136533 0,-0.204811 0.02413,-0.02413 0.07827,0.02413 0.102404,0 0.02413,-0.02413 -0.01527,-0.07188 0,-0.102407 0.04318,-0.08636 0.174281,-0.113218 0.204814,-0.204814 0.02159,-0.06477 -0.02159,-0.140044 0,-0.204814 0.04071,-0.122127 0.249656,-0.294497 0.307221,-0.409626 0.05888,-0.117763 0.688409,-0.67986 0.614437,-0.716846 -0.151911,-0.07595 -0.911313,0.09206 -0.921658,0.102407 -0.06184,0.06184 0,0.517324 0,0.614439 0,0.102407 -0.102407,0.307221 0,0.307221 0.03414,0 0,-0.06827 0,-0.102407 0,-0.09709 0.04252,-0.32458 0,-0.409625 -0.105968,-0.211936 -0.102407,-0.355587 -0.102407,-0.614439 0,-0.04217 0.02711,-0.280114 0,-0.307221 -0.02413,-0.02413 -0.07827,0.02413 -0.102407,0 -0.06496,-0.06496 0.04263,-0.324363 0,-0.409625 -0.126542,-0.25309 -0.102404,0.03535 -0.102404,-0.204814 0,-0.33628 -0.09796,-0.601089 -0.204814,-0.921658 -0.105116,-0.315349 0,-1.459944 0,-1.843317 0,-0.08019 0.0511,-0.460936 0,-0.512033 -0.02413,-0.02413 -0.07827,0.02413 -0.102407,0 -0.04828,-0.04828 0.03053,-0.14375 0,-0.204814 -0.02159,-0.04318 -0.102407,-0.05413 -0.102407,-0.102407 0,-0.241374 0.06827,-0.477895 0.102407,-0.716846 z"
       id="path9" />
    <path
       style="fill:#c2e1c0;fill-opacity:0.698039;stroke:#3a4148;stroke-width:0.2"
       d="m 11.367124,78.545803 c 0.306133,-0.425964 0.732892,-0.626475 1.126472,-0.92166 0.215123,-0.161343 0.271004,-0.304099 0.409626,-0.512033 0.0933,-0.139954 0.190883,-0.146645 0.307219,-0.204814 0.426192,-0.213095 -0.109476,0.0071 0.102407,-0.204811 0.02414,-0.02413 0.07187,0.01527 0.102406,0 0.120229,-0.06012 0.169768,-0.23713 0.204813,-0.307221 0.04318,-0.08635 0.204813,-0.108262 0.204813,-0.204811 0,-0.0024 -0.701014,0.004 -0.716845,0 -0.162629,-0.04066 -0.409626,-0.276701 -0.409626,-0.204814 0,0.2735 0.877607,0.607002 1.024065,0.716846 0.189558,0.142169 0.40102,0.405323 0.614439,0.512032 0.06106,0.03053 0.156538,-0.04828 0.204813,0 0.02414,0.02413 -0.03414,0.102407 0,0.102407 0.06827,0 0,-0.136543 0,-0.204814 0,-0.273084 0,-0.546168 0,-0.81925 0,-0.376915 0.102406,-0.586849 0.102406,-0.92166 0,-0.105418 0.17871,-0.128511 0.102407,-0.204814 -0.02414,-0.02413 -0.06827,0 -0.102407,0 -0.06827,0 -0.143749,-0.03053 -0.204812,0 -0.08636,0.04318 -0.124479,0.151257 -0.204814,0.204814 -0.21611,0.144073 -0.385708,0.147629 -0.614439,0.204814 -0.2037,0.05092 -0.819252,0.479327 -0.819252,0.512032 0,0.01183 0.428359,0.121139 0.512033,0.204814 0.05935,0.05935 0.145458,0.350271 0.204813,0.409625 0.153841,0.153839 0.265329,-0.530659 0.307219,-0.614439 0.04789,-0.09577 0.446728,-0.629772 0.512033,-0.716846 0.165566,-0.220755 0.407789,-0.202975 0.512033,-0.307219 0.02414,-0.02413 -0.02414,-0.07827 0,-0.102407 0.02414,-0.02413 0.102406,0.03413 0.102406,0 0,-0.06527 -0.241861,0.111144 -0.30722,0.307219 -0.08632,0.258977 -0.303946,0.611166 -0.512032,0.819253 -0.199979,0.199977 -0.260593,0.288483 -0.409626,0.512032 -0.03414,0.03414 -0.06827,0.06827 -0.102407,0.102407 -0.03414,0 -0.07827,-0.02413 -0.102406,0 -0.05397,0.05397 -0.06007,0.141303 -0.102407,0.204811 -0.0988,0.148204 -0.284599,0.182195 -0.409626,0.307221 -0.285301,0.285301 -0.584098,0.710684 -0.921658,0.921658 -0.233377,0.145862 -0.477898,0.273084 -0.716846,0.409628 z"
       id="path11" />
    <path
       style="fill:#c2e1c0;fill-opacity:0.698039;stroke:#3a4148;stroke-width:0.2"
       d="m 25.192004,97.985907 c 0,0.136543 -0.136542,0.409625 0,0.409625 0.136542,0 0,-0.546166 0,-0.409625 0,0.512032 0,1.024064 0,1.536096 0,0.13654 0,0.27308 0,0.40963 0,0.0341 -0.03413,0.102407 0,0.102407 0.01413,0 -0.02354,-0.362547 0,-0.409627 0.118425,-0.236852 0.614439,-0.0175 0.614439,-0.10241 0,-0.0231 -0.497707,0.10241 -0.512032,0.10241 -0.179032,0 -0.716846,-0.0808 -0.716846,0.1024 0,0.23429 0.382456,0.25289 0.512033,0.512037 0.03147,0.0629 0.375963,0.71684 0.409626,0.71684 0.06827,0 -0.03053,-0.14375 0,-0.20481 0.03413,-0.0683 0.06827,-0.13654 0.102406,-0.20481 0.117774,-0.23555 0.409626,-0.656127 0.409626,-0.921657 0,-0.340114 -0.724118,0.19754 -0.921658,0 -0.05503,-0.055 0.06587,-1.38276 0.102406,-1.638506 z"
       id="path12" />
    <path
       style="fill:#c2e1c0;fill-opacity:0.698039;stroke:#3a4148;stroke-width:0.2"
       d="m 25.294411,113.36402 c 0,-0.23895 0,-0.4779 0,-0.71685 0,-0.34135 0,-0.68271 0,-1.02406 0,-0.10241 0.102406,-0.30722 0,-0.30722 -0.06827,0 0.04828,0.15654 0,0.20481 -0.05358,0.0536 -1.13719,-0.21553 -0.921659,0 0.08939,0.0894 0.692589,0 0.819252,0 0.102407,0 0.30722,0.10241 0.30722,0 0,-0.10241 -0.207871,0.0249 -0.30722,0 -0.201402,-0.0504 -0.877412,-0.22693 -0.512032,-0.40962 0.122887,-0.0615 0.184331,-0.24578 0.307219,-0.30722 0.03053,-0.0153 0.07827,0.0241 0.102407,0 0.02414,-0.0241 -0.02414,-0.0783 0,-0.10241 0.150476,-0.15048 0.09018,0.28276 0.102406,0.30722 0.03353,0.0671 0.249531,0.38078 0.30722,0.40962 0.03053,0.0153 0.07827,-0.0241 0.102406,0 0.04828,0.0483 -0.04827,0.15654 0,0.20482 0.0014,0.001 0.248461,0.16116 0.30722,0.10241 0.229457,-0.22946 -0.851092,-1.19704 -0.921659,-1.12648 -0.104766,0.10477 0.02175,0.59269 -0.102406,0.71685 -0.02414,0.0241 -0.07827,-0.0241 -0.102407,0 -0.002,0.002 -0.125163,0.30722 -0.102406,0.30722 0.03413,0 -0.02414,-0.0783 0,-0.10241 0.156978,-0.15698 0.363883,0.11333 0.409626,0.20482 0.10361,0.20721 -0.04657,0.58639 0,0.81925 0.0552,0.27602 0.136542,0.54616 0.204813,0.81925 z"
       id="path15" />
    <path
       style="fill:#c2e1c0;fill-opacity:0.698039;stroke:#3a4148;stroke-width:0.2"
       d="m 34.920623,114.49049 c -0.136541,0 -0.409625,-0.13654 -0.409625,0 0,0.13654 0.536403,0.0507 0.409625,0 -0.292203,-0.11688 -0.62086,-0.11226 -0.921657,-0.20481 -0.419955,-0.12922 -1.777468,-1.09537 -2.048132,-1.43369 -0.367133,-0.45892 -0.843404,-0.88253 -1.331285,-1.12647 -0.107307,-0.0537 -0.201187,-0.35662 -0.512032,-0.51204 -0.131157,-0.0656 -0.414978,-0.19411 -0.307219,-0.40962 0.04827,-0.0965 0.210352,-0.30722 0.102407,-0.30722 -0.04828,0 -0.05923,0.0808 -0.102407,0.1024 -0.233211,0.11661 -0.819253,-0.12428 -0.819253,0.30722 0,0.0341 -0.02413,0.0783 0,0.10241 0.02413,0.0241 0.06827,0 0.102407,0 0.12809,0 0.166606,-0.28123 0.102407,-0.40963 -0.06144,-0.12288 -0.245777,-0.18433 -0.307221,-0.30722 -0.0458,-0.0916 0.02484,-0.20787 0,-0.30722 -0.01852,-0.074 -0.08389,-0.13076 -0.102404,-0.20481 -0.006,-0.0238 0.0036,-0.61444 0,-0.61444 -0.08756,0 0.09733,0.60429 0.102404,0.61444 0.159742,0.31948 0.505955,0.45779 0.819253,0.61444 0.06183,0.0309 0.259882,-0.0473 0.307219,0 0.124552,0.12455 -0.04913,0.20481 0.102407,0.20481 0.0927,0 -0.301186,-0.39756 -0.307219,-0.40962 -0.01527,-0.0305 0.02413,-0.0783 0,-0.10241 -0.08003,-0.08 -0.308268,-0.0686 -0.409625,-0.10241 -0.0916,-0.0305 -0.118457,-0.16163 -0.204814,-0.20481 -0.105016,-0.0525 -0.304612,-0.0499 -0.409625,-0.10241 -0.08538,-0.0427 -0.390591,-0.22384 -0.409628,-0.20481 -0.07624,0.0762 0.435586,0.66636 0.512032,0.81925 0.03092,0.0618 -0.04734,0.25988 0,0.30722 0.02413,0.0241 0.07827,-0.0241 0.102407,0 0.07463,0.0746 0.0013,0.41103 0.102407,0.51204 0.01582,0.0158 1.091382,-0.34231 1.126472,-0.30722 0.04828,0.0483 -0.04828,0.15653 0,0.20481 0.02413,0.0241 0.07827,-0.0241 0.102407,0 0.02413,0.0241 0,0.0683 0,0.10241 0.03414,0.0683 0.04843,0.15084 0.102406,0.20481 0.05397,0.054 0.150839,0.0484 0.204812,0.1024 0.107947,0.10795 0.09687,0.30169 0.204814,0.40963 0.115149,0.11515 0.375269,0.21605 0.512032,0.30722 0.199258,0.13284 0.404693,0.40716 0.614439,0.51203 0.267965,0.13399 0.551217,0.2086 0.819253,0.40963 0.210842,0.15813 0.753044,0.54823 0.921658,0.71684 0.02413,0.0241 -0.02413,0.0783 0,0.10241 0.03397,0.034 0.34916,0.17458 0.409628,0.20482 0.04318,0.0216 0.06827,0.0683 0.102404,0.1024 0.238951,0.10241 0.477899,0.20481 0.716846,0.30722 z"
       id="path16" />
    <path
       style="fill:#c2e1c0;fill-opacity:0.698039;stroke:#3a4148;stroke-width:0.2"
       d="m 15.053759,114.08087 c 0.88705,-0.5293 1.76311,-1.08637 2.662569,-1.5361 0.163851,-0.0819 0.245776,-0.3277 0.409626,-0.40963 0.03053,-0.0153 0.06827,0 0.102407,0 0.06827,-0.0341 0.141303,-0.0601 0.204813,-0.10241 0.229545,-0.15303 0.373572,-0.3916 0.614439,-0.51203 0.113072,-0.0565 1.00893,-0.39449 1.024065,-0.40962 0.02414,-0.0241 -0.02414,-0.0783 0,-0.10241 0.02414,-0.0241 0.06827,0 0.102407,0 0.03413,0 0.07827,0.0241 0.102406,0 0.02414,-0.0241 -0.02414,-0.0783 0,-0.10241 0.02808,-0.0281 0.204813,-0.0899 0.204813,-0.20481 0,-0.0341 -0.07188,0.0153 -0.102406,0 -0.02729,-0.0136 -0.409626,-0.30183 -0.409626,-0.20481 0,0.26089 0.631768,0.42695 0.716845,0.51203 0.124552,0.12455 -0.04913,0.20481 0.102407,0.20481 0.15222,0 -0.09208,-0.14845 -0.204813,-0.20481 -0.06207,-0.031 -0.264307,-0.0595 -0.30722,-0.10241 -0.04291,-0.0429 -0.07137,-0.24515 -0.102406,-0.30722 -0.03861,-0.0772 -0.30722,-0.22496 -0.30722,-0.30722 0,-0.002 0.701015,0.004 0.716846,0 0.188861,-0.0472 0.260886,-0.13044 0.409626,-0.20481 0.136542,-0.0683 0.37549,0.0683 0.512033,0 0.04318,-0.0216 0.05413,-0.10241 0.102406,-0.10241 0.105308,0 -0.19658,0.49557 -0.204813,0.51204 -0.07436,0.14872 -0.206882,0.61651 -0.307219,0.71684 -0.0512,0.0512 -0.15361,0.0512 -0.204814,0.10241 -0.04551,0.0455 0.07965,0.19343 -0.102406,0.1024 -0.1596,-0.0798 -0.467176,-0.49934 -0.409626,-0.61443 0.107263,-0.21453 0.732949,-0.57532 0.921658,-0.71685 0.06106,-0.0458 0.204814,-0.17873 0.204814,-0.10241 0,0.2293 -1.237006,0.77212 -1.331285,0.81926 -0.526527,0.26326 -1.142075,0.48829 -1.638505,0.81925 -0.310073,0.20671 -0.440229,0.40698 -0.716845,0.61444 -0.212457,0.15934 -0.504389,0.14788 -0.716846,0.30722 -0.339781,0.25483 -1.030097,1.21834 -1.331285,1.33128 -0.232687,0.0873 -0.477897,0.13654 -0.716845,0.20482 z"
       id="path17" />
    <path
       style="fill:#c2e1c0;fill-opacity:0.698039;stroke:#3a4148;stroke-width:0.2"
       d="m 16.385043,106.29797 c 3.270669,0.099 6.467056,-0.29651 9.72862,0 0.589841,0.0536 1.165886,0.29462 1.740911,0.40962 0.471402,0.0943 1.177766,0.0576 1.638503,0 0.260456,0.0172 0.470834,-0.16966 0.716847,-0.20481 0.427638,-0.0611 0.961548,-0.0199 1.331285,-0.20481 0.187791,-0.0939 1.275122,0 1.43369,0 1.331285,0 2.662571,0 3.993856,0 0.544986,0 1.006523,-0.0268 1.536097,-0.10241 0.684471,-0.0978 1.461182,0 2.150538,0 0.09711,0 0.552596,0.0618 0.61444,0 0.02413,-0.0241 -0.02413,-0.0783 0,-0.1024 0.103782,-0.10379 0.860991,0 1.024064,0 0.246753,0 2.333609,0.0217 2.35535,0 0.02413,-0.0241 -0.02413,-0.0783 0,-0.10241 0.136541,-0.13654 0.68271,0.13654 0.81925,0 0.101963,-0.10196 -0.158723,-0.51203 -0.204811,-0.51203 -0.0539,0 0.04923,1.43369 0.102407,1.43369 0.03413,0 -0.02413,-0.0783 0,-0.10241 0.02413,-0.0241 0.07827,0.0241 0.102404,0 0.0586,-0.0586 0.05957,-0.2588 0.204814,-0.30722 0.06477,-0.0216 0.140047,0.0216 0.204814,0 0.09159,-0.0305 0.118457,-0.16163 0.204812,-0.20481 0.114914,-0.0575 0.291004,-0.0431 0.409628,-0.10241 0.02927,-0.0146 0.307218,-0.16461 0.307218,-0.20481 0,-0.0172 -0.568841,0.0228 -0.614439,0 -0.09198,-0.046 -0.471477,-0.16426 -0.512033,-0.20481 -0.0512,-0.0512 -0.0512,-0.15361 -0.102407,-0.20482 -0.04827,-0.0483 -0.156538,0.0483 -0.204811,0 -0.02413,-0.0241 0.03413,-0.1024 0,-0.1024 -0.06898,0 0.09679,0.91604 0.102404,0.92166 0.03955,0.0395 0.794023,-0.27532 0.921661,-0.30722 0.02379,-0.006 0.614439,0.004 0.614439,0 0,-0.0265 -1.501839,-0.32435 -1.740911,-0.20482 -0.533434,0.26672 -0.538678,0.0835 -1.024064,0.20482 -0.275281,0.0688 -0.543976,0.13599 -0.819254,0.20481 -0.225313,0.0563 -0.488658,-0.0456 -0.716846,0 -0.347181,0.0694 -0.676883,0.13538 -1.024064,0.20481 -0.164113,0.0328 -0.347919,-0.0328 -0.512032,0 -0.236384,0.0473 -0.470144,0.15548 -0.716847,0.20481 -0.442206,0.0885 -0.979283,0 -1.433692,0 -1.638504,0 -3.277007,0 -4.915511,0 -0.60991,0 -2.047849,-0.12294 -2.662571,0 -0.741196,0.14825 -2.24541,0.2059 -2.969789,0.10241 -0.508696,-0.0727 -0.9476,-0.18569 -1.433693,-0.30722 -0.380071,-0.095 -1.224156,0.15597 -1.536096,0 -0.53613,-0.26806 -1.46939,-0.0703 -2.048131,-0.1024 -0.308634,-0.0172 -0.614439,-0.0683 -0.921658,-0.10241 -0.375491,0 -0.751406,0.0179 -1.126472,0 -0.829612,-0.0395 -1.635851,-0.22503 -2.457756,-0.30722 -0.401074,-0.0401 -0.824411,0 -1.228879,0 -0.148034,0 -0.474697,-0.0466 -0.614439,0 -0.246628,0.0822 -0.477897,0.20481 -0.716846,0.30722 z"
       id="path18" />
    <path
       style="fill:#c2e1c0;fill-opacity:0.698039;stroke:#3a4148;stroke-width:0.2"
       d="m 9.9334327,100.97283 c 0,-0.17068 0.1706773,-0.51203 0,-0.51203 -0.1706777,0 -0.076329,0.66469 0,0.51203 0.3480433,-0.69609 0.1947403,-1.623396 0.6144393,-2.252943 0.04665,-0.06997 0.348091,-1.024067 0.204813,-1.024067 -0.03414,0 0,0.06827 0,0.102407 0,0.203798 0.04353,1.374815 0.102406,1.433693 0.02414,0.02413 0.07827,-0.02413 0.102407,0 0.04828,0.04828 -0.04827,0.156538 0,0.204814 0.04828,0.04827 0.143749,-0.03053 0.204813,0 0.320339,0.160168 0.743,0.102404 1.126472,0.102404 0.14668,0 0.828304,-0.09335 0.921658,0 0.123109,0.123111 -0.09717,0.34485 0.30722,0.614442 0.0284,0.0189 0.07188,-0.0153 0.102406,0 0.163851,0.0819 0.245776,0.3277 0.409627,0.40963 0.06106,0.0305 0.143749,-0.0305 0.204812,0 0.174131,0.0871 0.345923,0.22416 0.512033,0.30721 0.06106,0.0305 0.156538,-0.0483 0.204813,0 0.02414,0.0241 -0.02414,0.0783 0,0.10241 0.06496,0.065 0.324364,-0.0426 0.409626,0 0.04318,0.0216 0.05413,0.10241 0.102407,0.10241 0.03038,0 0.002,-0.30517 -0.102407,-0.40963 -0.02414,-0.0241 -0.102406,-0.0341 -0.102406,0 0,0.0341 0.07827,-0.0241 0.102406,0 0.02414,0.0241 0,0.0683 0,0.10241 0.06827,0.0341 0.15084,0.0484 0.204813,0.1024 0.05397,0.054 0.04843,0.15085 0.102407,0.20482 0.01024,0.0102 0.355009,-0.0478 0.204813,0.1024 -0.128655,0.12866 -0.365538,0.0292 -0.512033,0.10241 -0.03053,0.0153 0.02414,0.0783 0,0.10241 -0.04827,0.0483 -0.156538,-0.0483 -0.204813,0 -0.03413,0.0341 -0.06827,0.13654 -0.102406,0.1024 -0.03414,-0.0341 0.09241,-0.29722 0.102406,-0.30722 0.02414,-0.0241 0.07827,0.0241 0.102407,0 0.04828,-0.0483 -0.03053,-0.14375 0,-0.20481 0.05965,-0.11929 0.145168,-0.18793 0.204813,-0.30722 0.01527,-0.0305 -0.03414,-0.1024 0,-0.1024 0.16982,0 0.07181,0.14361 0.102406,0.20481 0.07468,0.14935 0.163823,0.16382 0.204813,0.20481 0.02414,0.0241 -0.02414,0.0783 0,0.10241 0.02414,0.0241 0.07827,-0.0241 0.102407,0 0.02414,0.0241 -0.02414,0.0783 0,0.1024 0.05298,0.053 0.718191,0.20347 0.614439,0.30722 -0.0399,0.0399 -0.347133,0 -0.409626,0 -0.14668,0 -0.828304,0.0934 -0.921659,0 -0.02414,-0.0241 0.02414,-0.0783 0,-0.1024 -0.02414,-0.0241 -0.07827,0.0241 -0.102406,0 -0.02414,-0.0241 0.01527,-0.0719 0,-0.10241 -0.06278,-0.12555 -0.638452,-0.42163 -0.819253,-0.51203 -0.117665,-0.0588 -0.547588,-0.24037 -0.614439,-0.30722 -0.0512,-0.0512 -0.0512,-0.15361 -0.102406,-0.20482 -0.02414,-0.0241 -0.07827,0.0241 -0.102407,0 -0.04827,-0.0483 0.04828,-0.15653 0,-0.20481 -0.02414,-0.0241 -0.07827,0.0241 -0.102406,0 -0.0081,-0.008 -0.144452,-0.554077 -0.204813,-0.614436 -0.113908,-0.113909 -0.435894,0.06434 -0.512033,0.102404 -0.184972,0.09249 -1.058945,0 -1.331285,0 -0.04217,0 -0.280112,0.02711 -0.307219,0 -0.06474,-0.06474 -0.30722,-0.610195 -0.30722,-0.716844 0,-0.102407 0,-0.204814 0,-0.30722 0,-0.03414 0.03414,-0.102407 0,-0.102407 -0.102953,0 -0.08732,0.773988 -0.102406,0.819253 -0.04379,0.131371 -0.161023,0.278254 -0.204813,0.409625 -0.02159,0.06477 0.02159,0.140047 0,0.204814 -0.01527,0.0458 -0.08714,0.05661 -0.102407,0.102407 -0.20148,0.604444 0.194572,-0.146783 -0.3072193,1.024064 z"
       id="path19" />
    <path
       style="fill:#c2e1c0;fill-opacity:0.698039;stroke:#3a4148;stroke-width:0.2"
       d="m 21.914995,125.24318 c 0.136543,0 0.409627,0.13654 0.409627,0 0,-0.13655 -0.531753,0.0611 -0.409627,0 0.275268,-0.13764 0.646392,-0.16959 0.921659,-0.30722 0.03053,-0.0153 0.07827,0.0241 0.102407,0 0.02414,-0.0241 -0.02414,-0.0783 0,-0.10241 0.04828,-0.0483 0.156538,0.0483 0.204813,0 0.02414,-0.0241 -0.01527,-0.0719 0,-0.10241 0.06858,-0.13716 0.244304,-0.1419 0.30722,-0.20481 0.02414,-0.0241 -0.02414,-0.0783 0,-0.10241 0.0512,-0.0512 0.153609,-0.0512 0.204812,-0.1024 0.04291,-0.0429 0.07137,-0.24516 0.102407,-0.30722 0.04318,-0.0864 0.161635,-0.11846 0.204813,-0.20481 0.03103,-0.0621 0.05949,-0.26431 0.102406,-0.30723 0.02414,-0.0241 0.07827,0.0241 0.102407,0 0.04828,-0.0483 -0.04828,-0.15653 0,-0.20481 0.0055,-0.006 0.30167,-0.19926 0.30722,-0.20481 0.02414,-0.0241 -0.02414,-0.0783 0,-0.10241 0.04828,-0.0483 0.143749,0.0305 0.204813,0 0.218494,-0.10924 -0.01368,-0.0956 0.204813,-0.20481 0.06106,-0.0305 0.156538,0.0483 0.204813,0 0.02414,-0.0241 -0.02414,-0.0783 0,-0.10241 0.0512,-0.0512 0.256016,0.0512 0.307219,0 0.02414,-0.0241 -0.02414,-0.0783 0,-0.1024 0.02076,-0.0208 0.491275,-0.0208 0.512033,0 0.03413,0.0341 0.06827,0.27308 0.102406,0.30722 0.02414,0.0241 0.07827,-0.0241 0.102407,0 0.0512,0.0512 0.0512,0.1536 0.102406,0.20481 0.211883,0.21188 -0.0083,-0.32379 0.204814,0.10241 0.01527,0.0305 -0.02414,0.0783 0,0.1024 0.02414,0.0241 0.07827,-0.0241 0.102406,0 0.04828,0.0483 -0.04828,0.15654 0,0.20481 0.02414,0.0241 0.07827,-0.0241 0.102407,0 0.05131,0.0513 0.03527,0.34249 0.102405,0.40963 0.0056,0.006 0.30167,0.19927 0.307221,0.20481 0.0512,0.0512 0.0512,0.15361 0.102407,0.20482 0.04827,0.0483 0.156538,-0.0483 0.204811,0 0.02413,0.0241 -0.02413,0.0783 0,0.1024 0.0512,0.0512 0.256017,-0.0512 0.307221,0 0.02413,0.0241 -0.02413,0.0783 0,0.10241 0.08567,0.0857 0.517629,0.006 0.61444,0.10241 0.02413,0.0241 -0.02413,0.0783 0,0.1024 0.0511,0.0511 0.431847,0 0.512032,0 0.05983,0 0.474239,0.0378 0.307218,0.20482 -0.04308,0.0431 -0.372115,-0.0188 -0.409625,0 -0.03053,0.0153 0.02413,0.0783 0,0.1024 -0.0399,0.0399 -0.347133,0 -0.409625,0 -0.243036,0 -0.982888,0.123 -1.228879,0 -0.13716,-0.0686 -0.141899,-0.2443 -0.204814,-0.30722 -0.02413,-0.0241 -0.07827,0.0241 -0.102407,0 -0.06714,-0.0671 -0.0511,-0.35832 -0.102405,-0.40962 -0.02414,-0.0241 -0.07827,0.0241 -0.102407,0 -0.0512,-0.0512 0.0512,-0.25602 0,-0.30722 -0.211883,-0.21188 0.0083,0.32378 -0.204813,-0.10241 -0.07063,-0.14125 0.12402,-0.0916 -0.102407,-0.20481 -0.06206,-0.031 -0.264306,-0.0595 -0.307219,-0.10241 -0.02414,-0.0241 0.02414,-0.0783 0,-0.10241 -0.0512,-0.0512 -0.256017,0.0512 -0.30722,0 -0.02414,-0.0241 0.02414,-0.0783 0,-0.1024 -0.166781,-0.16678 -0.78228,0.1024 -0.921658,0.1024 -0.273084,0 0.03413,-0.0341 -0.102407,0.10241 -0.06827,0.0683 -0.341355,-0.0683 -0.409626,0 -0.09603,0.096 -0.187565,0.59719 -0.307219,0.71685 -0.02414,0.0241 -0.07827,-0.0241 -0.102407,0 -0.04828,0.0483 0.04828,0.15654 0,0.20481 -0.02414,0.0241 -0.07827,-0.0241 -0.102407,0 -0.211882,0.21188 0.323785,-0.008 -0.102406,0.20481 -0.196863,0.0984 -0.415276,0.20764 -0.614439,0.30722 -0.06688,0.0334 -0.237568,0.19611 -0.30722,0.20482 -0.237103,0.0296 -0.477897,0 -0.716846,0 z"
       id="path21" />
    <path
       style="fill:#c2e1c0;fill-opacity:0.698039;stroke:#3a4148;stroke-width:0.2"
       d="m 9.4214,122.67442 c 0.1365419,0 0.4096261,0.16663 0.4096261,0 0,-0.16662 -0.5461683,0 -0.4096261,0 0.580304,0 1.160607,0 1.740911,0 0.60039,0 1.527879,-0.19246 2.04813,0.12498 0.08526,0.052 0.344669,-0.0793 0.409626,0 0.02414,0.0294 -0.02414,0.0956 0,0.12497 0.03414,0.0416 0.273084,0.0833 0.30722,0.12496 0.0512,0.0625 0.0512,0.18745 0.102406,0.24993 0.02414,0.0294 0.07827,-0.0294 0.102407,0 0.04828,0.0589 -0.04828,0.19103 0,0.24994 0.02414,0.0294 0.07827,-0.0294 0.102407,0 0.02414,0.0294 -0.01527,0.0877 0,0.12496 0.177274,0.43267 0.213942,0.75539 0.614438,0.99976 0.149352,0.0912 0.163823,0.19991 0.204814,0.24993 0.05145,0.0628 1.094101,0.12497 1.331285,0.12497 0.136541,0 0.273083,0 0.409626,0 0.03414,0 0.102406,0.0416 0.102406,0 0,-0.0416 -0.06827,0 -0.102406,0 -0.204814,0 -0.409626,0 -0.61444,0 -0.433312,0 -0.967321,0.0971 -1.331285,-0.12497 -0.12658,-0.0772 -0.71175,-0.48744 -0.819252,-0.74981 -0.01527,-0.0372 0.02414,-0.0956 0,-0.12497 -0.211882,-0.25856 0.0083,0.39512 -0.204813,-0.12496 -0.01527,-0.0372 0.02414,-0.0955 0,-0.12497 -0.02414,-0.0294 -0.07827,0.0294 -0.102406,0 -0.02414,-0.0294 0.02414,-0.0956 0,-0.12498 -0.03414,-0.0416 -0.273084,-0.0833 -0.30722,-0.12496 -0.02414,-0.0294 0.02414,-0.0955 0,-0.12497 -0.04828,-0.0589 -0.156538,0.0589 -0.204813,0 -0.02414,-0.0294 0.02414,-0.0956 0,-0.12497 -0.08534,-0.10409 -0.426694,0.10409 -0.512032,0 -0.02414,-0.0294 0.02414,-0.0956 0,-0.12496 -0.0399,-0.0487 -0.347134,0 -0.409626,0 -0.06249,0 -0.369725,0.0487 -0.409627,0 -0.02414,-0.0294 0.02414,-0.0956 0,-0.12497 -0.04827,-0.0589 -0.156538,0.0589 -0.204813,0 -0.02414,-0.0294 0.02414,-0.0955 0,-0.12496 -0.06827,-0.0834 -0.341355,0.0833 -0.409626,0 -0.02414,-0.0294 0.02414,-0.0956 0,-0.12497 -0.04828,-0.0589 -0.156538,0.0589 -0.204813,0 -0.02414,-0.0294 0.02414,-0.0956 0,-0.12498 -0.0096,-0.0122 -1.4427888,0 -1.638504,0 z"
       id="path22" />
    <path
       style="fill:#c2e1c0;fill-opacity:0.698039;stroke:#3a4148;stroke-width:0.2"
       d="m 41.524433,122.775 c -0.136542,0 -0.409626,0.16662 -0.409626,0 0,-0.16662 0.546168,0 0.409626,0 -0.580303,0 -1.160607,0 -1.740911,0 -0.60039,0 -1.527879,-0.19247 -2.04813,0.12497 -0.08526,0.052 -0.344669,-0.0793 -0.409626,0 -0.02414,0.0294 0.02414,0.0955 0,0.12498 -0.03414,0.0416 -0.273084,0.0833 -0.30722,0.12496 -0.0512,0.0625 -0.0512,0.18745 -0.102406,0.24993 -0.02414,0.0294 -0.07827,-0.0294 -0.102407,0 -0.04828,0.0589 0.04828,0.19103 0,0.24994 -0.02414,0.0294 -0.07827,-0.0294 -0.102407,0 -0.02414,0.0294 0.01527,0.0877 0,0.12496 -0.177274,0.43266 -0.213942,0.75539 -0.614438,0.99976 -0.149352,0.0911 -0.163823,0.19991 -0.204814,0.24993 -0.05145,0.0628 -1.094101,0.12497 -1.331285,0.12497 -0.136541,0 -0.273083,0 -0.409626,0 -0.03414,0 -0.102406,0.0416 -0.102406,0 0,-0.0416 0.06827,0 0.102406,0 0.204814,0 0.409626,0 0.61444,0 0.433312,0 0.967321,0.0971 1.331285,-0.12497 0.12658,-0.0773 0.71175,-0.48744 0.819252,-0.74981 0.01527,-0.0372 -0.02414,-0.0955 0,-0.12497 0.211882,-0.25856 -0.0083,0.39512 0.204813,-0.12496 0.01527,-0.0372 -0.02414,-0.0956 0,-0.12497 0.02414,-0.0294 0.07827,0.0294 0.102406,0 0.02414,-0.0294 -0.02414,-0.0956 0,-0.12498 0.03414,-0.0416 0.273084,-0.0833 0.30722,-0.12496 0.02414,-0.0294 -0.02414,-0.0956 0,-0.12497 0.04828,-0.0589 0.156538,0.0589 0.204813,0 0.02414,-0.0294 -0.02414,-0.0956 0,-0.12497 0.08534,-0.10409 0.426694,0.10409 0.512032,0 0.02414,-0.0294 -0.02414,-0.0955 0,-0.12496 0.0399,-0.0487 0.347134,0 0.409626,0 0.06249,0 0.369725,0.0487 0.409627,0 0.02414,-0.0294 -0.02414,-0.0956 0,-0.12497 0.04827,-0.0589 0.156538,0.0589 0.204813,0 0.02414,-0.0294 -0.02414,-0.0956 0,-0.12496 0.06827,-0.0833 0.341355,0.0833 0.409626,0 0.02414,-0.0294 -0.02414,-0.0956 0,-0.12498 0.04828,-0.0589 0.156538,0.0589 0.204813,0 0.02414,-0.0294 -0.02414,-0.0956 0,-0.12497 0.0096,-0.0122 1.442789,0 1.638504,0 z"
       id="path22-9" />
    <path
       style="fill:#c2e1c0;fill-opacity:0.698039;stroke:#3a4148;stroke-width:0.2"
       d="m 9.831026,100.97283 c 0,-0.13654 0.1365422,-0.40962 0,-0.40962 -0.136542,0 -0.033116,0.54209 0,0.40962 6.98e-5,-2.6e-4 0.032405,-0.85166 0.204813,-1.024064 0.02414,-0.02413 0.07827,0.02413 0.102407,0 0.02414,-0.02413 -0.02414,-0.07827 0,-0.102407 0.02414,-0.02413 0.07827,0.02413 0.102406,0 0.03414,-0.03414 0.06827,-0.273084 0.102407,-0.307221 0.02414,-0.02413 0.07827,0.02413 0.102406,0 0.06827,-0.06827 -0.06827,-0.341355 0,-0.409625 0.109597,-0.109596 0.178622,0.28103 0.204813,0.307221 0.0511,0.0511 0.431848,0 0.512033,0 0.305576,0 1.421178,-0.108665 1.638504,0 0.426192,0.213095 -0.109476,-0.0071 0.102407,0.204811 0.0055,0.0056 0.30167,0.199266 0.307219,0.204814 0.04828,0.04827 -0.04828,0.156541 0,0.204811 0.03646,0.0365 0.303617,0.0988 0.30722,0.10241 0.02414,0.0241 -0.02414,0.0783 0,0.1024 0.04828,0.0483 0.143749,-0.0305 0.204813,0 0.149352,0.0747 0.163823,0.16383 0.204813,0.20482 0.04828,0.0483 0.156538,-0.0483 0.204813,0 0.02414,0.0241 -0.02414,0.0783 0,0.10241 0.04828,0.0483 0.156538,-0.0483 0.204813,0 0.02414,0.0241 -0.02414,0.0783 0,0.1024 0.04828,0.0483 0.156538,-0.0483 0.204813,0 0.02414,0.0241 -0.02414,0.0783 0,0.10241 0.04828,0.0483 0.156538,-0.0483 0.204813,0 0.02414,0.0241 -0.02414,0.0783 0,0.1024 0.04828,0.0483 0.136542,0 0.204813,0"
       id="path23" />
    <path
       style="fill:#c2e1c0;fill-opacity:0.698039;stroke:#3a4148;stroke-width:0.2"
       d="m 12.698409,118.48434 c 1.225863,0.0512 2.461996,-0.072 3.686634,0 0.932134,0.0548 1.839011,0.32545 2.764977,0.40963 1.196223,0.10875 2.399319,-0.12017 3.584228,-0.20481 0.926335,-0.0662 1.964531,-0.0782 2.867382,0.10241 0.234917,0.047 0.733102,0 0.921658,0 1.0164,0 2.058374,-0.0676 3.072196,0 0.478055,0.0319 0.956546,0.059 1.433693,0.1024 0.466738,0.0424 0.861531,0.20481 1.331285,0.20481 1.638504,0 3.277008,0 4.915511,0 0.696135,0 1.466781,0.0977 2.150539,0 0.355748,-0.0508 0.831355,-0.15966 1.126471,-0.30721 0.08193,-0.041 0.225293,0.041 0.307219,0 0.11929,-0.0596 0.187928,-0.14517 0.307221,-0.20482 0.0691,-0.0345 1.167325,-0.10241 1.331282,-0.10241 0.215567,0 1.819466,-0.12625 1.843318,-0.1024 0.139531,0.13953 -0.100486,0.0986 -0.102404,0.1024 -0.05914,0.11828 0,0.47133 0,0.61444 0,0.10241 -0.102407,0.30722 0,0.30722 0.102404,0 0,-0.20481 0,-0.30722 0,-0.12717 0.09176,-1.11583 0.102404,-1.12647 0.02711,-0.0271 0.265054,0 0.307221,0 0.327078,0 0.819372,-0.10236 1.126471,0 0.178152,0.0594 0.281345,0.30722 0.409626,0.30722 0.381648,0 1.467826,0.0341 1.126471,0.20481 -0.06106,0.0305 -0.138581,-0.0166 -0.204811,0 -0.256146,0.064 -0.443148,0.26161 -0.716846,0.30723 -0.101013,0.0168 -0.206801,-0.0201 -0.307221,0 -0.272365,0.0545 -0.534768,0.2598 -0.819251,0.30721 -0.101012,0.0168 -0.206801,-0.0201 -0.307221,0 -0.07485,0.015 -0.130762,0.0839 -0.204811,0.10241 -0.128939,0.0322 -0.389533,-0.0613 -0.512032,0 -0.110086,0.055 -0.430298,0.20481 -0.307221,0.20481 0.04927,0 0.09458,-1.01623 0.204814,-1.12647 0.02413,-0.0241 0.07827,0.0241 0.102407,0 0.04099,-0.041 0.05546,-0.13014 0.204811,-0.20481 0.133101,-0.0665 0.481931,0.17168 0.614439,0.20481 0.296849,0.0742 0.625981,0.0285 0.92166,0.10241 0.272624,0.0682 0.224415,0.1024 0.512033,0.1024 0.265091,0 0.405497,0.10241 0.716846,0.10241 0.07633,0 0.273082,0.0683 0.204811,0.10241 -0.175188,0.0876 -0.624327,0.0293 -0.81925,0.10241 -0.486609,0.18247 -0.97186,0.38352 -1.433693,0.61443 -0.08636,0.0432 -0.118456,0.16164 -0.204814,0.20482 -0.06206,0.031 -0.264305,0.0595 -0.307218,0.1024 -0.02413,0.0241 0.02413,0.0783 0,0.10241 -0.02413,0.0241 -0.07827,-0.0241 -0.102407,0 -0.02413,0.0241 0.02413,0.0783 0,0.10241 -0.03493,0.0349 -0.478271,0.20481 -0.204814,0.20481 0.06827,0 0,-0.13654 0,-0.20481 0,-0.20482 0,-0.40963 0,-0.61444 0,-0.27309 0,-0.54617 0,-0.81926 0,-0.0683 0.06827,-0.20481 0,-0.20481 -0.03413,0 0,0.0683 0,0.10241 0,0.0683 -0.06106,0.17428 0,0.20481 0.236818,0.11841 0.86695,0 1.126471,0 0.170678,0 0.341358,0 0.512035,0 0.03413,0 0.102405,0.0341 0.102405,0 0,-0.006 -0.860068,-0.0956 -0.921658,-0.10241 -0.320831,5.3e-4 -0.609375,-0.16577 -0.921657,-0.20481 -0.308904,-0.0386 -1.535266,-0.10268 -1.843318,0 -0.0458,0.0153 -0.05661,0.0871 -0.102407,0.10241 -0.129535,0.0432 -0.277162,-0.0331 -0.409628,0 -0.334632,0.0837 -0.674238,0.23725 -1.024064,0.30722 -0.311783,0.0624 -0.09784,-0.0624 -0.409626,0 -0.548798,0.10976 -1.070382,0.10241 -1.638503,0.10241 -2.389487,0 -4.778973,0 -7.168457,0 -0.963443,0 -2.360975,0.13086 -3.27701,0 -0.813816,-0.11627 -1.406208,-0.20482 -2.252943,-0.20482 -0.136542,0 -0.274456,0.0193 -0.409626,0 -0.297505,-0.0425 -0.522823,-0.25781 -0.819252,-0.30722 -0.138182,-0.023 -1.349127,-0.18697 -1.433692,-0.1024 -0.02414,0.0241 0.02414,0.0783 0,0.1024 -0.09655,0.0966 -0.274138,-0.0169 -0.409626,0 -0.345427,0.0432 -0.677152,0.17591 -1.024065,0.20481 -0.238123,0.0198 -0.478426,-0.0159 -0.716846,0 -0.645214,0.043 -1.293544,0.17488 -1.945723,0.10241 -0.139884,-0.0155 -0.270297,-0.0825 -0.409626,-0.10241 -0.202755,-0.029 -0.413604,0.0402 -0.61444,0 -0.07485,-0.015 -0.129966,-0.0874 -0.204813,-0.1024 -0.589884,-0.11798 -1.341855,0 -1.945723,0 -0.261025,0 -0.563206,-0.0427 -0.819253,0 -0.20836,-0.0356 -0.331777,0.16876 -0.512032,0.20481 -0.381611,0.0763 -0.232829,-0.0763 -0.61444,0 -0.07485,0.015 -0.129966,0.0874 -0.204812,0.10241 -0.440191,0.088 -0.932212,-0.0908 -1.331285,-0.20482 z"
       id="path24" />
    <path
       style="fill:#c2e1c0;fill-opacity:0.698039;stroke:#3a4148;stroke-width:0.2"
       d="m 42.396301,26.728102 c 0,1.399556 0,2.799112 0,4.198668 0,0.459742 -0.06425,0.873368 -0.102407,1.331285 -0.04144,0.497242 0.08212,1.04339 0,1.536097 -0.01254,0.07529 -0.08389,0.130762 -0.102407,0.204814 -0.111239,0.444952 0,1.098349 0,1.536097 0,2.440103 0.166283,4.955066 -0.102407,7.37327 -0.02027,0.182491 -0.208187,3.372668 -0.102407,3.584229 0.124365,0.248726 0.346557,0.46863 0.512032,0.716846 0.291367,0.437049 0.07477,0.368167 0.307221,0.716843 0.203645,0.30547 0.460293,0.613368 0.614439,0.92166 0.04318,0.08636 0.161634,0.118457 0.204814,0.204812 0.01527,0.03053 -0.02413,0.07827 0,0.102407 0.211881,0.211883 -0.0083,-0.323784 0.204812,0.102407 0.112053,0.224104 -0.120894,1.312799 0,1.433692 0.02413,0.02413 0.08714,-0.03053 0.102407,0 0.07633,0.152657 -0.02806,0.343675 0,0.512032 0.03549,0.212956 0.124632,0.413989 0.204814,0.61444 0.120557,0.301397 0.172826,0.550463 0.307218,0.81925 0.03053,0.06106 -0.04827,0.156538 0,0.204814 0.02413,0.02413 0.07827,-0.02413 0.102407,0 0.120687,0.120687 -0.03347,0.34467 0,0.512032 0.01498,0.07485 0.08389,0.130763 0.102407,0.204814 0.08835,0.353402 -0.08835,0.773068 0,1.126472 0.132577,0.530312 0.380807,0.96643 0.614439,1.43369 0.0525,0.104997 -0.02881,0.294401 0,0.409627 0.266076,1.064308 -0.07104,-0.741772 0.102407,0.819251 0.03108,0.279768 0.165005,0.540594 0.204811,0.819253 0.04724,0.330698 -0.02519,2.278145 -0.102407,2.35535 -0.02413,0.02413 -0.07827,-0.02413 -0.102404,0 -0.06827,0.06827 0.06827,0.341355 0,0.409625 -0.02413,0.02413 -0.07827,-0.02413 -0.102407,0 -0.02413,0.02413 0.01527,0.07188 0,0.102407 -0.05965,0.11929 -0.145169,0.187931 -0.204814,0.307221 -0.04914,0.09828 0.03278,0.31128 0,0.409625 -0.02413,0.07241 -0.178736,0.204814 -0.102407,0.204814 0.03414,0 0.02413,-0.07827 0,-0.102407 -0.04827,-0.04827 -0.143748,0.03053 -0.204811,0 -0.426194,-0.213095 0.109474,0.0071 -0.102407,-0.204813 -0.04215,-0.04214 -0.682935,-0.238723 -0.716846,-0.204812 -0.146775,0.146775 0.861748,0.277262 0.921657,0.307218 0.149352,0.07468 0.163825,0.163823 0.204814,0.204814 0.04828,0.04827 0.156538,-0.04827 0.204814,0 0.02413,0.02413 0.03053,0.08714 0,0.102405 -0.164679,0.08234 -1.079577,0.07465 -1.228878,0 -0.09655,-0.04827 -0.102407,-0.415163 -0.102407,-0.307219 0,0.102407 -0.0458,0.215625 0,0.307219 0.04318,0.08636 0.161634,0.118456 0.204814,0.204814 0.03091,0.06183 -0.04734,0.259881 0,0.307221 0.04099,0.04099 0.130135,0.05546 0.204811,0.204811 0.03053,0.06106 -0.04827,0.156538 0,0.204814 0.02413,0.02413 0.07827,-0.02413 0.102407,0 0.102407,0.102407 -0.102407,0.512032 0,0.614439 0.135752,0.135753 0.461862,-0.742963 0.614439,-0.819253 0.03053,-0.01527 0.07827,0.02413 0.102407,0 0.0512,-0.0512 0.0512,-0.153609 0.102407,-0.204811 0.02413,-0.02413 0.07187,0.01527 0.102407,0 0.163849,-0.08193 0.245774,-0.327703 0.409625,-0.409628 0.03053,-0.01527 0.07827,0.02413 0.102407,0 0.02413,-0.02413 0.02413,-0.07827 0,-0.102407 -0.09423,-0.09423 -0.949587,0.08844 -1.126471,0 -0.10659,-0.05329 -0.512032,-0.525796 -0.512032,-0.307219 0,0.09332 0.392946,-0.08573 0.409625,-0.102406 0.215892,-0.215893 0.184113,-0.368229 0.307218,-0.61444 0.147339,-0.294671 -0.07128,-1.282078 0,-1.638503 0.06081,-0.304075 0.204814,-0.60301 0.204814,-0.921658 0,-0.506669 -0.170077,-0.687512 -0.102407,-1.228878 0.04886,-0.390867 0.187873,-1.075656 0.307221,-1.433693 0.124746,-0.374237 -0.05447,-0.950029 0,-1.331285 0.06374,-0.446186 0.102404,-0.661967 0.102404,-1.126472 0,-0.08744 0.06436,-0.652486 0,-0.716846 -0.02413,-0.02413 -0.07827,0.02413 -0.102404,0 -0.02413,-0.02413 0.01527,-0.07187 0,-0.102404 -0.04318,-0.08636 -0.155138,-0.122023 -0.204814,-0.204814 -0.07854,-0.130905 -0.12627,-0.278723 -0.204814,-0.409625 -0.07074,-0.117909 -0.24588,-0.184545 -0.307218,-0.307221 -0.06691,-0.133821 -0.05457,-0.266102 -0.102407,-0.409626 -0.09192,-0.275746 -0.352163,-0.579448 -0.512032,-0.819253 -0.09685,-0.145275 -0.228862,-0.126455 -0.307221,-0.204811 -0.147804,-0.147807 -0.453319,-1.418675 -0.614439,-1.740913 -0.06519,-0.130382 -0.408996,-0.443342 -0.512033,-0.512033 -0.0284,-0.01894 -0.07827,0.02413 -0.102407,0 -0.02413,-0.02413 0.01527,-0.07187 0,-0.102407 -0.04318,-0.08635 -0.161634,-0.118454 -0.204811,-0.204811 -0.03053,-0.06106 0.04827,-0.156538 0,-0.204814 -0.02413,-0.02413 -0.07827,0.02413 -0.102407,0 -0.04828,-0.04827 0.04828,-0.156538 0,-0.204811 -0.02413,-0.02413 -0.102407,0.03413 -0.102407,0 0,-0.339516 0.129003,-0.618416 0.204814,-0.92166 0.02307,-0.09226 -0.06597,-0.446069 0,-0.512033 0.02413,-0.02413 0.07827,0.02413 0.102407,0 0.06948,-0.06948 -0.04686,-0.315904 0,-0.409625 0.02159,-0.04318 0.08714,-0.05661 0.102404,-0.102407 0.11289,-0.338667 0,-0.981313 0,-1.331285 0,-1.22274 -0.03296,-2.381287 -0.204811,-3.584229 -0.01725,-0.120742 0.04887,-1.282411 0,-1.331285 -0.02413,-0.02413 -0.07827,0.02413 -0.102407,0 -0.09018,-0.09018 0.01574,-0.709028 0,-0.819251 -0.04923,-0.344617 -0.104783,-0.690631 -0.204814,-1.024067 -0.05282,-0.176072 -0.15199,-0.33596 -0.204811,-0.512032 -0.165373,-0.551241 -0.450797,-3.275968 -0.307221,-3.993854 0.0622,-0.311004 0.152762,-0.609356 0.204814,-0.921657 0.05446,-0.326755 -0.03778,-0.538874 0.102407,-0.819253 0.134977,-0.269957 -0.04476,-1.610014 0,-1.945725 0.03284,-0.24633 0.167023,-0.471225 0.204811,-0.716846 0.223679,-1.453912 -0.450345,0.398841 0.409628,-1.536097 z"
       id="path27" />
    <path
       style="fill:#c2e1c0;fill-opacity:0.698039;stroke:#3a4148;stroke-width:0.2"
       d="m 3.4018011,106.1362 c 0.1295926,0 0.3887774,0.12959 0.3887774,0 0,-0.1296 -0.5183698,0 -0.3887774,0 0.1939377,0 2.1158853,-0.10839 2.3326637,0 0.1528913,0.0764 0.110195,0.0972 0.291583,0.0972 0.1392142,0 0.7861459,0.0886 0.8747487,0 0.025728,-0.0257 0,-0.25156 0,-0.29158 0,-0.0648 0.045818,-0.14857 0,-0.19439 -0.1310452,-0.13105 -0.2240759,0.97194 -0.1943885,0.97194 0.097194,0 0,-0.19439 0,-0.29158 0,-0.0593 0.037871,-0.35091 0,-0.38878 -0.022908,-0.0229 -0.074285,0.0229 -0.097194,0 -0.045818,-0.0458 0.028978,-0.13643 0,-0.19439 -0.020489,-0.041 -0.097194,-0.0514 -0.097194,-0.0972 0,-0.0324 0.074285,0.0229 0.097194,0 0.037871,-0.0379 0,-0.32947 0,-0.38878 0,-0.0972 0.097194,-0.29158 0,-0.29158 -0.032398,0 0,0.0648 0,0.0972 0,0.1296 0,0.25919 0,0.38878 0,0.29158 0,0.58317 0,0.87475 0,0.12959 0,0.25919 0,0.38878 0,0.0324 0,0.12959 0,0.0972 0,-0.5717 0.8221064,-0.11947 1.1663317,-0.29158 0.040981,-0.0205 0.056214,-0.0767 0.097195,-0.0972 0.028978,-0.0145 0.074285,0.0229 0.097194,0 0.1006224,-0.10062 -0.2568384,-0.31928 -0.291583,-0.38877 -0.067033,-0.13407 0.1177078,-0.0869 -0.097194,-0.19439 -0.058906,-0.0294 -0.2508544,-0.0565 -0.291583,-0.0972 -0.048597,-0.0486 -0.048597,-0.14579 -0.097194,-0.19439 -0.056334,-0.0563 -0.3324434,-0.13805 -0.3887771,-0.19438 -0.022908,-0.0229 0.022908,-0.0743 0,-0.0972 -0.022908,-0.0229 -0.068217,0.0145 -0.097194,0 -0.081961,-0.041 -0.1027528,-0.19439 -0.1943886,-0.19439 -0.023712,0 0.2472486,0.44164 0.291583,0.48597 0.1812562,0.18126 1.3623824,0.97029 1.2635261,1.06914 -0.045818,0.0458 -0.1364332,-0.029 -0.1943885,0 -0.2012501,0.10063 -0.3842909,0.19215 -0.583166,0.29158 -0.1036736,0.0518 -0.090715,-0.0518 -0.1943886,0 -0.057449,0.0287 -0.4373981,0.24297 -0.4859716,0.19439 -0.082207,-0.0822 0.2487014,-1.20921 0.097194,-1.36072 -0.010779,-0.0108 -1.1185441,0.35253 -1.2635262,0.38878 -0.5553948,0.13885 -1.4986151,-0.0197 -2.0410807,-0.0972 z"
       id="path29" />
    <path
       style="fill:#c2e1c0;fill-opacity:0.698039;stroke:#3a4148;stroke-width:0.2"
       d="m 25.076134,77.755455 c 0,1.55511 0,3.11022 0,4.665327 0,0.28267 0.12367,0.918993 0,1.166333 -0.145454,0.290907 -0.944634,1.017194 -1.166331,1.263526 -0.390968,0.434409 -0.724179,0.787342 -1.166332,1.166331 -0.343364,0.294312 -0.610564,0.70091 -0.971944,0.971944 -0.399756,0.299815 -0.786294,0.549003 -1.166331,0.87475 -0.272144,0.233264 -0.607465,0.65606 -0.874749,0.874747 -0.180817,0.147941 -0.388777,0.259185 -0.583166,0.388778 -0.194389,0.194387 -0.371977,0.407176 -0.583166,0.583166 -0.179477,0.149563 -0.400735,0.242832 -0.583166,0.388776 -0.143111,0.11449 -0.259185,0.259186 -0.388777,0.388779 -0.161991,0.129593 -0.320013,0.264308 -0.485972,0.388776 -0.165959,0.12447 -0.313363,0.273706 -0.485971,0.388778 -0.02696,0.01797 -0.07429,-0.02291 -0.09719,0 -0.02291,0.02291 0.02291,0.07429 0,0.09719 -0.02291,0.02291 -0.07428,-0.02291 -0.09719,0 -0.05123,0.05122 -0.05194,0.137819 -0.09719,0.194387 -0.594672,0.743339 -1.413995,1.340321 -2.138276,1.943886 -0.185868,0.154892 -0.47957,0.352112 -0.68036,0.485973 -0.02696,0.01797 -0.07428,-0.02291 -0.09719,0 -0.02291,0.02291 0.01449,0.06821 0,0.09719 -0.09382,0.187642 -0.365793,0.560181 -0.485972,0.68036 -0.146688,0.146688 -0.339283,0.242088 -0.485971,0.388776 -0.401176,0.401177 -0.761202,0.858396 -1.166332,1.263526 -0.339222,0.339222 -0.701506,0.665585 -1.069138,0.971944 -0.135095,0.11258 -0.4216031,0.405191 -0.5831653,0.485971 -0.028978,0.0145 -0.074286,-0.02291 -0.097194,0 -0.2290892,0.229089 -0.3679246,0.535408 -0.583166,0.777555 -0.2435178,0.273957 -0.5340369,0.503597 -0.7775546,0.777554 -0.3433691,0.386292 -0.3290697,0.476449 -0.6803602,0.777552 -0.1229923,0.10542 -0.2742327,0.17704 -0.3887771,0.29158 -0.082599,0.0826 -0.1117894,0.20899 -0.1943889,0.29159 -0.149444,0.14944 -0.4766005,0.27284 -0.5831657,0.48597 -0.087222,0.17444 -0.159848,0.39874 -0.291583,0.58317 -0.079893,0.11185 -0.2116897,0.17973 -0.291583,0.29158 -0.4753221,0.66545 0.07036,0.1294 -0.3887772,0.68036 -0.3379856,0.40558 -0.7189298,0.96526 -1.166332,1.26352 -0.026957,0.018 -0.074285,-0.0229 -0.097194,0 -0.054226,0.0542 -0.3246639,0.7679 -0.3887774,0.87475 -0.1208554,0.20143 -0.2899344,0.38548 -0.3887772,0.58317 -0.082072,0.16414 -0.583166,0.49973 -0.583166,0.68036 0,0.0324 0.074285,-0.0229 0.097194,0 0.022908,0.0229 -0.014489,0.0682 0,0.0972 0.040981,0.082 0.1654109,0.10746 0.1943886,0.19439 0.020489,0.0615 -0.020489,0.13292 0,0.19439 0.028978,0.0869 0.1534078,0.11243 0.1943886,0.19439 0.091361,0.18272 0.1806048,0.38896 0.291583,0.58317 0.1295924,0.22678 0.2719641,0.44673 0.3887771,0.68036 0.063332,0.12666 0.09766,0.48643 0.1943889,0.58316 0.022908,0.0229 0.068216,-0.0145 0.097194,0 0.03273,0.0164 0.7451178,0.80988 0.7775546,0.87475 0.2023893,0.40478 0.3819432,0.89051 0.6803602,1.26353 0.128996,0.16124 0.3936055,0.30124 0.4859718,0.48597 0.014489,0.029 -0.02291,0.0743 0,0.0972 0.022908,0.0229 0.074285,-0.0229 0.097194,0 0.045818,0.0458 -0.045818,0.14858 0,0.19439 0.022908,0.0229 0.074285,-0.0229 0.097194,0 0.057334,0.0573 0.2165548,0.47063 0.291583,0.58317 0.1199869,0.17998 0.3896889,0.2934 0.4859716,0.48597 0.014489,0.029 -0.022908,0.0743 0,0.0972 0.02291,0.0229 0.068216,-0.0145 0.097194,0 0.1943889,0.0972 0.291583,0.38878 0.4859716,0.48598 0.028978,0.0145 0.074285,-0.0229 0.097194,0 0.022908,0.0229 -0.014488,0.0682 0,0.0972 0.020489,0.041 0.097195,0.0514 0.097195,0.0972 0,0.0324 -0.074286,-0.0229 -0.097195,0 -0.02291,0.0229 0.022908,0.0743 0,0.0972 -0.0099,0.01 -0.446868,0.26551 -0.4859715,0.29158 -0.085968,0.0573 -0.2926112,0.38878 -0.3887775,0.38878 -0.021598,0 0.095342,-0.28973 0.097194,-0.29158 0.1695653,-0.16957 0.3938968,-0.16541 0.583166,-0.29159 0.1501248,-0.10008 0.23506,-0.21472 0.3887771,-0.29158 0.058906,-0.0294 0.2508544,-0.0565 0.291583,-0.0972 0.00494,-0.005 0.3979339,-0.59233 0,-0.19439 -0.4523533,0.45235 -0.9996977,0.69423 -1.5551091,0.97194 -0.072288,0.0362 -0.448141,0.23222 -0.3887772,0.29158 0.059487,0.0595 1.3918263,-0.0272 1.5551092,0 0.2220883,0.037 0.4083155,0.10697 0.5831657,0.19439 0.1036741,0.0518 0.2851033,-0.0518 0.3887774,0 0.061631,0.0308 0.344478,0.19439 0.3887772,0.19439 0.019727,0 -0.097194,-0.42803 -0.097194,-0.48597 0,-0.04 0.025728,-0.26586 0,-0.29158 -0.022908,-0.0229 -0.074286,0.0229 -0.097194,0 -0.037211,-0.0372 -0.022365,-0.91948 -0.097194,-1.06914 -0.1293834,-0.25877 -0.351482,0.0524 -0.4859716,0.0972 -0.1212863,0.0404 -0.4805241,0.0917 -0.5831657,0.19439 -0.045818,0.0458 -0.045818,0.14857 0,0.19439 0.022908,0.0229 0.068216,-0.0145 0.097194,0 0.4044995,0.20225 -0.1039042,-0.007 0.097194,0.19439 0.022908,0.0229 0.074285,-0.0229 0.097194,0 0.022908,0.0229 -0.022908,0.0743 0,0.0972 0.051226,0.0512 0.1431629,0.046 0.1943888,0.0972 0.1953348,0.19533 0.1430695,0.22497 0.3887772,0.38878 0.076258,0.0508 0.1018281,0.29158 0.1943886,0.29158 0.032398,0 0,-0.0648 0,-0.0972 0,-0.23571 -0.4189008,-0.37646 -0.5831658,-0.48597 -0.5000043,-0.33333 -0.8158969,-0.79628 -1.166332,-1.26352 -0.1858335,-0.24778 -0.4499033,-0.41384 -0.5831657,-0.68036 -0.030024,-0.0601 -0.061168,-0.35276 -0.097194,-0.38878 -0.048597,-0.0486 -0.1457915,-0.0486 -0.1943886,-0.0972 -0.022908,-0.0229 0.014489,-0.0682 0,-0.0972 -0.1166334,-0.23327 -0.4665329,-0.3499 -0.583166,-0.58317 -0.086054,-0.1721 -0.2988117,-0.30604 -0.3887772,-0.48597 -0.2211432,-0.44228 -0.6236512,-0.90037 -0.874749,-1.36072 -0.1527942,-0.28012 -0.2702724,-0.57848 -0.3887771,-0.87475 -0.049611,-0.12403 -0.00274,-0.29432 -0.097194,-0.38878 -0.022908,-0.0229 -0.064796,0 -0.097195,0 -0.032398,0 -0.074285,0.0229 -0.097194,0 -0.022908,-0.0229 0.022908,-0.0743 0,-0.0972 -0.0882,-0.0882 -0.2992972,-0.0602 -0.3887774,-0.19439 -0.1512769,-0.22691 -0.3653952,-1.33734 -0.3887772,-1.36072 -0.02291,-0.0229 -0.074285,0.0229 -0.097194,0 -0.045818,-0.0458 0.045818,-0.14857 0,-0.19439 -0.045818,-0.0458 -0.1485707,0.0458 -0.1943886,0 -0.219295,-0.21929 0.8267486,-1.81509 1.0691376,-2.13827 0.1076211,-0.1435 0.3497543,-0.25256 0.3887771,-0.29159 3.175e-4,-2.6e-4 0.2035167,-0.3007 0.291583,-0.38877 0.2749474,-0.27495 0.6072151,-0.51002 0.874749,-0.77756 0.4870916,-0.48709 0.7623863,-1.11371 1.1663318,-1.6523 0.3338002,-0.44507 0.6955337,-0.50115 1.0691376,-0.874748 0.4124922,-0.412493 0.7955676,-0.81861 1.1663317,-1.263528 0.2009307,-0.241115 0.6353659,-0.493175 0.7775546,-0.777552 0.014489,-0.02898 -0.022908,-0.07429 0,-0.09719 0.022908,-0.02291 0.074285,0.02291 0.097194,0 0.022908,-0.02291 -0.022908,-0.07429 0,-0.09719 0.036027,-0.03603 0.32873,-0.06717 0.3887772,-0.09719 0.191286,-0.09564 0.25411,-0.254111 0.388777,-0.388779 0.102452,-0.102449 0.268223,-0.114017 0.388777,-0.194387 0.14379,-0.09586 0.234903,-0.31184 0.388778,-0.388778 0.02898,-0.0145 0.07429,0.02291 0.09719,0 0.02291,-0.02291 -0.02291,-0.07429 0,-0.09719 0.02291,-0.02291 0.07429,0.02291 0.09719,0 0.02291,-0.02291 -0.01449,-0.06821 0,-0.09719 0.114976,-0.229952 0.42216,-0.593548 0.583166,-0.777555 0.477319,-0.545507 0.919613,-0.82242 1.360721,-1.263528 0.114734,-0.114731 0.18779,-0.284983 0.291583,-0.388776 0.05122,-0.05123 0.143162,-0.04597 0.194388,-0.09719 0.119037,-0.119036 0.136418,-0.285332 0.291583,-0.388776 0.32538,-0.216921 0.632107,-0.316053 0.971943,-0.485974 0.114396,-0.0572 0.31378,-0.313779 0.388778,-0.388776 0.114544,-0.114543 0.274232,-0.177038 0.388777,-0.291584 0.05123,-0.05123 0.05701,-0.134109 0.09719,-0.194386 -0.0097,-0.192548 0.143163,-0.04597 0.194389,-0.09719 0.02291,-0.02291 -0.01449,-0.06822 0,-0.09719 0.04098,-0.08196 0.153408,-0.112427 0.194389,-0.194389 0.01449,-0.02898 -0.02291,-0.07428 0,-0.09719 0.02291,-0.02291 0.07428,0.02291 0.09719,0 0.03224,-0.03224 0.165694,-0.331388 0.194389,-0.388776 0.08992,-0.17984 0.335011,-0.288136 0.485971,-0.388779 0.132832,-0.08855 0.139181,-0.181165 0.194389,-0.291581 0.202249,-0.4045 -0.0067,0.103904 0.194388,-0.09719 0.02291,-0.02291 -0.02291,-0.07428 0,-0.09719 0.05002,-0.05002 0.318176,-0.135554 0.388778,-0.19439 0.647216,-0.539345 1.188824,-1.223203 1.846692,-1.749496 0.16199,-0.129593 0.320012,-0.264308 0.485971,-0.388776 0.115911,-0.08693 0.286326,-0.09194 0.388778,-0.19439 0.05123,-0.05123 0.03692,-0.154204 0.09719,-0.194389 0.05391,-0.03594 0.132918,0.02048 0.194389,0 0.169283,-0.05643 0.305001,-0.360307 0.388777,-0.485971 0.08914,-0.13371 0.149943,-0.09996 0.291583,-0.194389 0.182167,-0.121444 0.274374,-0.314368 0.388777,-0.485971 0.11841,-0.177615 0.335493,-0.335494 0.485972,-0.485973 0.719397,-0.719397 1.012565,-0.943655 1.846692,-1.360721 0.207142,-0.103571 0.448269,-0.672404 0.583166,-0.874747 0.149529,-0.224295 0.478538,-0.568301 0.583165,-0.777555 0.02898,-0.05796 -0.04582,-0.148571 0,-0.194389 0.02291,-0.02291 0.07429,0.02291 0.09719,0 0.06048,-0.06049 0.09719,-1.052629 0.09719,-1.166331 0,-0.254701 0.08204,-1.682604 0,-1.846694 -0.08075,-0.161496 -0.130312,-0.29374 -0.194389,-0.48597 -0.02916,-0.08747 0.02916,-0.204108 0,-0.291584 -0.01449,-0.04347 -0.08271,-0.05373 -0.09719,-0.09719 -0.191225,-0.573678 0.184669,0.139311 -0.291583,-0.971945 z"
       id="path30" />
    <path
       style="fill:#c2e1c0;fill-opacity:0.698039;stroke:#3a4148;stroke-width:0.2"
       d="m 14.15081,8.5915634 c 0.09359,0 0.28077,0.09359 0.28077,0 0,-0.09359 -0.37436,0 -0.28077,0 0.205898,0 0.422362,0.065111 0.617694,0 0.224432,-0.074811 0.399472,-0.1812491 0.505387,-0.393078 0.04842,-0.096841 0.189335,-0.1749282 0.224615,-0.2807702 0.07816,-0.2344809 0.08949,-0.4930752 0.168463,-0.7300021 0.02808,-0.084231 -0.02808,-0.1965389 0,-0.28077 0.0084,-0.025114 0.04778,-0.031041 0.05615,-0.056154 0.0296,-0.088787 -0.01835,-0.1889975 0,-0.28077 0.03072,-0.1535931 0.05615,-0.2211375 0.05615,-0.393078 0,-0.2324836 -0.06487,-0.9284774 0,-1.1230803 0.0084,-0.025112 0.04778,-0.031041 0.05616,-0.056154 0.04485,-0.1345493 0.01032,-0.3117447 0.05615,-0.449232 0.0084,-0.025114 0.04778,-0.031041 0.05616,-0.056154 0.03396,-0.1018715 0.02989,-0.2318637 0.05615,-0.3369241 0.01015,-0.040605 0.03744,-0.074872 0.05615,-0.112308 0.01872,-0.056154 0.04455,-0.1104199 0.05616,-0.1684621 0.04589,-0.2294442 0.07342,-0.4276042 0.168462,-0.6176941 0.08052,-0.161045 0.679821,-0.5364496 0.84231,-0.617694 0.03348,-0.016742 0.07882,0.016742 0.112308,0 0.203587,-0.1017936 0.368294,0.00826 0.56154,-0.056154 0.188334,-0.062778 0.373206,-0.04953 0.56154,-0.112308 0.219001,-0.073 0.511001,0.073 0.730002,0 0.02511,-0.00837 0.03248,-0.044316 0.05615,-0.056154 0.07202,-0.03601 0.486905,-0.018482 0.505386,0 0.01323,0.013235 -0.01323,0.042918 0,0.056154 0.02596,0.025958 0.134558,-0.016952 0.168462,0 0.02368,0.011838 0.03248,0.044316 0.05615,0.056154 0.04492,0.022461 0.123539,-0.022461 0.168462,0 0.02368,0.011838 0.03248,0.044316 0.05615,0.056154 0.0339,0.016952 0.142504,-0.025958 0.168462,0 0.01324,0.013235 -0.01323,0.042918 0,0.056154 0.08415,0.084154 0.393219,-0.056084 0.505386,0 0.02368,0.011839 0.03248,0.044316 0.05615,0.056154 0.03391,0.016952 0.142504,-0.025958 0.168462,0 0.01324,0.013235 -0.01324,0.042918 0,0.056154 0.01324,0.013235 0.05615,0.018717 0.05615,0 0,-0.018719 -0.04292,0.013235 -0.05615,0 -0.01324,-0.013237 0.01324,-0.042918 0,-0.056154 -0.02647,-0.026471 -0.08584,0.026471 -0.112308,0 -0.003,-0.00304 -0.109265,-0.1654191 -0.112308,-0.168462 -0.0345,-0.034499 -0.130857,-0.037098 -0.168462,-0.112308 -0.05712,-0.1142333 -0.170922,-0.1709224 -0.28077,-0.2807701 -0.05866,-0.058664 -0.106577,-0.1936735 -0.168462,-0.224616 -0.07286,-0.03643 -0.148755,-0.074378 -0.224616,-0.112308 -0.03348,-0.016742 -0.08584,0.026471 -0.112308,0 -0.01323,-0.013236 0.01324,-0.042918 0,-0.056154 -0.01486,-0.014864 -0.14534,0 -0.168462,0 -0.07142,0 -0.403772,-0.04546 -0.449232,0 -0.01324,0.013236 0.01323,0.042918 0,0.056154 -0.03562,0.035619 -0.177863,-0.023377 -0.224616,0 -0.274305,0.1371526 -0.6305,0.2029421 -0.898464,0.336924 -0.04735,0.023677 -0.06496,0.088631 -0.112308,0.1123081 -0.177895,0.088948 -0.328446,0.2484538 -0.505386,0.336924 -0.114378,0.057189 -0.556657,0.025635 -0.617694,0.056154 -0.123153,0.061577 -0.562836,0.3395161 -0.617694,0.449232 -0.0084,0.016743 0.01324,0.042919 0,0.056154 -0.01323,0.013234 -0.04292,-0.013234 -0.05615,0 -0.02813,0.028133 -0.01934,0.1878025 -0.05615,0.2246161 -0.01324,0.013235 -0.04292,-0.013234 -0.05616,0 -0.05071,0.05071 -0.07885,0.2138635 -0.112307,0.28077 -0.05219,0.1043787 -0.171047,0.1736302 -0.224616,0.2807701 -0.02412,0.048234 -0.01527,0.086693 -0.05615,0.168462 -0.06738,0.1347695 0.06738,0.3706164 0,0.5053859 -0.01184,0.023678 -0.04778,0.031041 -0.05616,0.056154 -0.01797,0.053927 0.02695,0.1707216 0,0.2246162 -0.404477,0.8089548 -0.380494,1.8840696 -0.786156,2.6953924 -0.05603,0.1120711 -0.33716,0.3931965 -0.449232,0.4492321 -0.01674,0.00837 -0.04292,-0.013237 -0.05615,0 -0.01324,0.013234 0.01323,0.042918 0,0.056154 -0.013,0.013004 -0.205955,0.1060879 -0.224616,0.1123082 -0.01776,0.00592 -0.0588,-0.018529 -0.05615,0 0.01927,0.1348994 0.241584,0.3499858 0.112308,0.393078 -0.167523,0.055841 -0.287866,-0.2090521 -0.449232,-0.28077 -0.02419,-0.01075 -0.03248,0.044316 -0.05615,0.056154 -0.09287,0.046435 -0.348713,0.1684621 -0.449232,0.1684621 -0.107912,0 -0.351111,-0.049061 -0.449232,0 -0.08833,0.044167 -0.06367,0.056154 -0.168462,0.056154 -0.112308,0 -0.224616,0 -0.336924,0 -0.01872,0 -0.05615,-0.018719 -0.05615,0 0,0.038959 0.480033,-0.056154 0.505386,-0.056154 0.156776,0 0.824719,-0.06495 0.954618,0 0.218774,0.1093867 0.02458,0.056154 0.505386,0.056154 z"
       id="path31" />
    <path
       id="path32"
       style="fill:#c2e1c0;fill-opacity:0.698039;stroke:#3a4148;stroke-width:0.2"
       d="m 31.69431,1.7316772 c -0.03475,0.00134 -0.05843,0.00447 -0.06743,0.0093 -0.07556,0.040537 -0.133946,0.071601 -0.209506,0.1121379 -0.0312,0.016742 -0.07984,-0.026471 -0.104513,0 -0.0028,0.00304 -0.101677,0.1654223 -0.104513,0.1684651 -0.0028,0.00304 -0.154173,0.1090951 -0.157009,0.1121379 -0.106609,0.1143868 0.114154,0.1126546 0.157009,0.1126546 0.03543,0 0.260263,-0.1671139 0.261523,-0.1684652 0.01233,-0.013236 -0.01233,-0.043091 0,-0.056327 0.02039,-0.02188 0.177567,0 0.209506,0 0.06083,0 0.621727,-0.00677 0.628039,0 0.01233,0.013235 -0.01233,0.043091 0,0.056327 0.02419,0.025958 0.125412,-0.016952 0.15701,0 0.140733,0.0755 0.27605,0.1478383 0.418532,0.2242758 0.0312,0.016742 0.07984,-0.026471 0.104513,0 0.0028,0.00304 0.102158,0.1654222 0.104994,0.1684651 0.01233,0.013235 0.03968,-0.013235 0.05202,0 0.01233,0.013235 -0.01233,0.043091 0,0.056327 0.02616,0.028077 0.07883,0.02825 0.104995,0.056327 0.03034,0.032547 0.07418,0.191729 0.104513,0.2242757 0.01233,0.013234 0.04017,-0.013234 0.0525,0 0.02467,0.026471 -0.02467,0.086183 0,0.1126546 0.01233,0.013234 0.03968,-0.013235 0.05202,0 0.02467,0.026471 -0.02467,0.085667 0,0.1121378 0.01233,0.013235 0.04017,-0.013237 0.0525,0 0.02467,0.026471 -0.01561,0.078654 0,0.1121379 0.05281,0.1133115 0.120032,0.2179067 0.15701,0.3369303 0.01103,0.035515 -0.01103,0.07714 0,0.1126547 0.0396,0.1274758 0.152308,0.2710333 0.209025,0.3927409 0.100378,0.215407 0.11488,0.4707993 0.209507,0.6738606 0.0234,0.050226 -0.01654,0.1151929 0,0.1684652 0.03558,0.1145302 0.117641,0.2102026 0.15701,0.3369303 0.01295,0.041671 0.100773,0.4450589 0.104512,0.4490682 0.0027,0.00289 0.0069,0.0052 0.01011,0.00775 0.0048,-0.044276 0.0054,-0.08649 -0.01011,-0.1198893 -0.152601,-0.3274602 -0.03488,-1.0856497 -0.104514,-1.2350628 -0.09922,-0.2129124 -0.109699,-0.4596838 -0.209507,-0.6738606 -0.02915,-0.062559 -0.08792,-0.4317802 -0.104513,-0.449585 -0.01233,-0.013234 -0.04017,0.013234 -0.0525,0 -0.03034,-0.032547 -0.07418,-0.1917291 -0.104512,-0.2242757 -0.108284,-0.1161847 0.0045,0.1773721 -0.104513,-0.056327 -0.0078,-0.016743 0.01233,-0.043091 0,-0.056327 -0.01233,-0.013234 -0.04017,0.013234 -0.0525,0 -0.02192,-0.023532 -0.03665,-0.1344325 -0.0525,-0.1684652 -0.04542,-0.097455 -0.15231,-0.2152234 -0.209026,-0.3369303 -0.03899,-0.083673 -0.236037,-0.2950939 -0.314019,-0.3369304 -0.01561,-0.00837 -0.04017,0.013236 -0.0525,0 -0.01233,-0.013235 0.01233,-0.042574 0,-0.05581 -0.05233,-0.056154 -0.209186,-1.733e-4 -0.261522,-0.056327 -0.01233,-0.013236 0.01233,-0.043091 0,-0.056327 -0.0075,-0.00801 -0.788346,-0.074474 -1.031641,-0.065112 z m 2.663869,3.8912354 c -0.01008,0.09468 -0.04339,0.201947 -0.01011,0.2733683 0.03778,0.081075 0.06721,0.1432017 0.104995,0.2242757 0.01561,0.033484 -0.02467,0.086184 0,0.1126547 0.02095,0.022477 0.06635,0.030242 0.104512,0.1121378 0.01561,0.033484 -0.02467,0.085667 0,0.1121379 0.01233,0.013235 0.04017,-0.013234 0.0525,0 0.03417,0.036657 0.126943,0.2724093 0.15701,0.3369303 0.05233,0.112308 0.209181,0.1688119 0.261522,0.2811198 0.0078,0.016742 -0.01233,0.042574 0,0.055811 0.01233,0.013235 0.04017,-0.013237 0.0525,0 0.01744,0.018718 0.03458,0.1497461 0.05202,0.1684651 0.01234,0.013234 0.03689,-0.00837 0.0525,0 0.0701,0.037605 0.07236,0.1339662 0.104512,0.1684652 0.02617,0.028077 0.07883,0.02825 0.104995,0.056327 0.02467,0.026471 -0.02467,0.085667 0,0.1121379 0.01233,0.013235 0.03968,-0.013234 0.05201,0 0.05011,0.053774 0.09288,0.2743633 0.209506,0.3369303 l 0.314019,0.1684652 c 0.137968,0.074017 0.37652,-0.052577 0.523527,0 0.0234,0.00837 0.02861,0.047957 0.05201,0.056327 0.120306,0.043028 0.538506,0.021956 0.787457,0.0093 -0.0011,-0.00287 -0.0024,-0.00581 -0.0024,-0.0093 0,-0.074872 0.139727,0 0.209506,0 -0.159426,-0.022808 -0.237846,-0.2333876 -0.366516,-0.3369304 -0.04187,-0.033693 -0.107363,0.017759 -0.15701,0 -0.06978,-0.024958 -0.142014,-0.076187 -0.209025,-0.1121378 -0.04186,-0.02246 -0.115145,0.02246 -0.15701,0 -0.08999,-0.048281 -0.17201,-0.064374 -0.262004,-0.1126546 -0.0316,-0.016952 -0.132815,0.025958 -0.157009,0 -0.01233,-0.013236 0.01233,-0.042576 0,-0.055811 -0.02111,-0.022648 -0.257103,-0.025791 -0.31402,-0.056327 -0.19849,-0.1064884 -0.313557,-0.2245475 -0.523038,-0.33693 -0.07009,-0.037605 -0.07284,-0.1339652 -0.104994,-0.1684652 -0.0028,-0.00304 -0.154214,-0.1090979 -0.15701,-0.1121379 -0.0043,-0.00459 -0.204737,-0.3323403 -0.209025,-0.3369303 -0.01234,-0.013235 -0.04017,0.013234 -0.0525,0 -0.01736,-0.018628 -0.08905,-0.1916355 -0.104513,-0.2247925 -0.0038,-0.00819 -0.08387,-0.1156282 -0.147376,-0.1922363 -10e-4,-0.00854 -0.0033,-0.018985 -0.0096,-0.032556 -0.04776,-0.1024811 -0.15701,-0.2170034 -0.15701,-0.3369303 0,-0.1190731 -0.05998,-0.1328371 -0.09488,-0.1607137 z m 3.182578,2.5755534 h 1.465585 c 0.03365,0 0.261522,0.034111 0.261522,-0.056327 0,-0.018719 -0.04017,0.013234 -0.0525,0 -0.01233,-0.013235 0.01233,-0.042577 0,-0.055811 -0.04785,-0.051343 -0.301671,0.023019 -0.366035,0 -0.0234,-0.00837 -0.0291,-0.047957 -0.0525,-0.056327 -0.141305,-0.050539 -0.329723,0.050539 -0.47103,0 -0.0234,-0.00837 -0.0291,-0.047957 -0.0525,-0.056327 -0.04598,-0.016444 -0.273022,-0.01955 -0.314021,0 -0.142584,0.067995 -0.263867,0.2469195 -0.418532,0.2247925 z m 0,0 c -0.01955,0 -0.137311,0.00575 -0.207098,0.0093 0.02354,0.05851 0.27362,-0.0093 0.207098,-0.0093 z" />
    <path
       style="fill:#c2e1c0;fill-opacity:0.698039;stroke:#3a4148;stroke-width:0.2"
       d="m 20.804885,8.3669472 c 0.22784,-0.084581 0.54233,0.072934 0.774454,0 0.06171,-0.019389 0.11962,-0.084453 0.17872,-0.1123079 0.01776,-0.00837 0.04553,0.013234 0.05958,0 0.01403,-0.013234 -0.01405,-0.042918 0,-0.056154 0.123259,-0.1161849 -0.0048,0.1775455 0.119146,-0.056154 0.04585,-0.086433 0.01134,-0.9973651 0.05956,-1.1792341 0.08581,-0.3235629 0.05957,-0.6679626 0.05957,-1.0107724 0,-0.205563 -0.06618,-1.6160175 0,-1.7407741 0.01256,-0.023678 0.04702,-0.032477 0.05957,-0.056154 0.06022,-0.1135357 -0.03336,-0.4986449 0.05957,-0.673848 0.065,-0.1225481 0.190049,-0.2566511 0.238294,-0.3930782 0.01256,-0.035515 -0.01256,-0.076793 0,-0.112308 0.03726,-0.1053497 0.173306,-0.188885 0.238293,-0.28077 0.07826,-0.1106495 0.180573,-0.3193702 0.297868,-0.393078 0.03694,-0.023217 0.08774,-0.026558 0.119147,-0.056154 0.08604,-0.081101 0.162418,-0.2943662 0.297866,-0.3369241 0.03768,-0.011838 0.08147,0.011838 0.119147,0 0.05436,-0.017081 0.279112,-0.2000051 0.357441,-0.224616 0.106057,-0.033322 0.251387,-0.022832 0.35744,-0.056154 0.02664,-0.00837 0.03293,-0.047783 0.05956,-0.056154 0.202771,-0.063711 0.556359,0 0.774454,0 0.454631,0 0.881674,0.011228 1.310615,0.112308 0.277729,0.065447 0.667126,0 0.953177,0 0.233341,0 1.429965,-0.056058 1.548906,0 0.123761,0.058328 0.212423,0.122898 0.357442,0.168462 0.03768,0.011838 0.09107,-0.026471 0.119146,0 0.01404,0.013235 -0.01404,0.042918 0,0.056154 0.01404,0.013235 0.04554,-0.013236 0.05956,0 0.06279,0.059191 0.07346,0.1528358 0.119147,0.224616 C 29.954943,2.8445469 29.86,3.62872 29.86,4.4361669 c 0,0.468612 -0.02953,1.0112492 0.178719,1.4038501 0.03922,0.073951 -0.02787,0.2019601 0,0.28077 0.0089,0.025114 0.05069,0.031041 0.05957,0.056154 0.02512,0.07103 -0.01926,0.1519796 0,0.2246159 0.06455,0.2433484 0.126764,0.4635931 0.238293,0.6738482 0.018,0.033904 -0.02753,0.1425041 0,0.1684621 0.01404,0.013234 0.04553,-0.013235 0.05957,0 0.03931,0.037056 0.08417,0.1800503 0.178718,0.2246159 0.08373,0.039459 0.17171,0.1651571 0.297869,0.2246162 0.307574,0.1449599 0.515881,0.28077 0.893603,0.28077 0.158861,0 -0.01987,-0.018717 0.05956,0.056154 0.02979,0.028077 0.148933,-0.028077 0.178722,0 0.01403,0.013234 -0.01404,0.042918 0,0.056154 0.01403,0.013234 0.05957,0.018717 0.05957,0 0,-0.018717 -0.03972,0 -0.05957,0 -0.09929,0 -0.198577,0 -0.297869,0 -0.07033,0 -0.536019,-0.084165 -0.595732,-0.1123079 C 31.039596,7.940177 31.003853,7.8390998 30.932366,7.8054072 30.602735,7.6500518 30.602656,7.17996 30.515352,6.850789 c -0.02594,-0.09779 -0.08977,-0.1838487 -0.119146,-0.28077 -0.152679,-0.5037 -0.178722,-1.043944 -0.178722,-1.5723122 0,-0.413545 0.06396,-0.8901871 -0.119146,-1.2353882 -0.018,-0.033904 0.02753,-0.1425041 0,-0.1684621 -0.01404,-0.013234 -0.04553,0.013235 -0.05958,0 -0.03972,-0.037436 0.03971,-0.18718 0,-0.2246159 -0.01403,-0.013234 -0.04553,0.013235 -0.05957,0 -0.01404,-0.013234 0.0089,-0.039412 0,-0.056154 C 29.924678,3.2103187 29.822379,3.0707189 29.740899,3.0323165 29.398816,2.8710927 29.313462,2.4097105 28.966442,2.2461604 28.782876,2.1596448 28.557933,2.109783 28.370709,2.0215443 c -0.02512,-0.011838 -0.03293,-0.047783 -0.05957,-0.056154 -0.106217,-0.033374 -0.248649,0.025636 -0.357439,0 -0.04307,-0.010151 -0.07607,-0.046003 -0.119147,-0.056154 -0.201346,-0.047448 -0.458907,0.06171 -0.655309,0 -0.02664,-0.00837 -0.03446,-0.044316 -0.05956,-0.056154 -0.05766,-0.027182 -0.113097,0.00285 -0.238293,-0.056154 -0.06355,-0.029949 -0.174749,0.029949 -0.238295,0 -0.198067,-0.093344 -0.276802,-0.2554303 -0.53617,-0.3369241 -0.102832,-0.032309 -0.776176,0.2254274 -0.893601,0.2807701 -0.117459,0.055359 -0.302199,0.00204 -0.417014,0.056154 -0.08601,0.040537 -0.152283,0.071771 -0.238294,0.112308 -0.06359,0.02997 -0.05556,-0.029971 -0.119147,0 -0.06939,0.032706 -0.109325,0.079602 -0.178719,0.112308 -0.03552,0.016742 -0.09107,-0.026471 -0.119147,0 -0.01404,0.013235 0.01404,0.042918 0,0.056154 -0.0617,0.058163 -0.711588,0.05305 -0.774455,0.1123081 -0.04688,0.044191 -0.132674,0.2935201 -0.178721,0.336924 -0.01403,0.013235 -0.04553,-0.013235 -0.05957,0 -0.01986,0.018718 -0.03972,0.1497441 -0.05956,0.168462 -0.02979,0.028077 -0.08936,0.028077 -0.119147,0.056154 -0.01986,0.018717 -0.03972,0.1497439 -0.05957,0.1684621 -0.02979,0.028077 -0.08936,0.028077 -0.119147,0.056154 -0.01986,0.018719 -0.03972,0.1497441 -0.05956,0.1684621 -0.01405,0.013234 -0.04553,-0.013234 -0.05958,0 -0.02808,0.026471 0.01776,0.078824 0,0.1123079 -0.03469,0.065412 -0.08445,0.1030499 -0.119145,0.1684621 -0.02382,0.044923 0.02382,0.123539 0,0.168462 -0.108786,0.2050815 -0.134573,0.424162 -0.178722,0.6738483 -0.0431,0.2437564 -0.06778,0.4879297 -0.119146,0.730002 -0.01623,0.076484 0.0369,0.2111944 0,0.2807701 -0.08019,0.1511749 -0.02079,0.2638197 -0.05958,0.3369241 -0.01753,0.033067 -0.171929,0.417222 -0.178719,0.449232 -0.01168,0.055064 0.01168,0.1133983 0,0.1684621 -0.03739,0.176177 -0.29112,0.542458 -0.357441,0.7300021 -0.04206,0.1189598 -0.02646,0.2120881 -0.05957,0.3369241 -0.02592,0.097722 -0.327456,0.8246459 -0.35744,0.84231 -0.442206,0.2605159 -0.381346,0.2296237 -0.8936,0.3369241 -0.0765,0.016023 -0.348515,0.032284 -0.417015,0 -0.03972,-0.018719 -0.119146,-0.098009 -0.119146,-0.056154 0,0.037436 0.09107,0.026471 0.119146,0 0.01405,-0.013234 -0.01405,-0.042918 0,-0.056154 0.01405,-0.013234 0.04554,0.013237 0.05957,0 0.01405,-0.013234 -0.01403,-0.042918 0,-0.056154 0.01405,-0.013234 0.04553,0.013234 0.05956,0 0.01405,-0.013234 -0.01405,-0.042918 0,-0.056154 0.0037,-0.00352 0.269591,-0.1551353 0.297867,-0.1684621 0.167561,-0.078971 0.324144,0.1781321 0.476587,0.28077 z"
       id="path33" />
  </g>
</svg>
